<svg width="18" height="18" viewBox="0 0 18 18" fill="none" xmlns="http://www.w3.org/2000/svg">
<path fill-rule="evenodd" clip-rule="evenodd" d="M7.23043 11.6719C4.02709 11.6719 1.29126 12.156 1.29126 14.096C1.29126 16.036 4.01043 16.5377 7.23043 16.5377C10.4346 16.5377 13.1696 16.0527 13.1696 14.1135C13.1696 12.1744 10.4513 11.6719 7.23043 11.6719Z" stroke="white" stroke-width="1.5" stroke-linecap="round" stroke-linejoin="round"/>
<path fill-rule="evenodd" clip-rule="evenodd" d="M7.23049 8.90484C9.33299 8.90484 11.0372 7.20067 11.0372 5.09817C11.0372 2.99567 9.33299 1.2915 7.23049 1.2915C5.12882 1.2915 3.42463 2.99567 3.42463 5.09817C3.41716 7.19317 5.10882 8.89734 7.20466 8.90484H7.23049Z" stroke="white" stroke-width="1.5" stroke-linecap="round" stroke-linejoin="round"/>
<path d="M15.003 6.22412V9.56579" stroke="white" stroke-width="1.5" stroke-linecap="round" stroke-linejoin="round"/>
<path d="M16.7079 7.89502H13.2996" stroke="white" stroke-width="1.5" stroke-linecap="round" stroke-linejoin="round"/>
</svg>
