<svg width="175" height="55" viewBox="0 0 175 55" fill="none" xmlns="http://www.w3.org/2000/svg">
  <path
    d="M63.4531 9.52539C63.4277 12.877 62.2598 15.9746 59.9492 18.8184L35.46 48.9062C32.1592 52.9688 28.4395 55 24.3008 55H14.5508L18.3975 11.0107H0.763672L6.43848 1.41309H24.8721C26.9287 1.41309 28.6553 2.04785 30.0518 3.31738C31.4482 4.58691 32.1465 6.19922 32.1465 8.1543C32.1465 8.4082 32.1338 8.66211 32.1084 8.91602L28.1475 47.6494L51.4561 18.5898C49.0693 18.1328 47.0889 17.0791 45.5146 15.4287C43.9658 13.7529 43.1914 11.7852 43.1914 9.52539C43.1914 7.01172 44.1816 4.86621 46.1621 3.08887C48.1426 1.28613 50.5293 0.384766 53.3223 0.384766C56.1406 0.384766 58.54 1.28613 60.5205 3.08887C62.501 4.8916 63.4785 7.03711 63.4531 9.52539ZM83.2578 13.4863C83.2578 16.0254 82.2676 18.1836 80.2871 19.9609C78.332 21.7383 75.9707 22.627 73.2031 22.627C70.3848 22.627 67.9854 21.7383 66.0049 19.9609C64.0498 18.1836 63.0723 16.0254 63.0723 13.4863C63.0723 10.9727 64.0498 8.82715 66.0049 7.0498C67.9854 5.27246 70.3848 4.38379 73.2031 4.38379C75.9707 4.38379 78.332 5.27246 80.2871 7.0498C82.2676 8.82715 83.2578 10.9727 83.2578 13.4863ZM86 48.9062C85.3398 51.1406 83.9688 52.791 81.8867 53.8574C80.3887 54.6191 78.7637 55 77.0117 55H61.9678C58.3369 55 56.5215 53.4766 56.5215 50.4297C56.5215 49.5664 56.6992 48.6396 57.0547 47.6494L63.6816 29.1016H77.5068L70.4609 48.9062H86ZM112.279 13.4863C112.279 16.0254 111.289 18.1836 109.309 19.9609C107.354 21.7383 104.992 22.627 102.225 22.627C99.4062 22.627 97.0068 21.7383 95.0264 19.9609C93.0713 18.1836 92.0938 16.0254 92.0938 13.4863C92.0938 10.9727 93.0713 8.82715 95.0264 7.0498C97.0068 5.27246 99.4062 4.38379 102.225 4.38379C104.992 4.38379 107.354 5.27246 109.309 7.0498C111.289 8.82715 112.279 10.9727 112.279 13.4863ZM115.021 48.9062C114.361 51.1406 112.99 52.791 110.908 53.8574C109.41 54.6191 107.785 55 106.033 55H90.9893C87.3584 55 85.543 53.4766 85.543 50.4297C85.543 49.5664 85.7207 48.6396 86.0762 47.6494L92.7031 29.1016H106.528L99.4824 48.9062H115.021ZM174.207 9.52539C174.182 12.877 173.014 15.9746 170.703 18.8184L146.214 48.9062C142.913 52.9688 139.193 55 135.055 55H125.305L129.151 11.0107H111.518L117.192 1.41309H135.626C137.683 1.41309 139.409 2.04785 140.806 3.31738C142.202 4.58691 142.9 6.19922 142.9 8.1543C142.9 8.4082 142.888 8.66211 142.862 8.91602L138.901 47.6494L162.21 18.5898C159.823 18.1328 157.843 17.0791 156.269 15.4287C154.72 13.7529 153.945 11.7852 153.945 9.52539C153.945 7.01172 154.936 4.86621 156.916 3.08887C158.896 1.28613 161.283 0.384766 164.076 0.384766C166.895 0.384766 169.294 1.28613 171.274 3.08887C173.255 4.8916 174.232 7.03711 174.207 9.52539Z"
    fill="#F04287" />
</svg>