<svg width="24" height="24" viewBox="0 0 24 24" fill="none" xmlns="http://www.w3.org/2000/svg">
  <path
    d="M16.3297 0C16.3802 0 16.4307 0 16.4841 0C16.608 1.53063 16.0237 2.67432 15.3137 3.50254C14.617 4.32504 13.663 5.12276 12.1199 5.00172C12.017 3.49301 12.6022 2.43414 13.3113 1.60783C13.9689 0.83775 15.1745 0.152491 16.3297 0Z"
    fill="white" />
  <path
    d="M21.0004 15.9314C21.0004 15.9466 21.0004 15.96 21.0004 15.9743C20.5667 17.2876 19.9482 18.4132 19.1934 19.4578C18.5043 20.4061 17.6599 21.6822 16.1521 21.6822C14.8493 21.6822 13.9839 20.8445 12.6486 20.8216C11.2362 20.7987 10.4594 21.5221 9.16801 21.7042C9.02028 21.7042 8.87256 21.7042 8.72769 21.7042C7.77938 21.5669 7.01407 20.8159 6.45652 20.1392C4.81247 18.1397 3.54203 15.5568 3.30566 12.2516C3.30566 11.9275 3.30566 11.6045 3.30566 11.2804C3.40574 8.91488 4.55514 6.99159 6.08291 6.05948C6.88921 5.56388 7.99763 5.14167 9.23186 5.33038C9.76082 5.41235 10.3012 5.59343 10.7749 5.77261C11.2238 5.94511 11.7851 6.25105 12.317 6.23485C12.6772 6.22436 13.0356 6.03661 13.3987 5.90413C14.4623 5.52004 15.505 5.07972 16.8793 5.28654C18.531 5.53624 19.7033 6.27011 20.4276 7.40236C19.0304 8.29157 17.9258 9.63159 18.1145 11.9199C18.2822 13.9986 19.4907 15.2147 21.0004 15.9314Z"
    fill="white" />
</svg>