<svg width="64" height="64" viewBox="0 0 64 64" fill="none" xmlns="http://www.w3.org/2000/svg">
<rect x="0.75" y="0.75" width="62.5" height="62.5" rx="7.25" fill="#323032" stroke="#323032" stroke-width="1.5"/>
<path fill-rule="evenodd" clip-rule="evenodd" d="M27.0411 21.3042C28.3101 21.1667 29.9097 21.1667 31.9503 21.1667H32.0508C34.0914 21.1667 35.691 21.1667 36.96 21.3042C38.2551 21.4445 39.3044 21.736 40.2003 22.3869C40.7427 22.781 41.2197 23.258 41.6137 23.8003C42.2647 24.6963 42.5561 25.7456 42.6964 27.0406C42.8339 28.3096 42.8339 29.9092 42.8339 31.9498V32.0067C42.8339 33.0449 42.8339 33.9648 42.8171 34.7784C42.7675 37.1719 42.5803 38.8695 41.6137 40.1998C41.2197 40.7422 40.7427 41.2192 40.2003 41.6132C39.3044 42.2642 38.2551 42.5556 36.96 42.6959C35.691 42.8334 34.0915 42.8334 32.051 42.8334H31.9503C29.9097 42.8334 28.3101 42.8334 27.0411 42.6959C25.7461 42.5556 24.6967 42.2642 23.8008 41.6132C23.2781 41.2335 22.8162 40.7767 22.4306 40.2586C22.4161 40.2391 22.4017 40.2195 22.3874 40.1998C21.7365 39.3039 21.445 38.2546 21.3047 36.9596C21.1672 35.6905 21.1672 34.091 21.1672 32.0504V31.9498C21.1672 29.9092 21.1672 28.3096 21.3047 27.0406C21.445 25.7456 21.7365 24.6963 22.3874 23.8003C22.7815 23.258 23.2584 22.781 23.8008 22.3869C24.6967 21.736 25.7461 21.4445 27.0411 21.3042ZM41.162 33.9464L41.092 33.8788C40.7854 33.5842 40.5588 33.3849 40.3457 33.2336C37.9582 31.5384 34.6648 31.9873 32.8181 34.2597C32.5951 34.5341 32.3718 34.8998 32.0208 35.5136L31.445 35.3334C30.1167 35.0677 29.4525 34.9349 28.8429 34.9479C27.2115 34.9825 25.6779 35.7326 24.6489 36.999C24.3059 37.4212 24.0279 37.9489 23.5417 38.9182C23.6017 39.0243 23.6663 39.1245 23.7358 39.2202L23.7677 39.2636C24.0527 39.6466 24.3941 39.9842 24.7805 40.2649C25.3449 40.675 26.0674 40.914 27.2206 41.039C28.3895 41.1656 29.8988 41.1667 32.0006 41.1667C34.1023 41.1667 35.6117 41.1656 36.7805 41.039C37.9338 40.914 38.6562 40.675 39.2207 40.2649C39.6216 39.9736 39.9741 39.6211 40.2654 39.2202C40.8895 38.3612 41.1005 37.1697 41.1508 34.744C41.156 34.4896 41.1596 34.2241 41.162 33.9464ZM30.8895 30.889C29.6622 30.889 28.6672 29.894 28.6672 28.6667C28.6672 27.4394 29.6622 26.4445 30.8895 26.4445C32.1168 26.4445 33.1117 27.4394 33.1117 28.6667C33.1117 29.894 32.1168 30.889 30.8895 30.889Z" fill="#8C8C8C"/>
</svg>
