<?xml version="1.0" encoding="UTF-8" standalone="no"?>
<!-- Created with Inkscape (http://www.inkscape.org/) -->

<svg
     xmlns:dc="http://purl.org/dc/elements/1.1/"
     xmlns:cc="http://creativecommons.org/ns#"
     xmlns:rdf="http://www.w3.org/1999/02/22-rdf-syntax-ns#"
     xmlns:svg="http://www.w3.org/2000/svg"
     xmlns="http://www.w3.org/2000/svg"
     xmlns:sodipodi="http://sodipodi.sourceforge.net/DTD/sodipodi-0.dtd"
     xmlns:inkscape="http://www.inkscape.org/namespaces/inkscape"
     width="1205.6104"
     height="813.99036"
     id="svg3526"
     version="1.1"
     inkscape:version="0.48.5 r10040"
     sodipodi:docname="robotBreakfast.svg">
    <defs
         id="defs3528" />
    <sodipodi:namedview
         id="base"
         pagecolor="#ffffff"
         bordercolor="#666666"
         borderopacity="1.0"
         inkscape:pageopacity="0.0"
         inkscape:pageshadow="2"
         inkscape:zoom="0.88"
         inkscape:cx="691.22612"
         inkscape:cy="351.94913"
         inkscape:document-units="px"
         inkscape:current-layer="layer1"
         showgrid="false"
         fit-margin-top="0"
         fit-margin-left="0"
         fit-margin-right="0"
         fit-margin-bottom="0" />
    <metadata
         id="metadata3531">
        <rdf:RDF>
            <cc:Work
                 rdf:about="">
                <dc:format>image/svg+xml</dc:format>
                <dc:type
                     rdf:resource="http://purl.org/dc/dcmitype/StillImage" />
                <dc:title />
            </cc:Work>
        </rdf:RDF>
    </metadata>
    <g
         inkscape:label="Layer 1"
         inkscape:groupmode="layer"
         id="layer1"
         transform="translate(-838.42113,-345.375)">
        <g
             id="g4737">
            <g
                 transform="translate(4,0)"
                 id="g4319">
                <path
                     sodipodi:nodetypes="cc"
                     inkscape:connector-curvature="0"
                     id="path5027"
                     d="M 1459.4697,825.88857 C 1435.5273,875.77217 1553.3316,938.02596 1595.9164,845.30534"
                     style="fill:none;stroke:#8a8f86;stroke-width:15.99999905;stroke-linecap:round;stroke-linejoin:round;stroke-miterlimit:4;stroke-opacity:1;stroke-dasharray:none"
                     inkscape:transform-center-x="62.09951"
                     inkscape:transform-center-y="30.577375" />
                <path
                     inkscape:connector-curvature="0"
                     style="fill:#e5e1d1;fill-opacity:1;stroke:#000000;stroke-width:3.99999976;stroke-linecap:round;stroke-linejoin:round;stroke-miterlimit:4;stroke-opacity:1;stroke-dasharray:none;stroke-dashoffset:0"
                     d="M 1664.393,821.21181 C 1643.8278,796.47871 1607.3156,792.68777 1582.85,813.05483 1558.249,833.35823 1554.9238,869.93837 1575.4244,894.80629 1595.9248,919.67453 1632.6371,923.39505 1657.3022,902.95674 1675.637,887.7985 1682.5972,862.74036 1674.8636,839.97341 L 1619.9439,858.10877 z"
                     id="path5119"
                     inkscape:transform-center-x="53.879498"
                     inkscape:transform-center-y="-26.734087" />
                <g
                     id="g3929"
                     transform="matrix(1.0228452,0,0,1.0228452,-740.09404,4.3853564)">
                    <path
                         style="fill:#9e3811;fill-opacity:1"
                         d="M 2578.172,804.28555 C 2619.0057,804.59155 2660.3038,811.31307 2697.5999,828.44605 2705.6392,831.7228 2713.9024,836.49832 2718.0315,844.42704 2717.0997,857.07644 2712.7062,869.27089 2707.8415,880.90838 2703.8779,889.98537 2699.2778,898.82562 2694.1975,907.30279 2663.1452,927.98687 2625.4441,934.97889 2588.9119,938.3884 2573.0161,940.00814 2556.9883,938.84954 2541.0377,939.19604 2509.5161,937.06371 2476.5773,934.78341 2448.2964,919.31431 2444.9964,916.37514 2443.3231,911.74984 2440.7527,908.09325 2431.3514,892.25445 2422.9258,875.86697 2413.8256,859.85815 2415.831,860.80682 2417.1307,859.95131 2418.1903,858.65528 2416.96,856.49088 2416.3173,854.26678 2416.3173,852.00512 2415.8844,852.23948 2415.3927,852.39134 2414.8223,852.45191 2413.1095,852.22534 2409.7945,850.13585 2412.9664,849.35881 2416.5293,846.20001 2418.9926,841.70527 2422.7956,838.61889 2433.0194,829.50244 2446.024,824.2899 2458.6583,819.47607 2492.6718,807.57309 2529.1182,805.8014 2564.8202,804.37146 2569.2684,804.2825 2573.7238,804.25084 2578.172,804.28555 z"
                         id="path3112"
                         inkscape:connector-curvature="0" />
                    <path
                         inkscape:connector-curvature="0"
                         id="path3114"
                         d="M 2415.0767,795.9166 C 2414.9287,795.92877 2414.7475,795.977 2414.5302,796.03804 2414.2233,796.1725 2413.3086,795.65027 2413.6801,796.46307 2412.2082,800.57012 2417.2971,795.73406 2415.0767,795.9166 z M 2714.4838,795.9166 C 2713.2103,796.28478 2717.6246,800.31343 2716.2446,796.46307 2716.6161,795.65027 2715.6711,796.1725 2715.3642,796.03804 2715.1469,795.977 2714.9656,795.92877 2714.8178,795.9166 2714.6789,795.90519 2714.5687,795.89205 2714.4838,795.9166 z M 2544.7125,812.94837 C 2543.5028,812.95301 2542.2788,812.95977 2541.0693,812.97873 2505.734,813.53871 2470.6124,821.12348 2438.059,834.80734 2431.0145,837.12419 2424.1651,844.13048 2425.7025,852.05164 2426.2698,854.47416 2427.554,856.46003 2429.194,858.18429 2429.4816,859.97698 2430.1615,861.69913 2431.2584,863.16328 2436.8773,870.32852 2446.2151,872.73123 2454.2406,876.12686 2490.7829,882.38223 2527.8867,884.62724 2564.932,883.68642 2601.9873,884.62922 2639.1015,882.38393 2675.6537,876.12686 2683.6792,872.73123 2693.017,870.32852 2698.636,863.16328 2699.7329,861.69913 2700.4128,859.97698 2700.7005,858.18429 2702.3404,856.46003 2703.6246,854.47416 2704.1918,852.05164 2705.7292,844.13048 2698.8799,837.12419 2691.8355,834.80734 2659.2819,821.12348 2624.1603,813.53871 2588.825,812.97873 2587.6155,812.95977 2586.4219,812.95301 2585.2123,812.94837 2581.5833,812.93448 2577.9396,812.99456 2574.3132,813.13053 2571.1899,813.31822 2568.0563,813.48899 2564.932,813.64665 2561.8178,813.48941 2558.6943,813.31761 2555.5812,813.13053 2551.9549,812.99456 2548.3414,812.93448 2544.7125,812.94837 z"
                         style="fill:#808080;fill-opacity:1" />
                    <g
                         transform="translate(0,100)"
                         id="g3155">
                        <path
                             inkscape:connector-curvature="0"
                             id="path3120"
                             d="M 2255.6733,696.92971 C 2266.5221,698.48495 2277.4916,698.70992 2288.4339,699.30227 2290.2299,701.85707 2292.9576,706.05234 2290.0077,708.7761 2285.1547,711.88191 2278.918,710.67892 2273.5483,711.99696 2272.0726,712.28173 2270.5895,712.66713 2269.2693,713.40652 2279.6207,720.43408 2292.7387,718.98271 2304.3308,722.28287 2340.2843,725.84958 2375.3085,737.10628 2411.6078,736.86641 2411.1096,742.14869 2411.9042,747.73233 2414.5263,752.44671 2412.8043,753.97493 2411.1246,754.46715 2409.3226,752.88884 2399.8398,748.54254 2389.3232,747.62508 2379.1448,745.79258 2332.5972,738.53866 2286.1404,730.07837 2239.1083,726.74339 2233.6807,725.83012 2228.3636,723.55711 2223.6503,721.02118 2222.2863,717.60865 2222.3053,713.78554 2224.238,710.60124 2228.7211,702.00308 2239.0032,699.15927 2247.8879,697.7865 2250.4754,697.4495 2253.0727,696.93209 2255.6861,696.92816 z"
                             style="fill:#aeaeae" />
                        <path
                             style="fill:#4e4e4e"
                             inkscape:connector-curvature="0"
                             id="path3122"
                             d="M 2288.2662,699.17718 C 2337.4291,705.69926 2385.7421,718.24618 2432.1103,735.8072 2424.7931,740.16899 2418.5969,746.3104 2413.8367,753.39851 2411.1902,748.72011 2410.1185,743.25326 2410.4958,737.91252 2374.1382,737.86569 2339.0069,726.75829 2303.072,723.10192 2291.2354,719.87908 2277.5788,721.30983 2267.4015,713.35713 2273.8303,708.73893 2282.6651,711.71758 2289.3537,707.96247 2291.817,705.08361 2288.5234,701.50829 2286.9634,699.0017 L 2288.262,699.17683 z" />
                        <path
                             id="path3124"
                             d="M 2249.6997,703.84381 C 2252.4672,703.7629 2255.5452,705.48138 2256.4771,708.12502 2255.9982,710.5508 2252.5939,710.10691 2250.735,710.41386 2247.0239,710.48239 2243.0643,710.58752 2239.4962,710.51756 2237.4852,709.05502 2238.2164,706.04527 2240.5096,705.37397 2243.3652,704.09156 2246.6023,703.79393 2249.6997,703.84377 z"
                             style="fill:#313131"
                             inkscape:connector-curvature="0" />
                        <path
                             inkscape:connector-curvature="0"
                             style="fill:#313131"
                             d="M 1449,700.6875 C 1449.4281,702.7063 1450.1204,704.71598 1451.2812,706.4375 1456.4281,713.83384 1466.0309,715.63341 1474.2188,717.59375 1507.6302,722.78044 1541.3618,725.70123 1574.75,731.03125 1593.8958,734.78788 1613.9477,734.36058 1632.3438,741.4375 1635.4157,742.25471 1637.9982,744.66519 1641.125,745.03125 1642.7983,744.9493 1643.6703,743.69076 1644.4688,742.40625 1643.7383,740.60076 1643.3438,738.72075 1643.3438,736.78125 1643.3438,732.36376 1645.3436,728.20594 1648.8438,724.65625 1646.6961,725.68117 1644.881,727.36963 1644.0312,729.6875 1642.8368,731.51697 1642.239,735.52215 1639.375,735.09375 1632.1543,729.94038 1622.8834,728.69991 1614.3125,727.03125 1566.4525,719.58462 1518.7066,710.74679 1470.375,706.875 1463.1624,707.01927 1456.3194,704.19269 1449.875,701.09375 L 1449,700.6875 z M 1666.9688,714.96875 C 1666.0544,715.15649 1665.1533,715.42945 1664.2812,715.75 1665.1622,715.46421 1666.0494,715.21523 1666.9688,714.96875 z"
                             transform="translate(774.42419,17.180365)"
                             id="path3126" />
                    </g>
                    <path
                         sodipodi:nodetypes="sscccss"
                         style="opacity:0.76632301;fill:#4c4c4c;fill-opacity:1;stroke:none"
                         d="M 2562.1801,853.93336 C 2614.7645,853.93336 2657.3959,862.59216 2657.3959,873.28239 2657.3959,874.34487 2656.9688,877.39386 2656.1587,878.40985 2650.3535,879.22964 2644.5314,879.91638 2638.8202,880.78122 2584.0832,887.88877 2528.338,887.27688 2473.5286,880.36214 2469.2963,878.17126 2466.9644,875.77852 2466.9644,873.28239 2466.9644,862.59216 2509.5958,853.93336 2562.1801,853.93336 z"
                         id="path3130"
                         inkscape:connector-curvature="0" />
                </g>
                <path
                     sodipodi:type="arc"
                     style="fill:#e5e1d1;fill-opacity:1;stroke:#000000;stroke-width:3.90361786;stroke-miterlimit:4;stroke-opacity:1;stroke-dasharray:none"
                     id="path5491"
                     sodipodi:cx="440.15152"
                     sodipodi:cy="272.81674"
                     sodipodi:rx="61.363636"
                     sodipodi:ry="61.363636"
                     d="M 501.51516,272.81674 C 501.51516,306.70694 474.04172,334.18038 440.15152,334.18038 410.99107,334.18038 385.8581,313.65854 380.02718,285.08702 L 440.15152,272.81674 z"
                     sodipodi:start="0"
                     sodipodi:end="2.9402755"
                     transform="matrix(-0.93597387,0.37584623,0.35996414,0.97727024,1934.7757,420.94185)" />
            </g>
            <path
                 transform="matrix(0.28726517,0.48872258,-0.48816375,0.28733133,2125.3365,-54.948891)"
                 d="M 807.45001,1853 A 61.25,57.5 0 1 1 684.95001,1853 61.25,57.5 0 1 1 807.45001,1853 z"
                 sodipodi:ry="57.5"
                 sodipodi:rx="61.25"
                 sodipodi:cy="1853"
                 sodipodi:cx="746.20001"
                 id="path5029"
                 style="fill:#e5e1d1;fill-opacity:1;fill-rule:evenodd;stroke:#000000;stroke-width:7.05875921;stroke-linecap:round;stroke-linejoin:round;stroke-miterlimit:4;stroke-opacity:1;stroke-dasharray:none;stroke-dashoffset:5"
                 sodipodi:type="arc" />
            <g
                 id="g5031"
                 transform="matrix(-1.0228452,0,0,1.0228452,1702.9838,205.14906)">
                <rect
                     ry="55.08651"
                     rx="46.397034"
                     y="684.22247"
                     x="302.45389"
                     height="248.68147"
                     width="125.4804"
                     id="rect5033"
                     style="fill:#5d5d5d;fill-opacity:1;fill-rule:evenodd;stroke:none" />
                <g
                     style="fill:#6f6f6f;fill-opacity:1"
                     transform="matrix(1.024651,0,0,0.79265665,-953.28296,493.21647)"
                     id="g5035">
                    <path
                         style="fill:#6f6f6f;fill-opacity:1;stroke:none"
                         d="M 1239.855,429.40684 1239.855,437.35722 1250.4041,441.76831 1250.4041,441.79039 1250.431,441.77935 1250.4568,441.79039 1250.4568,441.76831 1261.0059,437.35722 1261.0059,429.40684 1250.431,433.83055 1239.855,429.40684 z"
                         id="path5037"
                         inkscape:connector-curvature="0" />
                    <path
                         id="path5039"
                         d="M 1263.5367,429.40684 1263.5367,437.35722 1274.0858,441.76831 1274.0858,441.79039 1274.1127,441.77935 1274.1385,441.79039 1274.1385,441.76831 1284.6876,437.35722 1284.6876,429.40684 1274.1127,433.83055 1263.5367,429.40684 z"
                         style="fill:#6f6f6f;fill-opacity:1;stroke:none"
                         inkscape:connector-curvature="0" />
                    <path
                         id="path5041"
                         d="M 1287.2184,429.40684 1287.2184,437.35722 1297.7675,441.76831 1297.7675,441.79039 1297.7944,441.77935 1297.8202,441.79039 1297.8202,441.76831 1308.3693,437.35722 1308.3693,429.40684 1297.7944,433.83055 1287.2184,429.40684 z"
                         style="fill:#6f6f6f;fill-opacity:1;stroke:none"
                         inkscape:connector-curvature="0" />
                    <path
                         inkscape:connector-curvature="0"
                         style="fill:#6f6f6f;fill-opacity:1;stroke:none"
                         d="M 1310.9001,429.40684 1310.9001,437.35722 1321.4492,441.76831 1321.4492,441.79039 1321.4761,441.77935 1321.5019,441.79039 1321.5019,441.76831 1332.051,437.35722 1332.051,429.40684 1321.4761,433.83055 1310.9001,429.40684 z"
                         id="path5043" />
                    <path
                         inkscape:connector-curvature="0"
                         id="path5045"
                         d="M 1239.855,442.01898 1239.855,449.96936 1250.4041,454.38046 1250.4041,454.40253 1250.431,454.39149 1250.4568,454.40253 1250.4568,454.38046 1261.0059,449.96936 1261.0059,442.01898 1250.431,446.44269 1239.855,442.01898 z"
                         style="fill:#6f6f6f;fill-opacity:1;stroke:none" />
                    <path
                         inkscape:connector-curvature="0"
                         style="fill:#6f6f6f;fill-opacity:1;stroke:none"
                         d="M 1263.5367,442.01898 1263.5367,449.96936 1274.0858,454.38046 1274.0858,454.40253 1274.1127,454.39149 1274.1385,454.40253 1274.1385,454.38046 1284.6876,449.96936 1284.6876,442.01898 1274.1127,446.44269 1263.5367,442.01898 z"
                         id="path5047" />
                    <path
                         inkscape:connector-curvature="0"
                         style="fill:#6f6f6f;fill-opacity:1;stroke:none"
                         d="M 1287.2184,442.01898 1287.2184,449.96936 1297.7675,454.38046 1297.7675,454.40253 1297.7944,454.39149 1297.8202,454.40253 1297.8202,454.38046 1308.3693,449.96936 1308.3693,442.01898 1297.7944,446.44269 1287.2184,442.01898 z"
                         id="path5049" />
                    <path
                         id="path5051"
                         d="M 1310.9001,442.01898 1310.9001,449.96936 1321.4492,454.38046 1321.4492,454.40253 1321.4761,454.39149 1321.5019,454.40253 1321.5019,454.38046 1332.051,449.96936 1332.051,442.01898 1321.4761,446.44269 1310.9001,442.01898 z"
                         style="fill:#6f6f6f;fill-opacity:1;stroke:none"
                         inkscape:connector-curvature="0" />
                    <path
                         inkscape:connector-curvature="0"
                         id="path5053"
                         d="M 1239.855,454.63112 1239.855,462.5815 1250.4041,466.9926 1250.4041,467.01467 1250.431,467.00363 1250.4568,467.01467 1250.4568,466.9926 1261.0059,462.5815 1261.0059,454.63112 1250.431,459.05483 1239.855,454.63112 z"
                         style="fill:#6f6f6f;fill-opacity:1;stroke:none" />
                    <path
                         inkscape:connector-curvature="0"
                         style="fill:#6f6f6f;fill-opacity:1;stroke:none"
                         d="M 1263.5367,454.63112 1263.5367,462.5815 1274.0858,466.9926 1274.0858,467.01467 1274.1127,467.00363 1274.1385,467.01467 1274.1385,466.9926 1284.6876,462.5815 1284.6876,454.63112 1274.1127,459.05483 1263.5367,454.63112 z"
                         id="path5055" />
                    <path
                         inkscape:connector-curvature="0"
                         style="fill:#6f6f6f;fill-opacity:1;stroke:none"
                         d="M 1287.2184,454.63112 1287.2184,462.5815 1297.7675,466.9926 1297.7675,467.01467 1297.7944,467.00363 1297.8202,467.01467 1297.8202,466.9926 1308.3693,462.5815 1308.3693,454.63112 1297.7944,459.05483 1287.2184,454.63112 z"
                         id="path5057" />
                    <path
                         id="path5059"
                         d="M 1310.9001,454.63112 1310.9001,462.5815 1321.4492,466.9926 1321.4492,467.01467 1321.4761,467.00363 1321.5019,467.01467 1321.5019,466.9926 1332.051,462.5815 1332.051,454.63112 1321.4761,459.05483 1310.9001,454.63112 z"
                         style="fill:#6f6f6f;fill-opacity:1;stroke:none"
                         inkscape:connector-curvature="0" />
                    <path
                         style="fill:#6f6f6f;fill-opacity:1;stroke:none"
                         d="M 1239.855,466.23429 1239.855,474.18467 1250.4041,478.59577 1250.4041,478.61784 1250.431,478.6068 1250.4568,478.61784 1250.4568,478.59577 1261.0059,474.18467 1261.0059,466.23429 1250.431,470.658 1239.855,466.23429 z"
                         id="path5061"
                         inkscape:connector-curvature="0" />
                    <path
                         id="path5063"
                         d="M 1263.5367,466.23429 1263.5367,474.18467 1274.0858,478.59577 1274.0858,478.61784 1274.1127,478.6068 1274.1385,478.61784 1274.1385,478.59577 1284.6876,474.18467 1284.6876,466.23429 1274.1127,470.658 1263.5367,466.23429 z"
                         style="fill:#6f6f6f;fill-opacity:1;stroke:none"
                         inkscape:connector-curvature="0" />
                    <path
                         id="path5065"
                         d="M 1287.2184,466.23429 1287.2184,474.18467 1297.7675,478.59577 1297.7675,478.61784 1297.7944,478.6068 1297.8202,478.61784 1297.8202,478.59577 1308.3693,474.18467 1308.3693,466.23429 1297.7944,470.658 1287.2184,466.23429 z"
                         style="fill:#6f6f6f;fill-opacity:1;stroke:none"
                         inkscape:connector-curvature="0" />
                    <path
                         inkscape:connector-curvature="0"
                         style="fill:#6f6f6f;fill-opacity:1;stroke:none"
                         d="M 1310.9001,466.23429 1310.9001,474.18467 1321.4492,478.59577 1321.4492,478.61784 1321.4761,478.6068 1321.5019,478.61784 1321.5019,478.59577 1332.051,474.18467 1332.051,466.23429 1321.4761,470.658 1310.9001,466.23429 z"
                         id="path5067" />
                    <path
                         inkscape:connector-curvature="0"
                         id="path5069"
                         d="M 1239.855,477.83746 1239.855,485.78785 1250.4041,490.19894 1250.4041,490.22101 1250.431,490.20998 1250.4568,490.22101 1250.4568,490.19894 1261.0059,485.78785 1261.0059,477.83746 1250.431,482.26117 1239.855,477.83746 z"
                         style="fill:#6f6f6f;fill-opacity:1;stroke:none" />
                    <path
                         inkscape:connector-curvature="0"
                         style="fill:#6f6f6f;fill-opacity:1;stroke:none"
                         d="M 1263.5367,477.83746 1263.5367,485.78785 1274.0858,490.19894 1274.0858,490.22101 1274.1127,490.20998 1274.1385,490.22101 1274.1385,490.19894 1284.6876,485.78785 1284.6876,477.83746 1274.1127,482.26117 1263.5367,477.83746 z"
                         id="path5071" />
                    <path
                         inkscape:connector-curvature="0"
                         style="fill:#6f6f6f;fill-opacity:1;stroke:none"
                         d="M 1287.2184,477.83746 1287.2184,485.78785 1297.7675,490.19894 1297.7675,490.22101 1297.7944,490.20998 1297.8202,490.22101 1297.8202,490.19894 1308.3693,485.78785 1308.3693,477.83746 1297.7944,482.26117 1287.2184,477.83746 z"
                         id="path5073" />
                    <path
                         id="path5075"
                         d="M 1310.9001,477.83746 1310.9001,485.78785 1321.4492,490.19894 1321.4492,490.22101 1321.4761,490.20998 1321.5019,490.22101 1321.5019,490.19894 1332.051,485.78785 1332.051,477.83746 1321.4761,482.26117 1310.9001,477.83746 z"
                         style="fill:#6f6f6f;fill-opacity:1;stroke:none"
                         inkscape:connector-curvature="0" />
                    <path
                         style="fill:#6f6f6f;fill-opacity:1;stroke:none"
                         d="M 1239.855,490.44961 1239.855,498.39999 1250.4041,502.81108 1250.4041,502.83316 1250.431,502.82212 1250.4568,502.83316 1250.4568,502.81108 1261.0059,498.39999 1261.0059,490.44961 1250.431,494.87332 1239.855,490.44961 z"
                         id="path5077"
                         inkscape:connector-curvature="0" />
                    <path
                         id="path5079"
                         d="M 1263.5367,490.44961 1263.5367,498.39999 1274.0858,502.81108 1274.0858,502.83316 1274.1127,502.82212 1274.1385,502.83316 1274.1385,502.81108 1284.6876,498.39999 1284.6876,490.44961 1274.1127,494.87332 1263.5367,490.44961 z"
                         style="fill:#6f6f6f;fill-opacity:1;stroke:none"
                         inkscape:connector-curvature="0" />
                    <path
                         id="path5081"
                         d="M 1287.2184,490.44961 1287.2184,498.39999 1297.7675,502.81108 1297.7675,502.83316 1297.7944,502.82212 1297.8202,502.83316 1297.8202,502.81108 1308.3693,498.39999 1308.3693,490.44961 1297.7944,494.87332 1287.2184,490.44961 z"
                         style="fill:#6f6f6f;fill-opacity:1;stroke:none"
                         inkscape:connector-curvature="0" />
                    <path
                         inkscape:connector-curvature="0"
                         style="fill:#6f6f6f;fill-opacity:1;stroke:none"
                         d="M 1310.9001,490.44961 1310.9001,498.39999 1321.4492,502.81108 1321.4492,502.83316 1321.4761,502.82212 1321.5019,502.83316 1321.5019,502.81108 1332.051,498.39999 1332.051,490.44961 1321.4761,494.87332 1310.9001,490.44961 z"
                         id="path5083" />
                    <path
                         style="fill:#6f6f6f;fill-opacity:1;stroke:none"
                         d="M 1239.855,503.06175 1239.855,511.01213 1250.4041,515.42323 1250.4041,515.4453 1250.431,515.43426 1250.4568,515.4453 1250.4568,515.42323 1261.0059,511.01213 1261.0059,503.06175 1250.431,507.48546 1239.855,503.06175 z"
                         id="path5085"
                         inkscape:connector-curvature="0" />
                    <path
                         id="path5087"
                         d="M 1263.5367,503.06175 1263.5367,511.01213 1274.0858,515.42323 1274.0858,515.4453 1274.1127,515.43426 1274.1385,515.4453 1274.1385,515.42323 1284.6876,511.01213 1284.6876,503.06175 1274.1127,507.48546 1263.5367,503.06175 z"
                         style="fill:#6f6f6f;fill-opacity:1;stroke:none"
                         inkscape:connector-curvature="0" />
                    <path
                         id="path5089"
                         d="M 1287.2184,503.06175 1287.2184,511.01213 1297.7675,515.42323 1297.7675,515.4453 1297.7944,515.43426 1297.8202,515.4453 1297.8202,515.42323 1308.3693,511.01213 1308.3693,503.06175 1297.7944,507.48546 1287.2184,503.06175 z"
                         style="fill:#6f6f6f;fill-opacity:1;stroke:none"
                         inkscape:connector-curvature="0" />
                    <path
                         inkscape:connector-curvature="0"
                         style="fill:#6f6f6f;fill-opacity:1;stroke:none"
                         d="M 1310.9001,503.06175 1310.9001,511.01213 1321.4492,515.42323 1321.4492,515.4453 1321.4761,515.43426 1321.5019,515.4453 1321.5019,515.42323 1332.051,511.01213 1332.051,503.06175 1321.4761,507.48546 1310.9001,503.06175 z"
                         id="path5091" />
                    <path
                         inkscape:connector-curvature="0"
                         style="fill:#6f6f6f;fill-opacity:1;stroke:none"
                         d="M 1263.5367,515.67389 1263.5367,523.62427 1274.0858,528.03537 1274.0858,528.05744 1274.1127,528.0464 1274.1385,528.05744 1274.1385,528.03537 1284.6876,523.62427 1284.6876,515.67389 1274.1127,520.0976 1263.5367,515.67389 z"
                         id="path5093" />
                    <path
                         inkscape:connector-curvature="0"
                         style="fill:#6f6f6f;fill-opacity:1;stroke:none"
                         d="M 1287.2184,515.67389 1287.2184,523.62427 1297.7675,528.03537 1297.7675,528.05744 1297.7944,528.0464 1297.8202,528.05744 1297.8202,528.03537 1308.3693,523.62427 1308.3693,515.67389 1297.7944,520.0976 1287.2184,515.67389 z"
                         id="path5095" />
                </g>
            </g>
            <g
                 transform="translate(2,6)"
                 id="g4307">
                <g
                     id="g4297"
                     transform="translate(6,0)">
                    <g
                         transform="matrix(-0.41001265,0.93707093,-0.93707093,-0.41001265,2377.4741,-412.46111)"
                         inkscape:transform-center-y="4.0531808"
                         inkscape:transform-center-x="-93.948651"
                         id="g5378">
                        <path
                             style="fill:none;stroke:#8a8f86;stroke-width:15.64264011;stroke-linecap:round;stroke-linejoin:round;stroke-miterlimit:4;stroke-opacity:1;stroke-dasharray:none"
                             d="M 1577.1452,587.28886 C 1615.3914,549.03174 1711.007,637.50134 1639.2954,706.8424"
                             id="path5097"
                             inkscape:connector-curvature="0"
                             sodipodi:nodetypes="cc" />
                        <path
                             id="path5135"
                             d="M 1587.2646,763.7717 C 1612.8,782.12634 1648.283,776.74662 1666.4332,751.46438 1684.7272,726.20914 1678.89,690.77616 1653.3826,672.27806 1627.8752,653.77958 1592.2202,659.27504 1573.8988,684.67376 1560.271,703.52112 1559.8386,728.94338 1572.7484,748.5888 L 1620.2658,717.9391 z"
                             style="fill:#e5e1d1;fill-opacity:1;stroke:#000000;stroke-width:3.91066003;stroke-linecap:round;stroke-linejoin:round;stroke-miterlimit:4;stroke-opacity:1;stroke-dasharray:none;stroke-dashoffset:0"
                             inkscape:connector-curvature="0" />
                    </g>
                    <g
                         transform="matrix(0.82781752,-0.56099746,0.56099746,0.82781752,-1595.8162,1602.2718)"
                         id="g4291">
                        <rect
                             id="rect4260"
                             ry="5.6335964"
                             style="fill:#757575"
                             transform="matrix(-0.0100968,-0.99994903,0.99994903,-0.0100968,0,0)"
                             height="19.483746"
                             width="164.27126"
                             y="2610.554"
                             x="-807.76202" />
                        <rect
                             id="rect4262"
                             ry="6.4875627"
                             style="fill:#4d4d4d"
                             transform="matrix(-0.0100968,-0.99994903,0.99994903,-0.0100968,0,0)"
                             height="22.43821"
                             width="105.19618"
                             y="2609.0925"
                             x="-889.16895" />
                        <path
                             inkscape:connector-curvature="0"
                             id="path4264"
                             d="M 2665.5264,512.10115 C 2668.2143,512.07401 2670.5274,513.70505 2671.5034,516.03311 L 2671.4345,515.96556 C 2671.6744,516.49084 2671.8691,517.15658 2671.9649,517.80281 L 2671.9652,517.83693 C 2671.9668,517.84796 2671.9639,517.86003 2671.9656,517.87105 2671.985,518.06461 2672.0035,518.25228 2672.0055,518.45072 L 2673.1138,628.21096 C 2673.1496,631.75845 2670.3117,634.65426 2666.7642,634.69008 L 2589.4168,635.47108 C 2585.8693,635.5069 2580.9735,632.66899 2580.9377,629.1215 L 2579.8294,519.36126 C 2579.7936,515.81378 2584.6315,512.91797 2588.179,512.88215 z M 2661.8773,525.82104 2654.1323,525.89925 C 2652.7814,525.91289 2651.7208,526.9951 2651.7344,528.34614 L 2652.4258,596.82261 C 2652.4395,598.17366 2653.5221,599.26834 2654.873,599.2547 L 2662.618,599.1765 C 2663.9692,599.16286 2665.0634,598.04619 2665.0498,596.69514 L 2664.3583,528.21867 C 2664.3447,526.86763 2663.2285,525.8074 2661.8773,525.82104 z M 2640.826,526.0336 2633.1834,526.11077 C 2631.8511,526.12423 2630.8057,527.19085 2630.8192,528.5232 L 2631.5113,597.06791 C 2631.5247,598.40027 2632.5918,599.47968 2633.9241,599.46623 L 2641.5667,599.38906 C 2642.8991,599.37561 2643.9782,598.27453 2643.9647,596.94217 L 2643.2726,528.39746 C 2643.2591,527.06511 2642.1584,526.02015 2640.826,526.0336 z M 2618.6163,526.42847 2610.9397,526.50598 C 2609.598,526.51953 2608.5281,527.61114 2608.5416,528.95288 L 2609.2334,597.46348 C 2609.247,598.80522 2610.3383,599.84088 2611.68,599.82733 L 2619.3567,599.74982 C 2620.6985,599.73627 2621.7686,598.67878 2621.7551,597.33704 L 2621.0633,528.82644 C 2621.0497,527.4847 2619.9582,526.41492 2618.6163,526.42847 z M 2597.7698,526.63897 2590.1614,526.71579 C 2588.8382,526.72915 2587.7837,527.80515 2587.7971,529.12823 L 2588.4892,597.67294 C 2588.5026,598.996 2589.5785,600.0505 2590.9018,600.03714 L 2598.5101,599.96031 C 2599.8332,599.94695 2600.8877,598.87095 2600.8743,597.54788 L 2600.1822,529.00317 C 2600.1689,527.6801 2599.0929,526.62561 2597.7698,526.63897 z"
                             style="fill:#4d4d4d;stroke-width:0"
                             sodipodi:nodetypes="sccccccsssssssssccssccsssccssccsssccssccsssccssccs" />
                        <path
                             id="path4274"
                             d="M 2638.4649,821.00508 C 2640.0545,823.12534 2639.6579,823.73913 2639.9826,824.89996 L 2639.9431,820.98512 z"
                             sodipodi:nodetypes="cccc"
                             style="fill:#7da251;stroke-width:0"
                             inkscape:connector-curvature="0" />
                    </g>
                </g>
                <path
                     sodipodi:type="arc"
                     style="fill:#e5e1d1;fill-opacity:1;stroke:#000000;stroke-width:4.16934204;stroke-miterlimit:4;stroke-opacity:1;stroke-dasharray:none"
                     id="path5491-3"
                     sodipodi:cx="440.15152"
                     sodipodi:cy="272.81674"
                     sodipodi:rx="61.363636"
                     sodipodi:ry="61.363636"
                     d="M 501.51516,272.81674 C 501.51516,306.70694 474.04172,334.18038 440.15152,334.18038 410.99107,334.18038 385.8581,313.65854 380.02718,285.08702"
                     sodipodi:start="0"
                     sodipodi:end="2.9402755"
                     sodipodi:open="true"
                     transform="matrix(0.36261389,0.87219759,-0.88874429,0.40058323,1129.5592,317.8068)" />
            </g>
            <path
                 sodipodi:type="arc"
                 style="fill:#e5e1d1;fill-opacity:1;fill-rule:evenodd;stroke:#000000;stroke-width:7.05875921;stroke-linecap:round;stroke-linejoin:round;stroke-miterlimit:4;stroke-opacity:1;stroke-dasharray:none;stroke-dashoffset:5"
                 id="path5099"
                 sodipodi:cx="746.20001"
                 sodipodi:cy="1853"
                 sodipodi:rx="61.25"
                 sodipodi:ry="57.5"
                 d="M 807.45001,1853 A 61.25,57.5 0 1 1 684.95001,1853 61.25,57.5 0 1 1 807.45001,1853 z"
                 transform="matrix(-0.28726517,0.48872258,0.48816375,0.28733133,530.54114,-54.948891)" />
            <path
                 sodipodi:type="star"
                 style="fill:#919dc4;fill-opacity:1;fill-rule:evenodd;stroke:#000000;stroke-width:6.14481211;stroke-linecap:round;stroke-linejoin:round;stroke-miterlimit:4;stroke-opacity:1;stroke-dasharray:none"
                 id="path5101"
                 sodipodi:sides="3"
                 sodipodi:cx="-3070"
                 sodipodi:cy="-1073"
                 sodipodi:r1="342.29999"
                 sodipodi:r2="171.10001"
                 sodipodi:arg1="1.542"
                 sodipodi:arg2="2.589"
                 inkscape:flatsided="true"
                 inkscape:rounded="0.16"
                 inkscape:randomized="0"
                 d="M -3060.1444,-730.84192 C -3154.966,-728.11066 -3416.2909,-1152.0602 -3371.2454,-1235.5438 -3326.1999,-1319.0274 -2828.3864,-1333.3666 -2778.6102,-1252.6143 -2728.8341,-1171.862 -2965.3228,-733.57319 -3060.1444,-730.84192 z"
                 inkscape:transform-center-x="6.3172791"
                 inkscape:transform-center-y="-73.558891"
                 transform="matrix(-0.70253646,0,0,-0.60316193,-828.78986,303.37626)" />
            <path
                 style="font-size:medium;font-style:normal;font-variant:normal;font-weight:normal;font-stretch:normal;text-indent:0;text-align:start;text-decoration:none;line-height:normal;letter-spacing:normal;word-spacing:normal;text-transform:none;direction:ltr;block-progression:tb;writing-mode:lr-tb;text-anchor:start;baseline-shift:baseline;color:#000000;fill:#7a8592;fill-opacity:1;stroke:none;stroke-width:7.72181749;marker:none;visibility:visible;display:inline;overflow:visible;enable-background:accumulate;font-family:Sans;-inkscape-font-specification:Sans"
                 d="M 1471.4199,884.9291 C 1473.1126,887.33258 1474.8105,889.70846 1476.4702,892.12098 1476.152,892.64341 1475.8374,893.1912 1475.4793,893.68721 1473.0612,897.03691 1469.7921,899.94694 1465.7303,902.66907 1457.6068,908.11331 1446.2865,912.74878 1432.4559,916.66927 1404.7948,924.51023 1366.9724,929.29501 1325.1531,929.29501 1283.3336,929.29501 1245.4794,924.51023 1217.8182,916.66927 1203.9876,912.74878 1192.7312,908.11331 1184.6077,902.66907 1181.8546,900.82399 1179.4366,898.88501 1177.4159,896.78771 1178.8922,894.35177 1180.3831,891.92713 1181.8908,889.49994 1183.4626,891.2174 1185.5838,893.03945 1188.2197,894.80595 1195.3362,899.5754 1206.0922,904.139 1219.5123,907.94312 1246.3523,915.55136 1283.8064,920.31315 1325.1531,920.31315 1366.4997,920.31315 1403.9537,915.55136 1430.7937,907.94312 1444.2138,904.139 1454.9698,899.5754 1462.0865,894.80595 1465.6447,892.42123 1468.2598,889.9497 1469.8536,887.74192 1470.5892,886.72308 1471.0743,885.79472 1471.4199,884.9291 z"
                 id="path5117"
                 inkscape:connector-curvature="0" />
            <path
                 sodipodi:nodetypes="ccccccccccc"
                 inkscape:connector-curvature="0"
                 id="rect3003"
                 d="M 1233.3481,806.39188 C 1243.7303,809.22789 1254.4739,811.46905 1265.5038,813.07234 L 1265.5038,853.21902 1391.026,853.21902 1391.026,815.08607 C 1405.0752,813.95245 1418.7124,811.75708 1431.844,808.66132 1444.1831,834.38183 1483.8598,899.48795 1511.8177,938.69052 L 1517.9548,1018.0569 C 1446.583,1058.36 1242.5121,1061.0805 1141.1002,1018.0569 L 1147.2373,938.69052 C 1169.3723,911.72254 1151.7406,932.44765 1233.3481,806.39188 z"
                 style="fill:#9eacc6;fill-opacity:1;stroke:#6892c0;stroke-width:3.99999976;stroke-linecap:round;stroke-linejoin:round;stroke-miterlimit:4;stroke-opacity:1;stroke-dasharray:none;stroke-dashoffset:0" />
            <path
                 id="rect2989"
                 d="M 1451.9063,885.95704 1211.9736,885.95704 1211.9736,923.89294 C 1211.9736,1075.639 1451.9063,1062.9944 1451.9063,923.89294 z"
                 sodipodi:nodetypes="ccccc"
                 style="fill:#f48f8f;fill-opacity:1;stroke-width:0"
                 inkscape:connector-curvature="0" />
            <g
                 transform="matrix(-1.0228452,0,0,1.0228452,3505.2151,217.13716)"
                 id="g5359">
                <path
                     inkscape:connector-curvature="0"
                     id="rect3033"
                     d="M 2225.1808,663.8421 2234.0503,663.8421 2234.0503,680.66984 2225.1808,680.66984 z"
                     style="fill:#ffd5d5;stroke-width:0" />
                <path
                     inkscape:connector-curvature="0"
                     id="rect3035"
                     d="M 2225.8115,685.15702 2234.6592,685.74695 2233.4155,702.53328 2224.5679,701.94335 z"
                     style="fill:#ffd5d5;stroke-width:0" />
                <path
                     inkscape:connector-curvature="0"
                     id="rect3037"
                     d="M 2224.8571,706.20308 2233.4244,708.38081 2228.8333,724.63515 2220.2661,722.45743 z"
                     style="fill:#ffd5d5;stroke-width:0" />
                <path
                     inkscape:connector-curvature="0"
                     id="rect3039"
                     d="M 2219.9345,726.48054 2227.9436,730.09561 2220.3223,745.29102 2212.3132,741.67595 z"
                     style="fill:#ffd5d5;stroke-width:0" />
                <path
                     inkscape:connector-curvature="0"
                     id="rect3041"
                     d="M 2211.0855,744.96632 2217.8186,750.44342 2206.2717,763.21775 2199.5387,757.74065 z"
                     style="fill:#ffd5d5;stroke-width:0" />
                <path
                     inkscape:connector-curvature="0"
                     id="rect3043"
                     d="M 2177.214,774.19804 2181.0803,781.77064 2165.1157,789.10594 2161.2495,781.53335 z"
                     style="fill:#ffd5d5;stroke-width:0" />
                <path
                     inkscape:connector-curvature="0"
                     id="rect3045"
                     d="M 2015.838,663.8421 2024.7075,663.8421 2024.7075,680.66984 2015.838,680.66984 z"
                     style="fill:#ffd5d5;stroke-width:0" />
                <path
                     inkscape:connector-curvature="0"
                     id="rect3047"
                     d="M 2015.3267,685.69534 2024.1804,685.1928 2025.2398,701.99041 2016.3862,702.49295 z"
                     style="fill:#ffd5d5;stroke-width:0" />
                <path
                     inkscape:connector-curvature="0"
                     id="rect3049"
                     d="M 2016.4629,708.38767 2025.0302,706.20995 2029.6212,722.4643 2021.054,724.64203 z"
                     style="fill:#ffd5d5;stroke-width:0" />
                <path
                     inkscape:connector-curvature="0"
                     id="rect3051"
                     d="M 2023.1549,730.18613 2030.9113,726.10531 2039.5146,740.82137 2031.7581,744.9022 z"
                     style="fill:#ffd5d5;stroke-width:0" />
                <path
                     inkscape:connector-curvature="0"
                     id="rect3053"
                     d="M 2034.375,750.25076 2040.9845,744.63986 2052.8133,757.17978 2046.2038,762.79068 z"
                     style="fill:#ffd5d5;stroke-width:0" />
                <path
                     inkscape:connector-curvature="0"
                     id="rect3055"
                     d="M 2050.4597,766.26335 2055.9587,759.66162 2069.8765,770.09477 2064.3774,776.69651 z"
                     style="fill:#ffd5d5;stroke-width:0" />
                <path
                     inkscape:connector-curvature="0"
                     id="rect3057"
                     d="M 2196.5622,761.42472 2201.8571,768.17495 2187.6263,778.22081 2182.3314,771.47058 z"
                     style="fill:#ffd5d5;stroke-width:0" />
                <path
                     inkscape:connector-curvature="0"
                     id="rect3059"
                     d="M 2070.1846,779.96544 2073.8151,772.28848 2089.9996,779.17639 2086.3692,786.85335 z"
                     style="fill:#ffd5d5;stroke-width:0" />
                <path
                     inkscape:connector-curvature="0"
                     id="rect3061"
                     d="M 2093.7579,788.93898 2095.1341,780.62677 2112.6579,783.23775 2111.2817,791.54995 z"
                     style="fill:#ffd5d5;stroke-width:0" />
                <path
                     inkscape:connector-curvature="0"
                     id="rect3063"
                     d="M 2116.8756,793.17627 2117.2112,784.76822 2134.937,785.40505 2134.6014,793.8131 z"
                     style="fill:#ffd5d5;stroke-width:0" />
                <path
                     inkscape:connector-curvature="0"
                     id="rect3065"
                     d="M 2141.5333,793.47852 2139.8743,785.21292 2157.2999,782.06548 2158.9588,790.33109 z"
                     style="fill:#ffd5d5;stroke-width:0" />
            </g>
            <g
                 style="fill:#ef5f5f;fill-opacity:1"
                 id="g3086"
                 transform="matrix(-2.5686374,0,0,2.7016064,1804.3283,258.13546)">
                <path
                     transform="matrix(0.48485,0,0,0.34091,163.8,184.67)"
                     style="fill:#ef5f5f;stroke-width:0"
                     inkscape:transform-center-y="2.8410613"
                     d="M 41.416253,244.74522 26.981761,219.74394 12.547266,194.74267 41.416253,194.74267 70.285237,194.74267 55.850743,219.74394 z"
                     id="path3078"
                     inkscape:connector-curvature="0" />
                <path
                     transform="matrix(1.1731,0,0,1.12,-31.145,-32.516)"
                     style="fill:#ef5f5f;stroke-width:0"
                     d="M 183.59523,249.92226 C 183.59523,253.40908 180.65553,256.23571 177.02924,256.23571 173.40294,256.23571 170.46324,253.40908 170.46324,249.92226 170.46324,246.43543 173.40294,243.6088 177.02924,243.6088 180.65553,243.6088 183.59523,246.43543 183.59523,249.92226 z"
                     id="path3080"
                     inkscape:connector-curvature="0" />
                <path
                     transform="matrix(1.1923,0,0,1.11,-20.028,-29.827)"
                     style="fill:#ef5f5f;stroke-width:0"
                     d="M 183.59523,249.92226 C 183.59523,253.40908 180.65553,256.23571 177.02924,256.23571 173.40294,256.23571 170.46324,253.40908 170.46324,249.92226 170.46324,246.43543 173.40294,243.6088 177.02924,243.6088 180.65553,243.6088 183.59523,246.43543 183.59523,249.92226 z"
                     id="path3082"
                     inkscape:connector-curvature="0" />
                <path
                     style="fill:#ef5f5f;stroke-width:0"
                     d="M 192.6866,251.62689 C 192.6866,254.10254 189.35118,256.10944 185.23672,256.10944 181.12227,256.10944 177.78685,254.10254 177.78685,251.62689 177.78685,249.15125 181.12227,247.14434 185.23672,247.14434 189.35118,247.14434 192.6866,249.15125 192.6866,251.62689 z"
                     id="path3084"
                     inkscape:connector-curvature="0" />
            </g>
            <rect
                 transform="scale(-1,1)"
                 id="rect5103"
                 style="fill:#919dc4;fill-opacity:1;fill-rule:evenodd;stroke:#000000;stroke-width:3.99999976;stroke-linecap:round;stroke-linejoin:round;stroke-miterlimit:4;stroke-opacity:1;stroke-dasharray:none;stroke-dashoffset:5"
                 rx="221.14441"
                 ry="174.48839"
                 height="363.71234"
                 width="504.21887"
                 y="452.29089"
                 x="-1581.024" />
            <path
                 style="opacity:0.1;fill:#000000;fill-opacity:1;fill-rule:evenodd;stroke:none"
                 d="M 1573.8349,605.44066 C 1572.7934,651.83274 1549.83,696.35751 1514.2211,725.97819 1462.375,771.06374 1390.8137,788.5926 1322.7137,785.30159 1270.0026,787.02027 1215.1418,784.56215 1166.8341,761.73736 1139.8535,749.76572 1114.9196,732.83846 1094.8804,711.30514 1121.4555,763.55468 1176.0066,796.9932 1232.2475,810.47996 1276.5048,820.99638 1322.7058,818.14653 1367.9305,817.53293 1424.3828,816.96263 1481.382,797.72973 1523.7983,760.68938 1552.7619,735.31651 1573.9066,699.64695 1577.1018,661.0259 1579.1086,642.14503 1577.871,622.99993 1573.8349,604.57763 L 1573.8349,605.44066 z"
                 id="path5105"
                 inkscape:connector-curvature="0" />
            <path
                 sodipodi:type="arc"
                 style="opacity:0.1;fill:#000000;fill-opacity:1;stroke:none"
                 id="path5107"
                 sodipodi:cx="1056.1111"
                 sodipodi:cy="80"
                 sodipodi:rx="27.222221"
                 sodipodi:ry="11.111111"
                 d="M 1083.3333,80 A 27.222221,11.111111 0 1 1 1028.8889,80 27.222221,11.111111 0 1 1 1083.3333,80 z"
                 transform="matrix(-1.6617914,0,0,1.6365523,3088.2806,335.87144)" />
            <path
                 style="opacity:0.1;fill:#000000;fill-opacity:1;fill-rule:evenodd;stroke:none"
                 d="M 1538.7077,1022.0048 C 1529.3784,1043.0129 1503.5826,1047.8057 1483.9778,1054.2091 1401.1064,1073.7572 1314.9682,1076.465 1230.1741,1072.5501 1194.8857,1070.1276 1157.0748,1066.5766 1124.7671,1054.0065 1129.8783,1070.5985 1150.4992,1073.6469 1164.8585,1078.1363 1239.3391,1093.7038 1316.6401,1091.5092 1392.3417,1085.9975 1437.4624,1080.8971 1484.5042,1077.4226 1525.3942,1057.4553 1540.1625,1051.8342 1542.6606,1034.7371 1538.9236,1021.2884 L 1538.7077,1022.0048 z"
                 id="path5131"
                 inkscape:connector-curvature="0" />
            <path
                 d="M 1331.0343,371.76865 C 1334.9917,372.0408 1336.8762,426.68702 1363.2807,456.21986 1366.4634,458.1048 1367.9922,460.47166 1367.9922,462.83851 1367.9922,470.50449 1351.3873,476.55787 1330.5106,476.55787 1309.6552,476.55787 1292.7153,470.50449 1292.7153,462.83851 1292.7153,460.74401 1294.3277,458.35623 1297.2172,456.53389 1325.7577,426.41466 1325.4643,372.56458 1331.0343,371.76865 z"
                 inkscape:connector-curvature="0"
                 style="fill:#e5e1d1;fill-opacity:1;stroke:#000000;stroke-width:3.99999976;stroke-miterlimit:4;stroke-opacity:1;stroke-dasharray:none"
                 id="path5109" />
            <path
                 d="M 1300.9447,372.47341 C 1300.9447,386.19258 1313.864,397.27255 1329.4219,397.27255 1345.2938,397.27255 1358.0039,386.19258 1358.0039,372.47341 1358.0039,358.7333 1345.2938,347.36002 1329.4219,347.36002 1313.864,347.36002 1300.9447,358.7333 1300.9447,372.47341 z"
                 inkscape:connector-curvature="0"
                 style="fill:#e5e1d1;fill-opacity:1;fill-rule:evenodd;stroke:#000000;stroke-width:3.99999976;stroke-linecap:round;stroke-linejoin:round;stroke-miterlimit:4;stroke-opacity:1;stroke-dasharray:none;stroke-dashoffset:5"
                 id="path5111" />
            <rect
                 transform="scale(-1,1)"
                 id="rect5113"
                 style="fill:#d5d8ff;fill-opacity:1;fill-rule:evenodd;stroke:none"
                 rx="54.063873"
                 ry="103.31825"
                 height="206.6351"
                 width="400.15189"
                 y="535.88354"
                 x="-1529.912" />
            <path
                 inkscape:connector-curvature="0"
                 id="path5115"
                 d="M 1475.6476,532.96637 C 1492.1275,532.96637 1506.4826,545.47896 1516.5402,564.69934 1526.5977,583.91977 1532.6772,610.13959 1532.6772,639.17076 1532.6772,668.20195 1526.5977,694.483 1516.5402,713.70342 1506.4826,732.92365 1492.1275,745.43621 1475.6476,745.43621 L 1183.6538,745.43621 C 1167.1739,745.43621 1152.8189,732.92365 1142.7612,713.70342 1132.7036,694.483 1126.6244,668.20195 1126.6242,639.17076 1126.6242,610.13959 1132.7036,583.91977 1142.7612,564.69934 1152.8189,545.47896 1167.1739,532.96637 1183.6538,532.96637 L 1475.6476,532.96637 z M 1475.6476,538.83603 1183.6538,538.83603 C 1170.1823,538.83603 1157.4434,549.32181 1147.9569,567.45065 1138.4706,585.57973 1132.4925,610.96408 1132.4923,639.17076 1132.4923,667.37745 1138.4706,692.82306 1147.9569,710.95191 1157.4434,729.08077 1170.1823,739.56655 1183.6538,739.56655 L 1475.6476,739.56655 C 1489.119,739.56655 1501.8581,729.08077 1511.3446,710.95191 1520.831,692.82306 1526.8091,667.37745 1526.8091,639.17076 1526.8091,610.96408 1520.831,585.57973 1511.3446,567.45065 1501.8581,549.32181 1489.119,538.83603 1475.6476,538.83603 z"
                 style="font-size:medium;font-style:normal;font-variant:normal;font-weight:normal;font-stretch:normal;text-indent:0;text-align:start;text-decoration:none;line-height:normal;letter-spacing:normal;word-spacing:normal;text-transform:none;direction:ltr;block-progression:tb;writing-mode:lr-tb;text-anchor:start;baseline-shift:baseline;color:#000000;fill:#282c31;fill-opacity:1;stroke:none;stroke-width:3;marker:none;visibility:visible;display:inline;overflow:visible;enable-background:accumulate;font-family:Sans;-inkscape-font-specification:Sans" />
            <path
                 style="opacity:0.75945022;fill:#ffffff;fill-opacity:1;stroke:none"
                 d="M 1299.545,540.19283 1211.2889,737.60196 1295.9962,737.60196 1384.2523,540.19283 1299.545,540.19283 z M 1398.7481,540.19283 1310.4919,737.60196 1350.1043,737.60196 1438.3605,540.19283 1398.7481,540.19283 z"
                 id="path5121"
                 inkscape:connector-curvature="0" />
            <g
                 id="g5123"
                 transform="matrix(-1.0228452,0,0,1.0228452,1739.275,376.3553)">
                <ellipse
                     transform="matrix(1.8333333,0,0,1.8333333,32.105605,3.4638944)"
                     d="M 162,126 C 162,129.31371 159.31371,132 156,132 152.68629,132 150,129.31371 150,126 150,122.68629 152.68629,120 156,120 159.31371,120 162,122.68629 162,126 z"
                     style="fill:#000000;stroke:none"
                     sodipodi:ry="6"
                     sodipodi:rx="6"
                     sodipodi:cy="126"
                     sodipodi:cx="156"
                     cx="156"
                     cy="126"
                     rx="6"
                     ry="6"
                     class="rightEye"
                     id="ellipse5125" />
                <ellipse
                     transform="matrix(1.8333333,0,0,1.8333333,34.772267,3.46389)"
                     d="M 250,126 C 250,129.31371 247.31371,132 244,132 240.68629,132 238,129.31371 238,126 238,122.68629 240.68629,120 244,120 247.31371,120 250,122.68629 250,126 z"
                     style="fill:#000000;stroke:none"
                     sodipodi:ry="6"
                     sodipodi:rx="6"
                     sodipodi:cy="126"
                     sodipodi:cx="244"
                     cx="244"
                     cy="126"
                     rx="6"
                     ry="6"
                     class="leftEye"
                     id="ellipse5127" />
            </g>
            <path
                 id="path5129"
                 class="mouth"
                 d="M 1294.2293,633.91168 C 1294.2293,657.19163 1310.2675,676.07336 1330.0289,676.07336 1349.7902,676.07336 1365.8284,657.19163 1365.8284,633.91168 1365.8284,633.48208 1365.8284,633.05249 1365.808,632.62289 L 1330.0289,633.91168 z"
                 inkscape:connector-curvature="0"
                 style="fill:#c38080;stroke:#000000;stroke-width:3.99999976;stroke-linecap:round;stroke-linejoin:round;stroke-miterlimit:4;stroke-dasharray:none" />
            <path
                 id="path5133"
                 style="fill:#ffffff;fill-opacity:1;fill-rule:evenodd;stroke:none"
                 inkscape:connector-curvature="0"
                 d="M 1318.7383,358.95878 C 1318.7383,363.34058 1322.8646,366.87945 1327.8336,366.87945 1332.9031,366.87945 1336.9625,363.34058 1336.9625,358.95878 1336.9625,354.5703 1332.9031,350.93777 1327.8336,350.93777 1322.8646,350.93777 1318.7383,354.5703 1318.7383,358.95878 z" />
        </g>
    </g>
</svg>
