<svg width="56" height="56" viewBox="0 0 56 56" fill="none" xmlns="http://www.w3.org/2000/svg">
<path d="M2.33331 27.9997C2.33331 13.8244 13.8247 2.33301 28 2.33301C42.1753 2.33301 53.6666 13.8244 53.6666 27.9997C53.6666 42.175 42.1753 53.6663 28 53.6663C13.8247 53.6663 2.33331 42.175 2.33331 27.9997Z" fill="#F2F2F2"/>
<path fill-rule="evenodd" clip-rule="evenodd" d="M28 14.7295C28.5638 14.7295 29.0208 15.1865 29.0208 15.7503V33.1868C29.46 32.7411 29.9821 32.0851 30.7419 31.1268L32.6445 28.7272C32.9948 28.2854 33.6369 28.2113 34.0787 28.5615C34.5205 28.9118 34.5946 29.5539 34.2444 29.9957L32.3031 32.444C31.5773 33.3594 30.9785 34.1147 30.4425 34.6527C29.8925 35.2049 29.282 35.6626 28.5018 35.7869C28.3356 35.8134 28.1679 35.8267 28 35.8267C27.8321 35.8267 27.6644 35.8134 27.4982 35.7869C26.7181 35.6626 26.1075 35.2049 25.5575 34.6527C25.0215 34.1147 24.4227 33.3594 23.6969 32.444L21.7557 29.9957C21.4054 29.5539 21.4795 28.9118 21.9213 28.5615C22.3631 28.2113 23.0052 28.2854 23.3555 28.7272L25.2581 31.1268C26.0179 32.0851 26.54 32.7411 26.9792 33.1868V15.7503C26.9792 15.1865 27.4362 14.7295 28 14.7295ZM15.75 31.0628C16.3138 31.0628 16.7708 31.5199 16.7708 32.0837C16.7708 33.3871 16.774 33.92 16.8421 34.3497C17.2341 36.8249 19.1754 38.7662 21.6506 39.1583C22.0803 39.2263 22.6132 39.2295 23.9167 39.2295H32.0833C33.3868 39.2295 33.9197 39.2263 34.3494 39.1583C36.8246 38.7662 38.7659 36.8249 39.158 34.3497C39.226 33.92 39.2292 33.3871 39.2292 32.0837C39.2292 31.5199 39.6862 31.0628 40.25 31.0628C40.8138 31.0628 41.2708 31.5199 41.2708 32.0837L41.2708 32.1936C41.2709 33.3533 41.271 34.0597 41.1745 34.6691C40.6441 38.0179 38.0176 40.6444 34.6688 41.1748C34.0594 41.2713 33.353 41.2713 32.1933 41.2712H23.8067C22.647 41.2713 21.9406 41.2713 21.3312 41.1748C17.9824 40.6444 15.3559 38.0179 14.8255 34.6691C14.729 34.0598 14.7291 33.3534 14.7292 32.1937L14.7292 32.0837C14.7292 31.5199 15.1862 31.0628 15.75 31.0628Z" fill="#2B2724"/>
</svg>
