<svg width="56" height="56" viewBox="0 0 56 56" fill="none" xmlns="http://www.w3.org/2000/svg">
<path d="M2.33331 27.9997C2.33331 13.8244 13.8247 2.33301 28 2.33301C42.1753 2.33301 53.6666 13.8244 53.6666 27.9997C53.6666 42.175 42.1753 53.6663 28 53.6663C13.8247 53.6663 2.33331 42.175 2.33331 27.9997Z" fill="#F2F2F2"/>
<path fill-rule="evenodd" clip-rule="evenodd" d="M17.8368 24.3016L17.8948 24.2047C19.3896 21.7064 20.5488 19.7691 21.5843 18.3547C22.6251 16.9333 23.6337 15.9055 24.8798 15.3701C26.867 14.5164 29.1339 14.5164 31.1211 15.3701C32.3672 15.9055 33.3758 16.9333 34.4166 18.3547C35.4521 19.7691 36.6113 21.7065 38.1062 24.2048L38.1641 24.3016C39.6585 26.7993 40.8178 28.7368 41.5696 30.3098C42.3235 31.8871 42.7493 33.2561 42.6042 34.5878C42.3736 36.705 41.2239 38.617 39.4577 39.8552C38.3542 40.6288 36.9337 40.9554 35.1462 41.1136C33.3624 41.2715 31.0471 41.2715 28.0543 41.2715L27.9466 41.2715C24.9539 41.2715 22.6385 41.2715 20.8548 41.1136C19.0672 40.9554 17.6467 40.6288 16.5432 39.8552C14.777 38.617 13.6273 36.705 13.3967 34.5878C13.2516 33.2561 13.6774 31.8871 14.4313 30.3098C15.1831 28.7368 16.3424 26.7993 17.8368 24.3016ZM16.2734 31.1902C15.5648 32.6728 15.3445 33.6149 15.4264 34.3667C15.5916 35.8839 16.4175 37.2736 17.7152 38.1834C18.3681 38.6412 19.3449 38.9303 21.0348 39.0799C22.7178 39.2289 24.9427 39.2298 28.0005 39.2298C31.0582 39.2298 33.2831 39.2289 34.9661 39.0799C36.656 38.9303 37.6328 38.6412 38.2857 38.1834C39.5834 37.2736 40.4093 35.8839 40.5746 34.3667C40.6564 33.6149 40.4361 32.6728 39.7276 31.1902C39.0219 29.7137 37.9126 27.8578 36.3829 25.3011C34.8533 22.7447 33.742 20.8895 32.7693 19.5609C31.7951 18.2304 31.0524 17.5627 30.3152 17.246C28.8425 16.6133 27.1584 16.6133 25.6857 17.246C24.9485 17.5627 24.2058 18.2304 23.2316 19.5609C22.2589 20.8894 21.1476 22.7447 19.618 25.3011C18.0883 27.8577 16.979 29.7137 16.2734 31.1902Z" fill="#2B2724"/>
<path fill-rule="evenodd" clip-rule="evenodd" d="M28 22.8965C28.5638 22.8965 29.0209 23.3535 29.0209 23.9173V30.0423C29.0209 30.6061 28.5638 31.0632 28 31.0632C27.4362 31.0632 26.9792 30.6061 26.9792 30.0423V23.9173C26.9792 23.3535 27.4362 22.8965 28 22.8965Z" fill="#2B2724"/>
<path d="M29.3616 33.4451C29.3616 34.1968 28.7522 34.8062 28.0005 34.8062C27.2487 34.8062 26.6393 34.1968 26.6393 33.4451C26.6393 32.6934 27.2487 32.084 28.0005 32.084C28.7522 32.084 29.3616 32.6934 29.3616 33.4451Z" fill="#2B2724"/>
</svg>
