<svg width="24" height="24" viewBox="0 0 24 24" fill="none" xmlns="http://www.w3.org/2000/svg">
<path d="M12 23C18.0751 23 23 18.0751 23 12C23 5.92487 18.0751 1 12 1C5.92487 1 1 5.92487 1 12C1 18.0751 5.92487 23 12 23Z" fill="#25D366"/>
<path d="M1 12C1 5.92487 5.92487 1 12 1C18.0751 1 23 5.92487 23 12C23 18.0751 18.0751 23 12 23C5.92487 23 1 18.0751 1 12Z" fill="#1877F2"/>
<path d="M14.8077 12.699L15.1575 10.5437H12.9692V9.14563C12.9692 8.55597 13.2749 7.98058 14.2551 7.98058H15.25V6.14563C15.25 6.14563 14.3471 6 13.4838 6C11.6814 6 10.5034 7.03223 10.5034 8.90097V10.5437H8.5V12.699H10.5034V17.9094C11.3204 18.0302 12.1522 18.0302 12.9692 17.9094V12.699H14.8077Z" fill="white"/>
</svg>
