<svg width="24" height="24" viewBox="0 0 24 24" fill="none" xmlns="http://www.w3.org/2000/svg">
<circle cx="12" cy="12" r="12" fill="#39C492"/>
<path d="M9.60043 6.92158C9.0237 7.49512 8.66668 8.28936 8.66668 9.16699C8.66668 10.0446 9.0237 10.8389 9.60043 11.4124C9.26839 11.5754 8.89489 11.667 8.50001 11.667C7.1193 11.667 6.00001 10.5477 6.00001 9.16699C6.00001 7.78628 7.1193 6.66699 8.50001 6.66699C8.89489 6.66699 9.26839 6.75854 9.60043 6.92158Z" fill="#E6FEF5"/>
<path d="M6.66671 15.5003C6.66671 16.1836 6.88309 16.8163 7.25108 17.3337H6.50004C5.11933 17.3337 4.00004 16.2144 4.00004 14.8337C4.00004 13.4529 5.11933 12.3337 6.50004 12.3337H9.83337C8.08447 12.3337 6.66671 13.7514 6.66671 15.5003Z" fill="#E6FEF5"/>
<path d="M9.71035 9.21577C9.71035 7.80812 10.9228 6.66699 12.4184 6.66699C13.9141 6.66699 15.1265 7.80812 15.1265 9.21577C15.1265 10.6234 13.9141 11.7646 12.4184 11.7646C10.9228 11.7646 9.71035 10.6234 9.71035 9.21577Z" fill="#E6FEF5"/>
<path d="M7.99988 15.5491C7.99988 14.1415 9.21233 13.0003 10.708 13.0003H14.1287C15.2901 13.0003 16.2808 13.6885 16.6655 14.6552L16.4894 14.8403C16.0935 15.2566 15.8711 15.4866 15.6965 15.6268C15.5219 15.4866 15.2996 15.2566 14.9036 14.8403L14.4081 14.3194C13.988 13.8778 13.2672 13.8404 12.798 14.2357C12.3288 14.631 12.289 15.3095 12.709 15.7511L13.2488 16.3185C13.5908 16.6782 13.9233 17.0279 14.2393 17.2779C14.5356 17.5122 14.9109 17.7366 15.3863 17.807C15.0105 17.9928 14.5826 18.0979 14.1287 18.0979H10.708C9.21233 18.0979 7.99988 16.9568 7.99988 15.5491Z" fill="#E6FEF5"/>
<path d="M19.5784 13.8053C19.7359 13.6398 19.7209 13.3853 19.545 13.2371C19.3691 13.0888 19.0987 13.1029 18.9412 13.2685L17.0204 15.2877C16.6312 15.6969 16.369 15.971 16.1449 16.1483C15.9314 16.3172 15.8061 16.354 15.6965 16.354C15.587 16.354 15.4616 16.3172 15.2481 16.1483C15.024 15.971 14.7619 15.6969 14.3727 15.2877L13.8771 14.7668C13.7196 14.6012 13.4493 14.5872 13.2733 14.7354C13.0974 14.8837 13.0825 15.1381 13.24 15.3037L13.7567 15.8469C14.1192 16.228 14.4216 16.5459 14.6979 16.7644C14.9901 16.9956 15.3054 17.1589 15.6965 17.1589C16.0877 17.1589 16.4029 16.9956 16.6952 16.7644C16.9715 16.5459 17.2738 16.228 17.6363 15.8469L19.5784 13.8053Z" fill="#E6FEF5"/>
</svg>
