<svg width="24" height="24" viewBox="0 0 24 24" fill="none" xmlns="http://www.w3.org/2000/svg">
<circle cx="12" cy="12" r="12" fill="#F7C461"/>
<path d="M10.2143 14.1543C13.1192 14.1543 15.5715 14.6322 15.5715 16.4782C15.5715 18.3242 13.1034 18.7863 10.2143 18.7863C7.30947 18.7863 4.85718 18.3076 4.85718 16.4623C4.85718 14.6163 7.32448 14.1543 10.2143 14.1543ZM16.9993 8.78627C17.3538 8.78627 17.6414 9.07873 17.6414 9.43743V10.2776H18.5008C18.8545 10.2776 19.1429 10.5701 19.1429 10.9288C19.1429 11.2875 18.8545 11.5799 18.5008 11.5799H17.6414V12.4208C17.6414 12.7795 17.3538 13.072 16.9993 13.072C16.6456 13.072 16.3572 12.7795 16.3572 12.4208V11.5799H15.4993C15.1448 11.5799 14.8572 11.2875 14.8572 10.9288C14.8572 10.5701 15.1448 10.2776 15.4993 10.2776H16.3572V9.43743C16.3572 9.07873 16.6456 8.78627 16.9993 8.78627ZM10.2143 5.21484C12.1819 5.21484 13.7591 6.81244 13.7591 8.80544C13.7591 10.7985 12.1819 12.396 10.2143 12.396C8.24677 12.396 6.66958 10.7985 6.66958 8.80544C6.66958 6.81244 8.24677 5.21484 10.2143 5.21484Z" fill="#FFF5E0"/>
</svg>
