<svg width="34" height="32" viewBox="0 0 34 32" fill="none" xmlns="http://www.w3.org/2000/svg">
<path d="M10.7998 0.167738C11.8498 0.199671 12.8665 0.383004 13.8515 0.718004H13.9498C14.0165 0.749671 14.0665 0.784671 14.0998 0.816338C14.4682 0.934671 14.8165 1.068 15.1498 1.25134L15.7832 1.53467C16.0332 1.668 16.3332 1.91634 16.4998 2.018C16.6665 2.11634 16.8498 2.218 16.9998 2.333C18.8515 0.918004 21.0998 0.151338 23.4165 0.167738C24.4682 0.167738 25.5182 0.316338 26.5165 0.651338C32.6682 2.65134 34.8848 9.40134 33.0332 15.3013C31.9832 18.3163 30.2665 21.068 28.0182 23.3163C24.7998 26.433 21.2682 29.1997 17.4665 31.583L17.0498 31.8347L16.6165 31.5663C12.8015 29.1997 9.24982 26.433 6.00149 23.2997C3.76816 21.0513 2.04982 18.3163 0.983157 15.3013C-0.900176 9.40134 1.31649 2.65134 7.53482 0.616338C8.01816 0.449671 8.51649 0.333004 9.01649 0.268004H9.21649C9.68482 0.199671 10.1498 0.167738 10.6165 0.167738H10.7998ZM25.6498 5.43467C24.9665 5.19967 24.2165 5.568 23.9665 6.268C23.7332 6.968 24.0998 7.73467 24.7998 7.983C25.8682 8.383 26.5832 9.43467 26.5832 10.5997V10.6513C26.5515 11.033 26.6665 11.4013 26.8998 11.6847C27.1332 11.968 27.4832 12.133 27.8498 12.168C28.5332 12.1497 29.1165 11.6013 29.1665 10.8997V10.7013C29.2165 8.36634 27.8015 6.25134 25.6498 5.43467Z" fill="white"/>
</svg>
