<svg width="24" height="24" viewBox="0 0 24 24" fill="none" xmlns="http://www.w3.org/2000/svg">
<path d="M18.2495 8.75712L18.2495 8.75673C18.2495 8.75652 18.2495 8.75665 18.2495 8.75713L18.2495 8.75811L18.2495 8.75881L18.2495 8.75921V8.75942C18.2495 8.75865 18.2495 8.75789 18.2495 8.75712ZM18.2495 8.75712C18.2485 7.85742 17.6967 7.03658 16.8549 6.72139L16.8549 6.72132L16.8467 6.71842C16.6883 6.66221 16.6007 6.48716 16.6523 6.32375M18.2495 8.75712L18.2497 8.76185C18.2499 8.76778 18.2503 8.7783 18.2513 8.79238C18.2533 8.82107 18.2574 8.86163 18.2655 8.90662C18.2842 9.01105 18.3132 9.07699 18.3322 9.10111C18.3617 9.13847 18.3822 9.15775 18.3939 9.16729C18.4045 9.17588 18.4101 9.17851 18.413 9.17975C18.4228 9.18403 18.442 9.19057 18.5202 9.19915M16.6523 6.32375L18.5095 9.70064M16.6523 6.32375C16.7151 6.15601 16.8865 6.08517 17.0269 6.13347L17.036 6.13657L17.0451 6.13933C17.7569 6.35409 18.1951 6.83856 18.4614 7.38882C18.73 7.94409 18.8093 8.54266 18.8001 8.91237M16.6523 6.32375L17.1895 5.66064C18.9414 6.18921 19.3261 8.06688 19.2995 8.93965M18.5202 9.19915C18.5123 9.20005 18.5042 9.20061 18.4961 9.20082L18.5095 9.70064M18.5202 9.19915C18.5313 9.20036 18.5435 9.20161 18.5571 9.20291L18.5095 9.70064M18.5202 9.19915C18.6611 9.18336 18.7852 9.06401 18.8001 8.91237M18.5095 9.70064C18.9195 9.68964 19.2695 9.36065 19.2995 8.93965M18.8001 8.91237C18.8 8.91641 18.7999 8.92043 18.7998 8.92442L19.2995 8.93965M18.8001 8.91237C18.8004 8.90963 18.8006 8.90687 18.8008 8.90411L19.2995 8.93965" fill="white" stroke="white"/>
<path d="M8.27977 2.50015C8.90977 2.51931 9.51977 2.62931 10.1108 2.83031H10.1698C10.2098 2.84931 10.2398 2.87031 10.2598 2.88931C10.4808 2.96031 10.6898 3.04031 10.8898 3.15031L11.2698 3.32031C11.4198 3.40031 11.5998 3.54931 11.6998 3.61031C11.7998 3.66931 11.9098 3.73031 11.9998 3.79931C13.1108 2.95031 14.4598 2.49031 15.8498 2.50015C16.4808 2.50015 17.1108 2.58931 17.7098 2.79031C21.4008 3.99031 22.7308 8.04031 21.6198 11.5803C20.9898 13.3893 19.9598 15.0403 18.6108 16.3893C16.6798 18.2593 14.5608 19.9193 12.2798 21.3493L12.0298 21.5003L11.7698 21.3393C9.48077 19.9193 7.34977 18.2593 5.40077 16.3793C4.06077 15.0303 3.02977 13.3893 2.38977 11.5803C1.25977 8.04031 2.58977 3.99031 6.32077 2.76931C6.61077 2.66931 6.90977 2.59931 7.20977 2.56031H7.32977C7.61077 2.51931 7.88977 2.50015 8.16977 2.50015H8.27977ZM17.1898 5.66031C16.7798 5.51931 16.3298 5.74031 16.1798 6.16031C16.0398 6.58031 16.2598 7.04031 16.6798 7.18931C17.3208 7.42931 17.7498 8.06031 17.7498 8.75931V8.79031C17.7308 9.01931 17.7998 9.24031 17.9398 9.41031C18.0798 9.58031 18.2898 9.67931 18.5098 9.70031C18.9198 9.68931 19.2698 9.36031 19.2998 8.93931V8.82031C19.3298 7.41931 18.4808 6.15031 17.1898 5.66031Z" fill="#F35B5B"/>
</svg>
