<svg width="24" height="24" viewBox="0 0 24 24" fill="none" xmlns="http://www.w3.org/2000/svg">
<path fill-rule="evenodd" clip-rule="evenodd" d="M10.1108 2.8307C9.51977 2.6297 8.90977 2.5197 8.27977 2.50054H8.16977C7.88977 2.50054 7.61077 2.5197 7.32977 2.5607H7.20977C6.90977 2.5997 6.61077 2.6697 6.32077 2.7697C2.58977 3.9907 1.25977 8.0407 2.38977 11.5807C3.02977 13.3897 4.06077 15.0307 5.40077 16.3797C7.34977 18.2597 9.48077 19.9197 11.7698 21.3397L12.0298 21.5007L12.2798 21.3497C14.5608 19.9197 16.6798 18.2597 18.6108 16.3897C19.9598 15.0407 20.9898 13.3897 21.6198 11.5807C22.7308 8.0407 21.4008 3.9907 17.7098 2.7907C17.1108 2.5897 16.4808 2.50054 15.8498 2.50054C14.4598 2.4907 13.1108 2.9507 11.9998 3.7997C11.9245 3.74196 11.8351 3.68982 11.7494 3.63976C11.7327 3.63 11.7161 3.62032 11.6998 3.6107C11.661 3.58704 11.6102 3.55014 11.5537 3.50917C11.4647 3.4445 11.3616 3.36967 11.2698 3.3207L10.8898 3.1507C10.6898 3.0407 10.4808 2.9607 10.2598 2.8897C10.2398 2.8707 10.2098 2.8497 10.1698 2.8307H10.1108ZM16.9546 5.61843C17.0329 5.62025 17.1121 5.63397 17.1898 5.6607C17.19 5.6608 17.1903 5.6609 17.1906 5.66101C17.1902 5.6609 17.1899 5.6608 17.1895 5.66069C17.1119 5.63399 17.0328 5.62027 16.9546 5.61843ZM17.7498 8.77288V8.7907C17.731 9.01708 17.7982 9.23565 17.935 9.40486C17.7694 9.189 17.7517 8.84426 17.7498 8.77288ZM18.5097 9.70069C18.5097 9.70069 18.5097 9.70069 18.5098 9.7007C18.9198 9.6897 19.2698 9.3607 19.2998 8.9397V8.93185C19.2997 8.93448 19.2996 8.93709 19.2995 8.93969C19.2695 9.36064 18.9196 9.68962 18.5097 9.70069ZM19.3002 8.79546C19.3074 8.27658 19.1942 7.77638 18.9827 7.32785C19.2083 7.85736 19.2925 8.39969 19.3002 8.79546Z" fill="#BABFBF"/>
</svg>
