<svg width="24" height="24" viewBox="0 0 24 24" fill="none" xmlns="http://www.w3.org/2000/svg">
<path d="M18.2495 8.75718L18.2495 8.75679C18.2495 8.75658 18.2495 8.75671 18.2495 8.75719L18.2495 8.75817L18.2495 8.75887L18.2495 8.75927V8.75948C18.2495 8.75872 18.2495 8.75795 18.2495 8.75718ZM18.2495 8.75718C18.2485 7.85748 17.6967 7.03664 16.8549 6.72145L16.8549 6.72138L16.8467 6.71848C16.6883 6.66228 16.6007 6.48722 16.6523 6.32381M18.2495 8.75718L18.2497 8.76192C18.2499 8.76784 18.2503 8.77836 18.2513 8.79244C18.2533 8.82113 18.2574 8.86169 18.2655 8.90668C18.2842 9.01111 18.3132 9.07705 18.3322 9.10117C18.3617 9.13853 18.3822 9.15781 18.3939 9.16735C18.4045 9.17594 18.4101 9.17857 18.413 9.17982C18.4228 9.18409 18.442 9.19063 18.5202 9.19921M16.6523 6.32381L18.5095 9.70071M16.6523 6.32381C16.7151 6.15607 16.8865 6.08523 17.0269 6.13353L17.036 6.13663L17.0451 6.13939C17.7569 6.35415 18.1951 6.83862 18.4614 7.38888C18.73 7.94416 18.8093 8.54272 18.8001 8.91243M16.6523 6.32381L17.1895 5.66071C18.9414 6.18927 19.3261 8.06694 19.2995 8.93971M18.5202 9.19921C18.5123 9.20011 18.5042 9.20067 18.4961 9.20089L18.5095 9.70071M18.5202 9.19921C18.5313 9.20042 18.5435 9.20168 18.5571 9.20297L18.5095 9.70071M18.5202 9.19921C18.6611 9.18342 18.7852 9.06407 18.8001 8.91243M18.5095 9.70071C18.9195 9.68971 19.2695 9.36071 19.2995 8.93971M18.8001 8.91243C18.8 8.91647 18.7999 8.92049 18.7998 8.92448L19.2995 8.93971M18.8001 8.91243C18.8004 8.90969 18.8006 8.90693 18.8008 8.90417L19.2995 8.93971" fill="white" stroke="white"/>
<path d="M8.27977 2.50055C8.90977 2.51971 9.51977 2.62971 10.1108 2.83071H10.1698C10.2098 2.84971 10.2398 2.87071 10.2598 2.88971C10.4808 2.96071 10.6898 3.04071 10.8898 3.15071L11.2698 3.32071C11.4198 3.40071 11.5998 3.54971 11.6998 3.61071C11.7998 3.66971 11.9098 3.73071 11.9998 3.79971C13.1108 2.95071 14.4598 2.49071 15.8498 2.50055C16.4808 2.50055 17.1108 2.58971 17.7098 2.79071C21.4008 3.99071 22.7308 8.04071 21.6198 11.5807C20.9898 13.3897 19.9598 15.0407 18.6108 16.3897C16.6798 18.2597 14.5608 19.9197 12.2798 21.3497L12.0298 21.5007L11.7698 21.3397C9.48077 19.9197 7.34977 18.2597 5.40077 16.3797C4.06077 15.0307 3.02977 13.3897 2.38977 11.5807C1.25977 8.04071 2.58977 3.99071 6.32077 2.76971C6.61077 2.66971 6.90977 2.59971 7.20977 2.56071H7.32977C7.61077 2.51971 7.88977 2.50055 8.16977 2.50055H8.27977ZM17.1898 5.66071C16.7798 5.51971 16.3298 5.74071 16.1798 6.16071C16.0398 6.58071 16.2598 7.04071 16.6798 7.18971C17.3208 7.42971 17.7498 8.06071 17.7498 8.75971V8.79071C17.7308 9.01971 17.7998 9.24071 17.9398 9.41071C18.0798 9.58071 18.2898 9.67971 18.5098 9.70071C18.9198 9.68971 19.2698 9.36071 19.2998 8.93971V8.82071C19.3298 7.41971 18.4808 6.15071 17.1898 5.66071Z" fill="#2B2724"/>
</svg>
