<svg width="56" height="56" viewBox="0 0 56 56" fill="none" xmlns="http://www.w3.org/2000/svg">
<circle cx="28" cy="28" r="27.5" stroke="#F1F5F5"/>
<g clip-path="url(#clip0_3076_14138)">
<path d="M34.0616 11.1992C34.1323 11.1992 34.203 11.1992 34.2778 11.1992C34.4512 13.3421 33.6333 14.9433 32.6392 16.1028C31.6639 17.2543 30.3282 18.3711 28.168 18.2016C28.0239 16.0894 28.8432 14.607 29.8359 13.4502C30.7565 12.3721 32.4444 11.4127 34.0616 11.1992Z" fill="#2B2724"/>
<path d="M40.6005 33.5042C40.6005 33.5255 40.6005 33.5442 40.6005 33.5642C39.9934 35.4029 39.1274 36.9787 38.0707 38.4411C37.106 39.7687 35.9238 41.5554 33.8129 41.5554C31.9889 41.5554 30.7774 40.3825 28.908 40.3505C26.9306 40.3185 25.8431 41.3312 24.0352 41.5861C23.8283 41.5861 23.6215 41.5861 23.4187 41.5861C22.0911 41.3939 21.0196 40.3425 20.2391 39.3951C17.9374 36.5958 16.1588 32.9798 15.8279 28.3525C15.8279 27.8988 15.8279 27.4465 15.8279 26.9928C15.968 23.6811 17.5771 20.9885 19.716 19.6835C20.8448 18.9897 22.3966 18.3986 24.1246 18.6628C24.8651 18.7775 25.6216 19.031 26.2848 19.2819C26.9132 19.5234 27.6991 19.9517 28.4437 19.929C28.9481 19.9144 29.4497 19.6515 29.9581 19.466C31.4472 18.9283 32.9069 18.3119 34.831 18.6014C37.1433 18.951 38.7845 19.9784 39.7986 21.5635C37.8425 22.8084 36.296 24.6845 36.5602 27.8881C36.7951 30.7982 38.487 32.5008 40.6005 33.5042Z" fill="#2B2724"/>
</g>
<defs>
<clipPath id="clip0_3076_14138">
<rect width="33.6" height="33.6" fill="white" transform="translate(11.2 11.1992)"/>
</clipPath>
</defs>
</svg>
