<svg width="6" height="10" viewBox="0 0 6 10" fill="none" xmlns="http://www.w3.org/2000/svg">
<path d="M1.89597 0.850482C1.67532 0.631794 1.31917 0.633383 1.10048 0.854031C0.881794 1.07468 0.883383 1.43083 1.10403 1.64952L2.42626 2.96C2.96288 3.49185 3.33098 3.85788 3.58005 4.16803C3.822 4.4693 3.90501 4.66281 3.9271 4.83612C3.94097 4.94494 3.94097 5.05506 3.9271 5.16388C3.90501 5.33719 3.822 5.5307 3.58006 5.83197C3.33098 6.14212 2.96288 6.50815 2.42626 7.04L1.10403 8.35048C0.883383 8.56917 0.881794 8.92532 1.10048 9.14597C1.31917 9.36662 1.67532 9.36821 1.89597 9.14952L3.24202 7.81543C3.749 7.31297 4.16335 6.90231 4.45721 6.53641C4.76278 6.15591 4.98398 5.76971 5.04307 5.30612C5.06898 5.10285 5.06898 4.89715 5.04307 4.69388C4.98398 4.23029 4.76278 3.84409 4.45721 3.46359C4.16335 3.09769 3.749 2.68703 3.24202 2.18457L1.89597 0.850482Z" fill="#8C8C8C"/>
</svg>
