<svg width="24" height="24" viewBox="0 0 24 24" fill="none" xmlns="http://www.w3.org/2000/svg">
<path fill-rule="evenodd" clip-rule="evenodd" d="M20.5 17C20.5 21.41 19.41 22.75 15 22.75H9C4.59 22.75 3.5 21.41 3.5 17V7C3.5 2.59 4.59 1.25 9 1.25H15C19.41 1.25 20.5 2.59 20.5 7V17ZM9 2.75C5.42 2.75 5 3.43 5 7V17C5 20.57 5.42 21.25 9 21.25H15C18.58 21.25 19 20.57 19 17V7C19 3.43 18.58 2.75 15 2.75H9ZM14 6.25H10C9.59 6.25 9.25 5.91 9.25 5.5C9.25 5.09 9.59 4.75 10 4.75H14C14.41 4.75 14.75 5.09 14.75 5.5C14.75 5.91 14.41 6.25 14 6.25ZM12 19C12.8284 19 13.5 18.3284 13.5 17.5C13.5 16.6716 12.8284 16 12 16C11.1716 16 10.5 16.6716 10.5 17.5C10.5 18.3284 11.1716 19 12 19Z" fill="#8C8C8C"/>
</svg>
