<svg width="20" height="20" viewBox="0 0 20 20" fill="none" xmlns="http://www.w3.org/2000/svg">
<path fill-rule="evenodd" clip-rule="evenodd" d="M8.23043 12.6719C5.02709 12.6719 2.29126 13.156 2.29126 15.096C2.29126 17.036 5.01043 17.5377 8.23043 17.5377C11.4346 17.5377 14.1696 17.0527 14.1696 15.1135C14.1696 13.1744 11.4513 12.6719 8.23043 12.6719Z" stroke="white" stroke-width="1.5" stroke-linecap="round" stroke-linejoin="round"/>
<path fill-rule="evenodd" clip-rule="evenodd" d="M8.23049 9.90484C10.333 9.90484 12.0372 8.20067 12.0372 6.09817C12.0372 3.99567 10.333 2.2915 8.23049 2.2915C6.12882 2.2915 4.42463 3.99567 4.42463 6.09817C4.41716 8.19317 6.10882 9.89734 8.20466 9.90484H8.23049Z" stroke="white" stroke-width="1.5" stroke-linecap="round" stroke-linejoin="round"/>
<path d="M16.003 7.22412V10.5658" stroke="white" stroke-width="1.5" stroke-linecap="round" stroke-linejoin="round"/>
<path d="M17.7079 8.89502H14.2996" stroke="white" stroke-width="1.5" stroke-linecap="round" stroke-linejoin="round"/>
</svg>
