<svg width="18" height="18" viewBox="0 0 18 18" fill="none" xmlns="http://www.w3.org/2000/svg">
<path d="M6.50002 0.666748C4.31389 0.666748 2.54169 2.43895 2.54169 4.62508C2.54169 6.81121 4.31389 8.58342 6.50002 8.58342C8.68615 8.58342 10.4584 6.81121 10.4584 4.62508C10.4584 2.43895 8.68615 0.666748 6.50002 0.666748Z" fill="white"/>
<path d="M15.4584 6.29175C15.4584 5.94657 15.1785 5.66675 14.8334 5.66675C14.4882 5.66675 14.2084 5.94657 14.2084 6.29175V8.16675H12.3334C11.9882 8.16675 11.7084 8.44657 11.7084 8.79175C11.7084 9.13693 11.9882 9.41675 12.3334 9.41675H14.2084V11.2917C14.2084 11.6369 14.4882 11.9167 14.8334 11.9167C15.1785 11.9167 15.4584 11.6369 15.4584 11.2917V9.41675H17.3334C17.6785 9.41675 17.9584 9.13693 17.9584 8.79175C17.9584 8.44657 17.6785 8.16675 17.3334 8.16675H15.4584V6.29175Z" fill="white"/>
<path d="M4.00002 9.83342C1.81389 9.83342 0.041687 11.6056 0.041687 13.7917C0.041687 15.9779 1.81389 17.7501 4.00002 17.7501H9.00002C11.1861 17.7501 12.9584 15.9779 12.9584 13.7917C12.9584 11.6056 11.1861 9.83342 9.00002 9.83342H4.00002Z" fill="white"/>
</svg>
