<svg width="24" height="24" viewBox="0 0 24 24" fill="none" xmlns="http://www.w3.org/2000/svg">
<path fill-rule="evenodd" clip-rule="evenodd" d="M6.25 6C6.25 3.37665 8.37665 1.25 11 1.25C13.6234 1.25 15.75 3.37665 15.75 6C15.75 8.62335 13.6234 10.75 11 10.75C8.37665 10.75 6.25 8.62335 6.25 6ZM11 2.75C9.20507 2.75 7.75 4.20507 7.75 6C7.75 7.79493 9.20507 9.25 11 9.25C12.7949 9.25 14.25 7.79493 14.25 6C14.25 4.20507 12.7949 2.75 11 2.75ZM3.25 17C3.25 14.3766 5.37665 12.25 8 12.25H12.5C12.9142 12.25 13.25 12.5858 13.25 13C13.25 13.4142 12.9142 13.75 12.5 13.75H8C6.20507 13.75 4.75 15.2051 4.75 17C4.75 18.7949 6.20507 20.25 8 20.25H12.5C12.9142 20.25 13.25 20.5858 13.25 21C13.25 21.4142 12.9142 21.75 12.5 21.75H8C5.37665 21.75 3.25 19.6234 3.25 17ZM18 20.5C19.0996 20.5 20.0808 19.9929 20.7225 19.1998L14.606 16.1416C14.5368 16.4162 14.5 16.7038 14.5 17C14.5 18.933 16.067 20.5 18 20.5ZM15.2775 14.8002L21.394 17.8584C21.4632 17.5838 21.5 17.2962 21.5 17C21.5 15.067 19.933 13.5 18 13.5C16.9004 13.5 15.9192 14.0071 15.2775 14.8002ZM18 22C20.7614 22 23 19.7614 23 17C23 14.2386 20.7614 12 18 12C15.2386 12 13 14.2386 13 17C13 19.7614 15.2386 22 18 22Z" fill="#8C8C8C"/>
</svg>
