<svg width="14" height="14" viewBox="0 0 14 14" fill="none" xmlns="http://www.w3.org/2000/svg">
<path fill-rule="evenodd" clip-rule="evenodd" d="M3.49996 8.604C2.45292 8.604 1.60413 9.4528 1.60413 10.4998C1.60413 11.5469 2.45292 12.3957 3.49996 12.3957C4.547 12.3957 5.39579 11.5469 5.39579 10.4998C5.39579 9.4528 4.547 8.604 3.49996 8.604ZM0.729126 10.4998C0.729126 8.96955 1.96967 7.729 3.49996 7.729C5.03025 7.729 6.27079 8.96955 6.27079 10.4998C6.27079 12.0301 5.03025 13.2707 3.49996 13.2707C1.96967 13.2707 0.729126 12.0301 0.729126 10.4998Z" fill="white"/>
<path fill-rule="evenodd" clip-rule="evenodd" d="M10.5 8.604C9.45292 8.604 8.60413 9.4528 8.60413 10.4998C8.60413 11.5469 9.45292 12.3957 10.5 12.3957C11.547 12.3957 12.3958 11.5469 12.3958 10.4998C12.3958 9.4528 11.547 8.604 10.5 8.604ZM7.72913 10.4998C7.72913 8.96955 8.96967 7.729 10.5 7.729C12.0302 7.729 13.2708 8.96955 13.2708 10.4998C13.2708 12.0301 12.0302 13.2707 10.5 13.2707C8.96967 13.2707 7.72913 12.0301 7.72913 10.4998Z" fill="white"/>
<path fill-rule="evenodd" clip-rule="evenodd" d="M3.25089 0.806834C3.44955 0.669299 3.72209 0.718852 3.85963 0.917514L6.99992 5.45349L10.1402 0.917514C10.2777 0.718852 10.5503 0.669299 10.7489 0.806834C10.9476 0.94437 10.9972 1.21691 10.8596 1.41557L7.53203 6.2221L9.10963 8.50085C9.24716 8.69951 9.19761 8.97205 8.99895 9.10959C8.80029 9.24712 8.52774 9.19757 8.39021 8.99891L6.99992 6.99071L5.60963 8.99891C5.47209 9.19757 5.19955 9.24712 5.00089 9.10959C4.80223 8.97205 4.75267 8.69951 4.89021 8.50085L6.4678 6.2221L3.14021 1.41557C3.00267 1.21691 3.05223 0.94437 3.25089 0.806834Z" fill="white"/>
</svg>
