<svg width="30" height="30" viewBox="0 0 30 30" fill="none" xmlns="http://www.w3.org/2000/svg">
<g filter="url(#filter0_d_5176_15977)">
<path d="M25 15C25 20.5228 20.5228 25 15 25C9.47715 25 5 20.5228 5 15C5 9.47715 9.47715 5 15 5C20.5228 5 25 9.47715 25 15Z" fill="#F04287" stroke="white"/>
<path fill-rule="evenodd" clip-rule="evenodd" d="M20.6311 11.4412C20.9397 11.7175 20.9659 12.1917 20.6896 12.5003L17.3204 16.2635C16.6514 17.0107 16.092 17.6005 15.6255 18.0065C15.3919 18.2099 15.1606 18.3858 14.9327 18.514C14.7105 18.6389 14.4363 18.75 14.1308 18.75C13.6968 18.75 13.295 18.5888 12.952 18.3891C12.6042 18.1866 12.2623 17.9123 11.9347 17.6125C11.3503 17.0776 10.7351 16.3889 10.1417 15.7246C10.0746 15.6494 10.0077 15.5746 9.94123 15.5003C9.66494 15.1917 9.69113 14.7175 9.99974 14.4412C10.3083 14.1649 10.7825 14.1911 11.0588 14.4997C11.1246 14.5733 11.1899 14.6464 11.2548 14.7189C11.8603 15.3965 12.4225 16.0256 12.9474 16.5059C13.2357 16.7698 13.4886 16.9658 13.7068 17.0928C13.9073 17.2096 14.0367 17.2435 14.1088 17.2491C14.1227 17.2441 14.1516 17.2323 14.1975 17.2064C14.3012 17.1482 14.446 17.0446 14.6407 16.8751C15.0308 16.5355 15.5368 16.0069 16.2029 15.2629L19.5721 11.4997C19.8484 11.1911 20.3225 11.1649 20.6311 11.4412Z" fill="white"/>
</g>
<defs>
<filter id="filter0_d_5176_15977" x="-1" y="-1" width="32" height="32" filterUnits="userSpaceOnUse" color-interpolation-filters="sRGB">
<feFlood flood-opacity="0" result="BackgroundImageFix"/>
<feColorMatrix in="SourceAlpha" type="matrix" values="0 0 0 0 0 0 0 0 0 0 0 0 0 0 0 0 0 0 127 0" result="hardAlpha"/>
<feOffset/>
<feGaussianBlur stdDeviation="2"/>
<feColorMatrix type="matrix" values="0 0 0 0 0.116667 0 0 0 0 0.105292 0 0 0 0 0.0947917 0 0 0 0.3 0"/>
<feBlend mode="normal" in2="BackgroundImageFix" result="effect1_dropShadow_5176_15977"/>
<feBlend mode="normal" in="SourceGraphic" in2="effect1_dropShadow_5176_15977" result="shape"/>
</filter>
</defs>
</svg>
