<svg width="24" height="24" viewBox="0 0 24 24" fill="none" xmlns="http://www.w3.org/2000/svg">
<path d="M11.9996 22.2853C9.96526 22.2853 7.97663 21.6821 6.28515 20.5518C4.59367 19.4216 3.27533 17.8152 2.49683 15.9358C1.71832 14.0563 1.51463 11.9882 1.91151 9.99294C2.30839 7.99771 3.288 6.16497 4.72649 4.72649C6.16497 3.288 7.99771 2.30839 9.99294 1.91151C11.9882 1.51463 14.0563 1.71832 15.9358 2.49683C17.8152 3.27533 19.4216 4.59367 20.5518 6.28515C21.6821 7.97663 22.2853 9.96526 22.2853 11.9996C22.2824 14.7266 21.1977 17.3411 19.2694 19.2694C17.3411 21.1977 14.7266 22.2824 11.9996 22.2853ZM11.9996 3.42816C10.3043 3.42816 8.64712 3.93086 7.23756 4.8727C5.82799 5.81454 4.72937 7.15322 4.08062 8.71944C3.43187 10.2857 3.26212 12.0091 3.59286 13.6718C3.92359 15.3345 4.73993 16.8618 5.93867 18.0605C7.13741 19.2592 8.66469 20.0756 10.3274 20.4063C11.9901 20.737 13.7135 20.5673 15.2797 19.9186C16.846 19.2698 18.1846 18.1712 19.1265 16.7616C20.0683 15.3521 20.571 13.6949 20.571 11.9996C20.5685 9.72707 19.6647 7.54834 18.0577 5.94143C16.4508 4.33451 14.2721 3.43065 11.9996 3.42816Z" fill="#F04287"/>
<circle cx="12" cy="12" r="6" fill="#F04287"/>
</svg>
