<svg width="24" height="24" viewBox="0 0 24 24" fill="none" xmlns="http://www.w3.org/2000/svg">
<path d="M12 22.2853C9.96563 22.2853 7.97699 21.6821 6.28552 20.5518C4.59404 19.4216 3.27569 17.8152 2.49719 15.9358C1.71869 14.0563 1.515 11.9882 1.91188 9.99294C2.30875 7.99771 3.28837 6.16497 4.72685 4.72649C6.16534 3.288 7.99808 2.30839 9.99331 1.91151C11.9885 1.51463 14.0567 1.71832 15.9361 2.49683C17.8156 3.27533 19.422 4.59367 20.5522 6.28515C21.6824 7.97663 22.2857 9.96526 22.2857 11.9996C22.2827 14.7266 21.1981 17.3411 19.2698 19.2694C17.3415 21.1977 14.727 22.2824 12 22.2853ZM12 3.42816C10.3047 3.42816 8.64749 3.93086 7.23792 4.8727C5.82836 5.81454 4.72974 7.15322 4.08098 8.71944C3.43223 10.2857 3.26249 12.0091 3.59322 13.6718C3.92395 15.3345 4.7403 16.8618 5.93904 18.0605C7.13777 19.2592 8.66506 20.0756 10.3277 20.4063C11.9904 20.737 13.7139 20.5673 15.2801 19.9186C16.8463 19.2698 18.185 18.1712 19.1268 16.7616C20.0687 15.3521 20.5714 13.6949 20.5714 11.9996C20.5689 9.72707 19.665 7.54834 18.0581 5.94143C16.4512 4.33451 14.2725 3.43065 12 3.42816Z" fill="#8C8C8C"/>
</svg>
