<svg width="6" height="7" viewBox="0 0 6 7" fill="none" xmlns="http://www.w3.org/2000/svg">
<path d="M5.65188 1.65142C5.94477 1.35853 5.94477 0.883656 5.65188 0.590764C5.35898 0.29787 4.88411 0.29787 4.59122 0.590764L3.00023 2.18175L1.40924 0.590764C1.11634 0.297871 0.641469 0.297871 0.348576 0.590764C0.055683 0.883658 0.055683 1.35853 0.348576 1.65142L1.93957 3.24241L0.348576 4.83341C0.055683 5.1263 0.055683 5.60117 0.348576 5.89406C0.641469 6.18696 1.11634 6.18696 1.40924 5.89406L3.00023 4.30307L4.59122 5.89406C4.88411 6.18696 5.35898 6.18696 5.65188 5.89406C5.94477 5.60117 5.94477 5.1263 5.65188 4.83341L4.06089 3.24241L5.65188 1.65142Z" fill="white"/>
</svg>
