<svg width="22" height="22" viewBox="0 0 22 22" fill="none" xmlns="http://www.w3.org/2000/svg">
<path d="M11.0001 21.2857C8.96575 21.2857 6.97711 20.6824 5.28564 19.5522C3.59416 18.422 2.27581 16.8156 1.49731 14.9361C0.718812 13.0567 0.515121 10.9885 0.911997 8.99331C1.30887 6.99808 2.28849 5.16534 3.72698 3.72685C5.16546 2.28837 6.9982 1.30875 8.99343 0.911875C10.9887 0.514999 13.0568 0.71869 14.9362 1.49719C16.8157 2.27569 18.4221 3.59404 19.5523 5.28552C20.6825 6.97699 21.2858 8.96563 21.2858 11C21.2828 13.727 20.1982 16.3415 18.2699 18.2698C16.3416 20.1981 13.7271 21.2827 11.0001 21.2857V21.2857ZM11.0001 2.42852C9.30481 2.42852 7.64761 2.93123 6.23804 3.87307C4.82848 4.81491 3.72986 6.15358 3.08111 7.71981C2.43236 9.28603 2.26261 11.0095 2.59334 12.6722C2.92407 14.3348 3.74042 15.8621 4.93916 17.0609C6.13789 18.2596 7.66518 19.076 9.32787 19.4067C10.9906 19.7374 12.714 19.5677 14.2802 18.9189C15.8464 18.2702 17.1851 17.1715 18.127 15.762C19.0688 14.3524 19.5715 12.6952 19.5715 11C19.569 8.72743 18.6651 6.54871 17.0582 4.94179C15.4513 3.33488 13.2726 2.43102 11.0001 2.42852V2.42852Z" fill="white"/>
</svg>
