<svg width="18" height="18" viewBox="0 0 18 18" fill="none" xmlns="http://www.w3.org/2000/svg">
<path fill-rule="evenodd" clip-rule="evenodd" d="M18 9C18 8.25229 17.9095 7.52268 17.7354 6.82494C16.9355 3.60179 14.3984 1.06461 11.1752 0.264636C10.4774 0.0905083 9.74777 0 9 0C4.02944 0 0 4.02944 0 9C0 11.618 1.11787 13.975 2.90232 15.6196L2.898 15.624C2.95029 15.6763 3.00866 15.7225 3.06604 15.7679L3.06606 15.768L3.07903 15.7782C3.37833 16.0399 3.69511 16.282 4.0274 16.5027L4.032 16.506C4.13354 16.5755 4.23826 16.6418 4.34615 16.7049C4.47759 16.7845 4.61123 16.8608 4.74695 16.9337L4.77 16.947C4.88262 17.0089 4.99876 17.0674 5.11843 17.1223C5.23369 17.1774 5.3503 17.2302 5.4682 17.2806C5.49385 17.2922 5.51949 17.3032 5.54514 17.313C6.04078 17.5192 6.55883 17.6824 7.09462 17.7979C7.12178 17.8047 7.14963 17.8109 7.17884 17.8156C7.47213 17.8759 7.77064 17.9219 8.07358 17.9529L8.08198 17.955L8.082 17.955C8.12203 17.9585 8.16206 17.9619 8.20209 17.9651C8.46498 17.9882 8.73111 18 9 18C9.29357 18 9.58386 17.9859 9.87023 17.9585L9.909 17.955C9.92814 17.955 9.94728 17.9525 9.96642 17.9487C11.9324 17.7388 13.7091 16.8959 15.0888 15.6278L15.093 15.624V15.6239C16.8802 13.9791 18 11.6203 18 9ZM16.119 6.201C16.4366 7.00341 16.6223 7.87569 16.6471 8.78899C16.649 8.85909 16.65 8.92943 16.65 9C16.65 11.088 15.804 12.987 14.436 14.373C14.175 14.04 13.842 13.734 13.446 13.473C11.007 11.835 7.011 11.835 4.554 13.473C4.158 13.734 3.834 14.04 3.564 14.373C2.196 12.987 1.35 11.088 1.35 9C1.35 4.779 4.779 1.35 9 1.35C9.981 1.35 10.926 1.539 11.79 1.881L11.7914 1.87527C13.7683 2.65041 15.3442 4.22458 16.1215 6.20037L16.119 6.201ZM5.625 7.80298C5.625 5.93998 7.137 4.42798 9 4.42798V4.41898C10.863 4.41898 12.375 5.93098 12.375 7.80298C12.366 9.62998 10.935 11.106 9.117 11.169H9.099H9.036H8.955C7.056 11.115 5.625 9.62998 5.625 7.80298Z" fill="#5E5E5E"/>
</svg>
