<svg width="16" height="16" viewBox="0 0 16 16" fill="none" xmlns="http://www.w3.org/2000/svg">
<path d="M12.4494 6.56006C12.4494 11.9061 13.2189 14.3226 8.04305 14.3226C2.86654 14.3226 3.65194 11.9061 3.65194 6.56006" stroke="#F2F1F1" stroke-width="1.5" stroke-linecap="round" stroke-linejoin="round"/>
<path d="M13.4336 4.5105H2.66666" stroke="#F2F1F1" stroke-width="1.5" stroke-linecap="round" stroke-linejoin="round"/>
<path d="M10.3333 4.51048C10.3333 4.51048 10.6857 2 8.0495 2C5.41395 2 5.76633 4.51048 5.76633 4.51048" stroke="#F2F1F1" stroke-width="1.5" stroke-linecap="round" stroke-linejoin="round"/>
<path d="M5.91666 12C5.91666 12.4142 6.25244 12.75 6.66666 12.75C7.08087 12.75 7.41666 12.4142 7.41666 12H5.91666ZM7.41666 6.66663C7.41666 6.25241 7.08087 5.91663 6.66666 5.91663C6.25244 5.91663 5.91666 6.25241 5.91666 6.66663H7.41666ZM8.58332 12C8.58332 12.4142 8.91911 12.75 9.33332 12.75C9.74754 12.75 10.0833 12.4142 10.0833 12H8.58332ZM10.0833 6.66663C10.0833 6.25241 9.74754 5.91663 9.33332 5.91663C8.91911 5.91663 8.58332 6.25241 8.58332 6.66663H10.0833ZM7.41666 12V6.66663H5.91666V12H7.41666ZM10.0833 12V6.66663H8.58332V12H10.0833Z" fill="#F2F1F1"/>
</svg>
