<svg width="24" height="24" viewBox="0 0 24 24" fill="none" xmlns="http://www.w3.org/2000/svg">
<path fill-rule="evenodd" clip-rule="evenodd" d="M5 5.5C5 2.87665 7.12665 0.75 9.75 0.75C12.3734 0.75 14.5 2.87665 14.5 5.5C14.5 8.12335 12.3734 10.25 9.75 10.25C7.12665 10.25 5 8.12335 5 5.5ZM9.75 2.25C7.95507 2.25 6.5 3.70507 6.5 5.5C6.5 7.29493 7.95507 8.75 9.75 8.75C11.5449 8.75 13 7.29493 13 5.5C13 3.70507 11.5449 2.25 9.75 2.25ZM2 16.75C2 14.1266 4.12665 12 6.75 12H10.5C10.9142 12 11.25 12.3358 11.25 12.75C11.25 13.1642 10.9142 13.5 10.5 13.5H6.75C4.95507 13.5 3.5 14.9551 3.5 16.75C3.5 18.5449 4.95507 20 6.75 20H11.25C11.6642 20 12 20.3358 12 20.75C12 21.1642 11.6642 21.5 11.25 21.5H6.75C4.12665 21.5 2 19.3734 2 16.75ZM14.4 9.19999C14.4 8.75817 14.7582 8.39999 15.2 8.39999H18.8C19.2418 8.39999 19.6 8.75817 19.6 9.19999V10.25H19.8318H22C22.4142 10.25 22.75 10.5858 22.75 11C22.75 11.4142 22.4142 11.75 22 11.75H21.5642C21.5804 11.8627 21.5857 11.9788 21.5791 12.0971L21.1347 20.0971C21.0831 21.0244 20.3161 21.75 19.3873 21.75H14.6127C13.6839 21.75 12.9169 21.0244 12.8653 20.0971L12.4209 12.0971C12.4143 11.9788 12.4196 11.8627 12.4358 11.75H12C11.5858 11.75 11.25 11.4142 11.25 11C11.25 10.5858 11.5858 10.25 12 10.25H14.1682H14.4V9.19999ZM18.4 9.59999V10.25H15.6V9.59999H18.4ZM14.1682 11.75C14.0247 11.75 13.9106 11.8706 13.9186 12.0139L14.363 20.0139C14.3704 20.1463 14.48 20.25 14.6127 20.25H19.3873C19.52 20.25 19.6296 20.1463 19.637 20.0139L20.0814 12.0139C20.0894 11.8706 19.9753 11.75 19.8318 11.75H14.1682ZM16 13.75C16.4142 13.75 16.75 14.0858 16.75 14.5V17.5C16.75 17.9142 16.4142 18.25 16 18.25C15.5858 18.25 15.25 17.9142 15.25 17.5V14.5C15.25 14.0858 15.5858 13.75 16 13.75ZM18.75 14.5C18.75 14.0858 18.4142 13.75 18 13.75C17.5858 13.75 17.25 14.0858 17.25 14.5V17.5C17.25 17.9142 17.5858 18.25 18 18.25C18.4142 18.25 18.75 17.9142 18.75 17.5V14.5Z" fill="#F35B5B"/>
</svg>
