<svg width="16" height="16" viewBox="0 0 16 16" fill="none" xmlns="http://www.w3.org/2000/svg">
<path d="M6.35411 12.6799L6.08118 11.9813L6.35411 12.6799ZM3.64985 13.1992L3.27485 13.8487L3.27485 13.8487L3.64985 13.1992ZM2.74743 10.5975L2.00598 10.7105L2.74743 10.5975ZM3.0743 8.8627L3.72382 9.2377L3.0743 8.8627ZM2.68487 9.68754L1.94783 9.54868H1.94783L2.68487 9.68754ZM7.6931 11.5294L8.34262 11.9044L7.6931 11.5294ZM7.17348 12.279L7.66226 12.8479H7.66226L7.17348 12.279ZM5.60659 4.47664L4.95707 4.10164L5.60659 4.47664ZM12.9399 14.2506C13.3541 14.2506 13.6899 13.9148 13.6899 13.5006C13.6899 13.0864 13.3541 12.7506 12.9399 12.7506V14.2506ZM8.93992 12.7506C8.52571 12.7506 8.18992 13.0864 8.18992 13.5006C8.18992 13.9148 8.52571 14.2506 8.93992 14.2506V12.7506ZM9.57587 6.76831L7.04358 11.1544L8.34262 11.9044L10.8749 7.51831L9.57587 6.76831ZM3.72382 9.2377L6.25611 4.85164L4.95707 4.10164L2.42478 8.4877L3.72382 9.2377ZM6.08118 11.9813C5.34293 12.2697 4.86482 12.4545 4.50214 12.5393C4.15906 12.6194 4.0653 12.573 4.02485 12.5496L3.27485 13.8487C3.78937 14.1457 4.33131 14.1196 4.8434 13.9999C5.3359 13.8849 5.93244 13.6498 6.62704 13.3784L6.08118 11.9813ZM2.00598 10.7105C2.11827 11.4477 2.21298 12.0819 2.35958 12.5659C2.51201 13.0692 2.76032 13.5516 3.27485 13.8487L4.02485 12.5496C3.98439 12.5263 3.89731 12.4683 3.79518 12.1311C3.68722 11.7746 3.60822 11.2682 3.48888 10.4846L2.00598 10.7105ZM2.42478 8.4877C2.21875 8.84455 2.01899 9.17102 1.94783 9.54868L3.4219 9.82641C3.43483 9.75777 3.46665 9.68312 3.72382 9.2377L2.42478 8.4877ZM3.48888 10.4846C3.41144 9.97616 3.40897 9.89505 3.4219 9.82641L1.94783 9.54868C1.87668 9.92633 1.94394 10.3031 2.00598 10.7105L3.48888 10.4846ZM7.04358 11.1544C6.78642 11.5998 6.73768 11.6647 6.68471 11.7102L7.66226 12.8479C7.95374 12.5975 8.13659 12.2612 8.34262 11.9044L7.04358 11.1544ZM6.62704 13.3784C7.01084 13.2285 7.37078 13.0984 7.66226 12.8479L6.68471 11.7102C6.63173 11.7557 6.56024 11.7941 6.08118 11.9813L6.62704 13.3784ZM8.87432 4.1501C9.43702 4.47497 9.7929 4.68228 10.0337 4.86813C10.2573 5.04068 10.2889 5.12632 10.3008 5.17097L11.7497 4.78274C11.6187 4.29392 11.3066 3.95569 10.9501 3.68061C10.6109 3.41882 10.1503 3.15473 9.62432 2.85106L8.87432 4.1501ZM10.8749 7.51831C11.1786 6.99234 11.4454 6.53332 11.6083 6.13699C11.7795 5.72053 11.8807 5.27155 11.7497 4.78274L10.3008 5.17097C10.3128 5.21562 10.3283 5.30554 10.2209 5.56677C10.1053 5.84814 9.90074 6.20562 9.57587 6.76831L10.8749 7.51831ZM9.62432 2.85106C9.09836 2.54739 8.63933 2.28053 8.24301 2.11764C7.82654 1.94648 7.37757 1.84529 6.88875 1.97627L7.27698 3.42515C7.32163 3.41319 7.41155 3.39767 7.67279 3.50503C7.95416 3.62068 8.31163 3.82523 8.87432 4.1501L9.62432 2.85106ZM6.25611 4.85164C6.58098 4.28895 6.78829 3.93307 6.97414 3.69224C7.14669 3.46864 7.23233 3.43712 7.27698 3.42515L6.88875 1.97627C6.39993 2.10724 6.06171 2.41936 5.78662 2.77583C5.52484 3.11506 5.26074 3.57568 4.95707 4.10164L6.25611 4.85164ZM10.6004 6.49379L5.98159 3.82713L5.23159 5.12616L9.85039 7.79283L10.6004 6.49379ZM12.9399 12.7506H8.93992V14.2506H12.9399V12.7506Z" fill="white"/>
</svg>
