<svg width="18" height="18" viewBox="0 0 18 18" fill="none" xmlns="http://www.w3.org/2000/svg">
<path d="M6.3005 3.28641C5.65168 3.93164 5.25003 4.82517 5.25003 5.8125C5.25003 6.79983 5.65168 7.69336 6.3005 8.33859C5.92695 8.522 5.50677 8.625 5.06253 8.625C3.50923 8.625 2.25003 7.3658 2.25003 5.8125C2.25003 4.2592 3.50923 3 5.06253 3C5.50677 3 5.92695 3.103 6.3005 3.28641Z" fill="#5E5E5E"/>
<path d="M3.00006 12.9375C3.00006 13.7062 3.2435 14.418 3.65748 15H2.81256C1.25926 15 6.10352e-05 13.7408 6.10352e-05 12.1875C6.10352e-05 10.6342 1.25926 9.375 2.81256 9.375H6.56256C4.59505 9.375 3.00006 10.97 3.00006 12.9375Z" fill="#5E5E5E"/>
<path d="M6.42416 5.86738C6.42416 4.28377 7.78816 3 9.47075 3C11.1533 3 12.5173 4.28377 12.5173 5.86738C12.5173 7.45099 11.1533 8.73476 9.47075 8.73476C7.78816 8.73476 6.42416 7.45099 6.42416 5.86738Z" fill="#5E5E5E"/>
<path d="M4.49988 12.9924C4.49988 11.4088 5.86388 10.125 7.54647 10.125H11.3948C12.7014 10.125 13.8159 10.8992 14.2487 11.9867L14.0506 12.195C13.6052 12.6633 13.355 12.9221 13.1586 13.0797C12.9622 12.9221 12.712 12.6633 12.2666 12.195L11.7091 11.609C11.2365 11.1122 10.4256 11.07 9.89776 11.5148C9.36993 11.9596 9.32513 12.7228 9.79769 13.2196L10.4049 13.858C10.7896 14.2626 11.1638 14.656 11.5193 14.9373C11.8525 15.2009 12.2748 15.4533 12.8096 15.5325C12.3868 15.7415 11.9055 15.8598 11.3948 15.8598H7.54647C5.86388 15.8598 4.49988 14.576 4.49988 12.9924Z" fill="#5E5E5E"/>
<path d="M17.5257 11.0307C17.7029 10.8444 17.6861 10.5581 17.4881 10.3914C17.2902 10.2246 16.9861 10.2404 16.8089 10.4267L14.6479 12.6983C14.2101 13.1587 13.9152 13.467 13.6631 13.6665C13.4229 13.8565 13.2818 13.8979 13.1586 13.8979C13.0354 13.8979 12.8943 13.8565 12.6541 13.6665C12.402 13.467 12.1071 13.1587 11.6693 12.6983L11.1118 12.1123C10.9346 11.926 10.6305 11.9102 10.4325 12.077C10.2346 12.2438 10.2178 12.53 10.395 12.7163L10.9763 13.3274C11.3841 13.7561 11.7243 14.1137 12.0351 14.3596C12.3639 14.6197 12.7186 14.8034 13.1586 14.8034C13.5986 14.8034 13.9533 14.6197 14.2821 14.3596C14.5929 14.1137 14.9331 13.7561 15.3409 13.3274L17.5257 11.0307Z" fill="#5E5E5E"/>
</svg>
