<svg width="18" height="18" viewBox="0 0 18 18" fill="none" xmlns="http://www.w3.org/2000/svg">
<path d="M6.48797 7.77609C5.83915 7.13086 5.4375 6.23733 5.4375 5.25C5.4375 4.26267 5.83915 3.36914 6.48797 2.72391C6.11442 2.5405 5.69424 2.4375 5.25 2.4375C3.6967 2.4375 2.4375 3.6967 2.4375 5.25C2.4375 6.8033 3.6967 8.0625 5.25 8.0625C5.69424 8.0625 6.11442 7.9595 6.48797 7.77609Z" fill="#48E0E4"/>
<path d="M6.1875 5.25C6.1875 3.6967 7.4467 2.4375 9 2.4375C10.5533 2.4375 11.8125 3.6967 11.8125 5.25C11.8125 6.8033 10.5533 8.0625 9 8.0625C7.4467 8.0625 6.1875 6.8033 6.1875 5.25Z" fill="#48E0E4"/>
<path d="M11.512 2.72391C12.1608 3.36914 12.5625 4.26267 12.5625 5.25C12.5625 6.23733 12.1608 7.13086 11.512 7.77609C11.8856 7.9595 12.3058 8.0625 12.75 8.0625C14.3033 8.0625 15.5625 6.8033 15.5625 5.25C15.5625 3.6967 14.3033 2.4375 12.75 2.4375C12.3058 2.4375 11.8856 2.5405 11.512 2.72391Z" fill="#48E0E4"/>
<path d="M3.9375 12C3.9375 10.4467 5.1967 9.1875 6.75 9.1875H11.25C12.8033 9.1875 14.0625 10.4467 14.0625 12C14.0625 13.5533 12.8033 14.8125 11.25 14.8125H6.75C5.1967 14.8125 3.9375 13.5533 3.9375 12Z" fill="#48E0E4"/>
<path d="M0.1875 11.25C0.1875 9.6967 1.4467 8.4375 3 8.4375H6.75C4.78249 8.4375 3.1875 10.0325 3.1875 12C3.1875 12.7687 3.43094 13.4805 3.84491 14.0625H3C1.4467 14.0625 0.1875 12.8033 0.1875 11.25Z" fill="#48E0E4"/>
<path d="M14.8125 12C14.8125 12.7687 14.5691 13.4805 14.1551 14.0625H15C16.5533 14.0625 17.8125 12.8033 17.8125 11.25C17.8125 9.6967 16.5533 8.4375 15 8.4375H11.25C13.2175 8.4375 14.8125 10.0325 14.8125 12Z" fill="#48E0E4"/>
</svg>
