<svg width="20" height="20" viewBox="0 0 20 20" fill="none" xmlns="http://www.w3.org/2000/svg">
<path fill-rule="evenodd" clip-rule="evenodd" d="M18.3332 10.0001C18.3332 14.6025 14.6022 18.3334 9.99984 18.3334C5.39746 18.3334 1.6665 14.6025 1.6665 10.0001C1.6665 5.39771 5.39746 1.66675 9.99984 1.66675C14.6022 1.66675 18.3332 5.39771 18.3332 10.0001ZM9.99984 8.54175C10.345 8.54175 10.6248 8.82157 10.6248 9.16675V14.1667C10.6248 14.5119 10.345 14.7917 9.99984 14.7917C9.65466 14.7917 9.37484 14.5119 9.37484 14.1667V9.16675C9.37484 8.82157 9.65466 8.54175 9.99984 8.54175ZM9.99984 7.50008C10.4601 7.50008 10.8332 7.12699 10.8332 6.66675C10.8332 6.20651 10.4601 5.83342 9.99984 5.83342C9.5396 5.83342 9.1665 6.20651 9.1665 6.66675C9.1665 7.12699 9.5396 7.50008 9.99984 7.50008Z" fill="#F2F1F1"/>
</svg>
