<svg width="24" height="24" viewBox="0 0 24 24" fill="none" xmlns="http://www.w3.org/2000/svg">
<path d="M13.0749 14.7997H16.1405L14.7472 11.332L13.0749 14.7997ZM16.7033 16.1997H12.3995L11.2404 18.6042C11.1597 18.7714 11.016 18.8998 10.8408 18.9609C10.6657 19.0221 10.4734 19.0111 10.3064 18.9303C10.1393 18.8496 10.0111 18.7057 9.95002 18.5303C9.88893 18.3549 9.89992 18.1624 9.98057 17.9952L13.488 10.7238C13.6059 10.4795 13.7921 10.2749 14.0239 10.1346C14.2558 9.99436 14.5233 9.92454 14.794 9.93366C15.0648 9.94278 15.327 10.0304 15.5489 10.186C15.7708 10.3415 15.9428 10.5583 16.044 10.8099L18.9496 18.0386C19.0187 18.2108 19.0167 18.4036 18.9439 18.5744C18.8712 18.7451 18.7336 18.88 18.5615 18.9492C18.3895 19.0185 18.197 19.0165 18.0264 18.9436C17.8558 18.8707 17.7212 18.733 17.652 18.5608L16.7033 16.1997ZM5.71665 5H11.3096C11.495 5 11.6728 5.07375 11.8039 5.20502C11.9351 5.33629 12.0087 5.51434 12.0087 5.69998C12.0087 5.88563 11.9351 6.06367 11.8039 6.19494C11.6728 6.32622 11.495 6.39996 11.3096 6.39996H5.71665C5.53124 6.39996 5.35341 6.32622 5.2223 6.19494C5.09119 6.06367 5.01754 5.88563 5.01754 5.69998C5.01754 5.51434 5.09119 5.33629 5.2223 5.20502C5.35341 5.07375 5.53124 5 5.71665 5V5ZM5.71665 8.49991C5.53124 8.49991 5.35341 8.42616 5.2223 8.29489C5.09119 8.16362 5.01754 7.98557 5.01754 7.79993C5.01754 7.61428 5.09119 7.43624 5.2223 7.30497C5.35341 7.17369 5.53124 7.09995 5.71665 7.09995H10.6126C10.8574 7.10003 11.098 7.16448 11.3101 7.28687C11.5223 7.40925 11.6986 7.58528 11.8215 7.79733C11.9444 8.00938 12.0095 8.25002 12.0104 8.49518C12.0112 8.74034 11.9477 8.98142 11.8262 9.19429C11.1656 10.3521 10.4329 11.185 9.61354 11.682C8.58443 12.3071 7.29246 12.6424 5.74252 12.6991C5.64941 12.7049 5.55609 12.692 5.46805 12.6611C5.38 12.6302 5.29902 12.582 5.22987 12.5194C5.16072 12.4567 5.1048 12.3807 5.0654 12.2961C5.02601 12.2114 5.00393 12.1197 5.00048 12.0264C4.99703 11.933 5.01227 11.84 5.0453 11.7526C5.07833 11.6653 5.12849 11.5854 5.19282 11.5178C5.25715 11.4501 5.33435 11.3961 5.41987 11.3588C5.50539 11.3214 5.59751 11.3017 5.69079 11.3005C7.01771 11.2515 8.08107 10.9757 8.88855 10.4851C9.4807 10.126 10.0603 9.46729 10.6126 8.49991H5.71665Z" fill="#8C8C8C"/>
<rect x="2.75" y="2.75" width="18.5" height="18.5" rx="4.25" stroke="#8C8C8C" stroke-width="1.5"/>
</svg>
