<svg width="18" height="21" viewBox="0 0 18 21" fill="none" xmlns="http://www.w3.org/2000/svg">
<path fill-rule="evenodd" clip-rule="evenodd" d="M8.09998 0.25C4.70442 0.25 2.07724 3.22603 2.49841 6.59536L2.57776 7.23021C2.69388 8.15916 2.35455 9.08706 1.66654 9.72195C0.240863 11.0375 -0.155232 13.1315 0.691418 14.8769L0.794769 15.09C1.54092 16.6282 3.05598 17.6356 4.74728 17.7409L4.93556 18.0636C5.94835 19.7998 7.52636 20.75 9.18339 20.75C10.8404 20.75 12.4184 19.7998 13.4312 18.0636L13.6225 17.7358C15.0431 17.6235 16.3385 16.8513 17.1111 15.6373C18.2932 13.7799 17.9801 11.3432 16.3668 9.84496L16.3229 9.8042C15.5844 9.11833 15.2208 8.11912 15.3458 7.11901L15.4104 6.60208C15.832 3.22918 13.202 0.25 9.80289 0.25H8.09998ZM5.16917 16.25C5.17819 16.2498 5.18721 16.2498 5.19621 16.25H13.1706C13.1796 16.2498 13.1886 16.2498 13.1976 16.25H13.2623C14.3092 16.25 15.2835 15.7152 15.8456 14.832C16.6391 13.5852 16.4289 11.9497 15.3461 10.9441L15.3022 10.9033C14.2102 9.88919 13.6725 8.41174 13.8574 6.93296L13.922 6.41603C14.2317 3.93841 12.2998 1.75 9.80289 1.75H8.09998C5.60667 1.75 3.67757 3.93526 3.98682 6.40931L4.06618 7.04416C4.24234 8.45345 3.72755 9.86114 2.68379 10.8243C1.74404 11.6915 1.48294 13.0718 2.04102 14.2223L2.14438 14.4353C2.68275 15.5452 3.8079 16.25 5.04147 16.25H5.16917ZM9.18339 19.25C8.26226 19.25 7.27948 18.7877 6.52013 17.75H11.8467C11.0873 18.7877 10.1045 19.25 9.18339 19.25Z" fill="#FD904F"/>
</svg>
