<svg width="22" height="22" viewBox="0 0 22 22" fill="none" xmlns="http://www.w3.org/2000/svg">
<path d="M14 21.75H8C2.57 21.75 0.25 19.43 0.25 14V8C0.25 2.57 2.57 0.25 8 0.25H14C19.43 0.25 21.75 2.57 21.75 8V14C21.75 19.43 19.43 21.75 14 21.75ZM8 1.75C3.39 1.75 1.75 3.39 1.75 8V14C1.75 18.61 3.39 20.25 8 20.25H14C18.61 20.25 20.25 18.61 20.25 14V8C20.25 3.39 18.61 1.75 14 1.75H8Z" fill="white"/>
<path d="M5.89062 21.2295C5.48063 21.2295 5.14062 20.8895 5.14062 20.4795V1.51953C5.14062 1.10953 5.48063 0.769531 5.89062 0.769531C6.30062 0.769531 6.64062 1.09953 6.64062 1.51953V20.4795C6.64062 20.8995 6.30062 21.2295 5.89062 21.2295Z" fill="white"/>
<path d="M15.8906 21.2295C15.4806 21.2295 15.1406 20.8895 15.1406 20.4795V1.51953C15.1406 1.10953 15.4806 0.769531 15.8906 0.769531C16.3006 0.769531 16.6406 1.10953 16.6406 1.51953V20.4795C16.6406 20.8995 16.3006 21.2295 15.8906 21.2295Z" fill="white"/>
<path d="M5.88906 6.71973H1.53906C1.12906 6.71973 0.789062 6.37973 0.789062 5.96973C0.789062 5.55973 1.12906 5.21973 1.53906 5.21973H5.88906C6.29906 5.21973 6.63906 5.55973 6.63906 5.96973C6.63906 6.37973 6.29906 6.71973 5.88906 6.71973Z" fill="white"/>
<path d="M5.8893 11.75H1.0293C0.619297 11.75 0.279297 11.41 0.279297 11C0.279297 10.59 0.619297 10.25 1.0293 10.25H5.8893C6.2993 10.25 6.6393 10.59 6.6393 11C6.6393 11.41 6.2993 11.75 5.8893 11.75Z" fill="white"/>
<path d="M5.89047 16.7197H1.48047C1.07047 16.7197 0.730469 16.3797 0.730469 15.9697C0.730469 15.5597 1.07047 15.2197 1.48047 15.2197H5.89047C6.30047 15.2197 6.64047 15.5597 6.64047 15.9697C6.64047 16.3797 6.30047 16.7197 5.89047 16.7197Z" fill="white"/>
<path d="M20.8891 6.71973H16.5391C16.1291 6.71973 15.7891 6.37973 15.7891 5.96973C15.7891 5.55973 16.1291 5.21973 16.5391 5.21973H20.8891C21.2991 5.21973 21.6391 5.55973 21.6391 5.96973C21.6391 6.37973 21.2991 6.71973 20.8891 6.71973Z" fill="white"/>
<path d="M20.8893 11.75H16.0293C15.6193 11.75 15.2793 11.41 15.2793 11C15.2793 10.59 15.6193 10.25 16.0293 10.25H20.8893C21.2993 10.25 21.6393 10.59 21.6393 11C21.6393 11.41 21.2993 11.75 20.8893 11.75Z" fill="white"/>
<path d="M15.9707 11.75H4.9707C4.5607 11.75 4.2207 11.41 4.2207 11C4.2207 10.59 4.5607 10.25 4.9707 10.25H15.9707C16.3807 10.25 16.7207 10.59 16.7207 11C16.7207 11.41 16.3907 11.75 15.9707 11.75Z" fill="white"/>
<path d="M20.8905 16.7197H16.4805C16.0705 16.7197 15.7305 16.3797 15.7305 15.9697C15.7305 15.5597 16.0705 15.2197 16.4805 15.2197H20.8905C21.3005 15.2197 21.6405 15.5597 21.6405 15.9697C21.6405 16.3797 21.3005 16.7197 20.8905 16.7197Z" fill="white"/>
</svg>
