<svg width="28" height="28" viewBox="0 0 28 28" fill="none" xmlns="http://www.w3.org/2000/svg">
<path d="M7.48639 11.5183C7.57664 11.5183 7.66689 11.5183 7.75714 11.5183C13.2122 11.5183 18.6672 11.5183 24.1223 11.5183C24.2326 11.5183 24.3429 11.5183 24.4432 11.5284C24.6838 11.5585 24.8443 11.6888 24.8844 11.9295C24.9044 12.0298 24.9044 12.13 24.9044 12.2303C24.9044 16.111 24.9044 20.0017 24.9044 23.8825C24.9044 25.1058 24.383 26.0284 23.2699 26.5598C22.929 26.7203 22.5179 26.8105 22.1368 26.8105C20.1614 26.8306 18.1759 26.8206 16.2004 26.8206C15.8194 26.8206 15.5988 26.62 15.5988 26.2991C15.5988 25.9983 15.8294 25.8178 16.2105 25.8178C18.1458 25.8178 20.0912 25.8178 22.0265 25.8178C22.939 25.8178 23.6109 25.3164 23.8415 24.4641C23.8917 24.2735 23.9017 24.063 23.9017 23.8724C23.9017 21.7466 23.9017 19.6307 23.9117 17.5049C23.9117 17.2742 23.8415 17.2141 23.6209 17.2141C17.2734 17.2241 10.9159 17.2141 4.56834 17.2141C4.48812 17.2141 4.4079 17.2141 4.28756 17.2141C4.28756 17.3244 4.28756 17.4046 4.28756 17.4948C4.28756 19.6207 4.28756 21.7365 4.28756 23.8624C4.28756 25.0757 5.02961 25.8178 6.24296 25.8178C8.12816 25.8178 14.0955 25.8178 15.9807 25.8178C16.4219 25.8178 16.6626 25.9883 16.6726 26.2991C16.6827 26.63 16.432 26.8206 15.9707 26.8206C14.0855 26.8206 8.11813 26.8206 6.23293 26.8206C4.46806 26.8206 3.2848 25.6373 3.2848 23.8624C3.2848 20.082 3.2848 16.2915 3.27477 12.5111C3.27477 12.2303 3.22463 11.9495 3.15444 11.6788C2.93383 10.8665 2.68314 10.0643 2.4525 9.25209C2.01128 7.67774 2.82352 6.17359 4.4079 5.72235C8.31869 4.5792 12.2395 3.44607 16.1603 2.31294C17.3837 1.96197 18.6071 1.57089 19.8405 1.26004C21.3747 0.878986 22.7585 1.69123 23.2298 3.19538C23.5206 4.13798 23.7914 5.10063 24.0621 6.05326C24.1724 6.45437 24.032 6.67498 23.5607 6.81536C20.7931 7.61758 18.0154 8.41979 15.2478 9.222C12.7409 9.944 10.234 10.676 7.72705 11.398C7.64683 11.4181 7.56661 11.4481 7.49642 11.4782C7.48639 11.4883 7.48639 11.5083 7.48639 11.5183ZM4.13715 11.378C5.61122 10.9468 7.04517 10.5356 8.51924 10.1044C7.30589 8.95126 6.14268 7.82816 4.96944 6.70506C4.92933 6.67498 4.84911 6.65492 4.79897 6.66495C3.83632 6.8655 3.22463 7.75797 3.3951 8.73065C3.44524 8.99137 3.52546 9.25209 3.59565 9.50278C3.76612 10.1245 3.94662 10.7362 4.13715 11.378ZM17.3937 3.01488C17.4238 3.06502 17.4338 3.08507 17.4539 3.10513C18.587 4.19814 19.7302 5.29116 20.8733 6.38418C20.9335 6.44434 21.0739 6.4644 21.1641 6.44434C21.7056 6.30395 22.2371 6.13348 22.7786 5.98307C22.9089 5.94296 22.9591 5.89282 22.919 5.75243C22.6883 4.96025 22.4778 4.15803 22.217 3.37587C21.9062 2.45333 20.9937 1.99206 20.0511 2.25278C19.3491 2.4433 18.6572 2.65388 17.9653 2.85444C17.7748 2.90457 17.5943 2.96474 17.3937 3.01488ZM4.30762 16.1912C4.99953 16.1912 5.65133 16.1812 6.31315 16.1912C6.50368 16.1912 6.59393 16.1311 6.68418 15.9706C7.29586 14.9077 7.90755 13.8448 8.51924 12.7818C8.55935 12.7116 8.58943 12.6414 8.62954 12.5612C7.17553 12.5612 5.74158 12.5612 4.30762 12.5612C4.30762 13.7746 4.30762 14.9679 4.30762 16.1912ZM19.5597 16.1712C21.0137 16.1712 22.4376 16.1712 23.8616 16.1712C23.8616 14.9578 23.8616 13.7545 23.8616 12.5512C23.1797 12.5512 22.5379 12.5612 21.8861 12.5512C21.7056 12.5512 21.6053 12.6013 21.5151 12.7618C20.9034 13.8347 20.2817 14.8977 19.67 15.9706C19.6299 16.0308 19.5998 16.091 19.5597 16.1712ZM12.2896 9.01142C11.2668 8.02871 10.2941 7.08611 9.31142 6.15354C9.10084 5.95299 8.91032 5.65216 8.65963 5.59199C8.40893 5.53182 8.10811 5.71232 7.82733 5.79254C7.24573 5.96301 6.67415 6.13348 6.00229 6.32401C6.12263 6.40423 6.19282 6.44434 6.24296 6.49448C7.29586 7.49725 8.34877 8.50001 9.38162 9.52283C9.60223 9.73342 9.7727 9.77353 10.0535 9.68328C10.7755 9.44261 11.5075 9.24206 12.2896 9.01142ZM13.5531 4.12795C13.6735 4.22823 13.7537 4.27836 13.8239 4.33853C14.8567 5.32124 15.8896 6.30395 16.9024 7.30672C17.133 7.52733 17.3235 7.59752 17.6244 7.47719C17.8149 7.39697 18.0255 7.35686 18.226 7.30672C18.7475 7.15631 19.2689 6.99586 19.8204 6.83542C19.7703 6.77525 19.7502 6.74517 19.7201 6.71509C18.597 5.6321 17.4739 4.54911 16.3408 3.47615C16.2807 3.41599 16.1503 3.39593 16.06 3.41599C15.7091 3.50623 15.3581 3.61654 15.0071 3.71682C14.5459 3.84718 14.0846 3.97753 13.5531 4.12795ZM9.87297 5.20091C9.85292 5.23099 9.83286 5.26108 9.81281 5.29116C9.89303 5.3413 9.98328 5.37138 10.0434 5.43155C11.0262 6.37415 12.0189 7.29669 12.9816 8.26938C13.3125 8.60029 13.5832 8.70057 14.0345 8.5301C14.6762 8.28943 15.3481 8.12899 16.05 7.92843C15.9798 7.84821 15.9297 7.79808 15.8795 7.74794C14.8968 6.80534 13.8941 5.88279 12.9414 4.91011C12.5905 4.54911 12.2796 4.43881 11.7983 4.61931C11.1766 4.85997 10.5147 5.01038 9.87297 5.20091ZM12.5604 12.5512C12.4601 12.5512 12.3899 12.5412 12.3197 12.5412C11.5777 12.5412 10.8356 12.5512 10.0936 12.5311C9.90306 12.5311 9.81281 12.6013 9.72256 12.7517C9.1209 13.8046 8.50921 14.8576 7.89752 15.9105C7.85741 15.9907 7.8173 16.0709 7.75714 16.1812C7.86744 16.1812 7.93763 16.1812 8.00783 16.1812C8.74988 16.1812 9.49192 16.1712 10.234 16.1812C10.4245 16.1812 10.5147 16.111 10.595 15.9606C11.2067 14.8876 11.8284 13.8247 12.4401 12.7517C12.4902 12.7016 12.5203 12.6414 12.5604 12.5512ZM20.4421 12.5412C19.5697 12.5412 18.7475 12.5412 17.9352 12.5412C17.7647 12.5412 17.6845 12.6013 17.6043 12.7417C16.9826 13.8247 16.3508 14.9077 15.7291 15.9907C15.699 16.0408 15.679 16.101 15.6389 16.1912C16.5313 16.1912 17.3837 16.1912 18.2461 16.1812C18.3163 16.1812 18.4065 16.0809 18.4567 16.0107C18.7876 15.4592 19.0984 14.8977 19.4193 14.3461C19.7402 13.7545 20.0811 13.1729 20.4421 12.5412ZM16.5013 12.5412C15.6289 12.5412 14.8166 12.5512 13.9943 12.5412C13.8239 12.5412 13.7437 12.6013 13.6634 12.7417C13.0517 13.8147 12.43 14.8776 11.8183 15.9506C11.7782 16.0208 11.7481 16.091 11.698 16.1912C12.5504 16.1912 13.3726 16.1812 14.1849 16.1912C14.3654 16.1912 14.4556 16.1311 14.5358 15.9807C15.1475 14.9177 15.7592 13.8548 16.3709 12.7919C16.411 12.7217 16.4411 12.6515 16.5013 12.5412Z" fill="#FFF0DA"/>
<path d="M23.6207 17.2141C17.2732 17.2241 10.9156 17.2141 4.56813 17.2141H4.28735V17.4949C4.28735 19.6208 4.28735 21.7366 4.28735 23.8625C4.28735 25.0758 5.0294 25.8179 6.24275 25.8179C7.76695 25.8179 9.29116 25.8179 10.8154 25.8179H11.9084C11.9184 25.8179 11.9284 25.8179 11.9284 25.8179H16.1401C16.1601 25.8179 16.1902 25.8179 16.2203 25.8179C18.1556 25.8179 20.101 25.8179 22.0363 25.8179C22.9488 25.8179 23.6307 25.3165 23.8513 24.4641C23.9015 24.2736 23.9115 24.063 23.9115 23.8725C23.9115 21.7466 23.9115 19.6308 23.9215 17.5049C23.9215 17.5049 23.8513 17.2141 23.6207 17.2141ZM17.1829 21.9873C15.7991 22.7895 14.4253 23.5817 13.0415 24.3739C12.51 24.6747 12.149 24.4641 12.149 23.8424C12.149 23.0603 12.149 22.2781 12.149 21.4859C12.149 20.6737 12.149 19.8614 12.149 19.0592C12.149 18.4776 12.5301 18.267 13.0315 18.5578C14.4153 19.36 15.8091 20.1623 17.193 20.9645C17.7044 21.2553 17.7044 21.6865 17.1829 21.9873Z" fill="#FFF0DA"/>
<path d="M12.1482 21.4859C12.1482 20.6736 12.1482 19.8614 12.1482 19.0592C12.1482 18.4876 12.5292 18.267 13.0306 18.5578C14.4144 19.36 15.8083 20.1622 17.1921 20.9644C17.7035 21.2653 17.7035 21.6964 17.1821 21.9872C15.7983 22.7895 14.4245 23.5816 13.0407 24.3738C12.5092 24.6747 12.1482 24.4641 12.1482 23.8424C12.1482 23.0602 12.1482 22.278 12.1482 21.4859Z"/>
</svg>
