<svg width="24" height="24" viewBox="0 0 24 24" fill="none" xmlns="http://www.w3.org/2000/svg">
<path d="M12 22.2857C9.96568 22.2857 7.97704 21.6824 6.28556 20.5522C4.59408 19.422 3.27574 17.8156 2.49724 15.9361C1.71874 14.0567 1.51504 11.9885 1.91192 9.99331C2.3088 7.99808 3.28842 6.16534 4.7269 4.72685C6.16538 3.28837 7.99812 2.30875 9.99335 1.91188C11.9886 1.515 14.0567 1.71869 15.9362 2.49719C17.8156 3.27569 19.422 4.59404 20.5523 6.28552C21.6825 7.97699 22.2857 9.96563 22.2857 12C22.2828 14.727 21.1981 17.3415 19.2698 19.2698C17.3415 21.1981 14.727 22.2827 12 22.2857ZM12 3.42852C10.3047 3.42852 8.64753 3.93123 7.23797 4.87307C5.8284 5.81491 4.72978 7.15358 4.08103 8.71981C3.43228 10.286 3.26254 12.0095 3.59327 13.6722C3.924 15.3348 4.74035 16.8621 5.93908 18.0609C7.13782 19.2596 8.6651 20.076 10.3278 20.4067C11.9905 20.7374 13.7139 20.5677 15.2801 19.9189C16.8464 19.2702 18.185 18.1715 19.1269 16.762C20.0687 15.3524 20.5714 13.6952 20.5714 12C20.5689 9.72743 19.6651 7.54871 18.0582 5.94179C16.4512 4.33488 14.2725 3.43102 12 3.42852Z" fill="#C7C5C6"/>
</svg>
