<svg width="18" height="20" viewBox="0 0 18 20" fill="none" xmlns="http://www.w3.org/2000/svg">
<path d="M7.12502 9.99993C7.12502 8.9644 7.96449 8.12493 9.00002 8.12493C10.0356 8.12493 10.875 8.9644 10.875 9.99993C10.875 11.0355 10.0356 11.8749 9.00002 11.8749C7.96449 11.8749 7.12502 11.0355 7.12502 9.99993Z" fill="white"/>
<path fill-rule="evenodd" clip-rule="evenodd" d="M6.15438 2.6935C6.97139 -0.169317 11.0286 -0.169318 11.8456 2.6935C12.0987 3.5805 13.01 4.10664 13.9047 3.88236C16.7925 3.1585 18.8211 6.67212 16.7503 8.81108C16.1087 9.4738 16.1087 10.5261 16.7503 11.1888C18.8211 13.3278 16.7925 16.8414 13.9047 16.1175C13.01 15.8932 12.0987 16.4194 11.8456 17.3064C11.0286 20.1692 6.97139 20.1692 6.15438 17.3064C5.90124 16.4194 4.98995 15.8932 4.09522 16.1175C1.20744 16.8414 -0.821147 13.3278 1.24962 11.1888C1.89122 10.5261 1.89122 9.4738 1.24962 8.81108C-0.821147 6.67212 1.20744 3.1585 4.09522 3.88236C4.98995 4.10664 5.90124 3.5805 6.15438 2.6935ZM9.00002 6.87493C7.27413 6.87493 5.87502 8.27404 5.87502 9.99993C5.87502 11.7258 7.27413 13.1249 9.00002 13.1249C10.7259 13.1249 12.125 11.7258 12.125 9.99993C12.125 8.27404 10.7259 6.87493 9.00002 6.87493Z" fill="white"/>
</svg>
