<svg width="22" height="20" viewBox="0 0 22 20" fill="none" xmlns="http://www.w3.org/2000/svg">
<path d="M1.76803 7.21724C1.64848 7.61383 1.87306 8.03224 2.26965 8.15179C2.66623 8.27135 3.08464 8.04677 3.2042 7.65018L1.76803 7.21724ZM20.2318 12.7832C20.3513 12.3866 20.1267 11.9682 19.7302 11.8486C19.3336 11.7291 18.9152 11.9537 18.7956 12.3502L20.2318 12.7832ZM3.54782 13.2812C3.38072 12.9022 2.938 12.7304 2.55899 12.8975C2.17998 13.0646 2.00819 13.5073 2.17529 13.8863L3.54782 13.2812ZM18.452 6.71924C18.6191 7.09825 19.0618 7.27004 19.4408 7.10294C19.8198 6.93584 19.9916 6.49313 19.8245 6.11412L18.452 6.71924ZM21.4095 4.76273C21.5273 4.36562 21.3009 3.94821 20.9038 3.83043C20.5067 3.71265 20.0892 3.93909 19.9715 4.33621L21.4095 4.76273ZM16.8326 6.02097C16.4366 5.89965 16.0172 6.12236 15.8959 6.51841C15.7745 6.91446 15.9972 7.33386 16.3933 7.45518L16.8326 6.02097ZM19.594 6.92805L20.0294 7.53873L20.0294 7.53873L19.594 6.92805ZM19.2012 7.13888L19.4695 7.83925L19.4695 7.83925L19.2012 7.13888ZM0.540962 15.1481C0.423181 15.5453 0.649626 15.9627 1.04674 16.0804C1.44386 16.1982 1.86126 15.9718 1.97904 15.5747L0.540962 15.1481ZM5.11788 13.8899C5.51393 14.0112 5.93334 13.7885 6.05466 13.3925C6.17598 12.9964 5.95327 12.577 5.55722 12.4557L5.11788 13.8899ZM2.35647 12.9828L1.92107 12.3721L1.92107 12.3721L2.35647 12.9828ZM2.74926 12.772L2.48097 12.0716L2.48096 12.0716L2.74926 12.772ZM13.7829 0.768338C8.68425 -0.768652 3.30502 2.11862 1.76803 7.21724L3.2042 7.65018C4.50208 3.34473 9.04448 0.906616 13.3499 2.2045L13.7829 0.768338ZM8.21694 19.2321C13.3156 20.7691 18.6948 17.8818 20.2318 12.7832L18.7956 12.3502C17.4977 16.6557 12.9553 19.0938 8.64987 17.7959L8.21694 19.2321ZM2.17529 13.8863C3.27158 16.3729 5.40908 18.3856 8.21694 19.2321L8.64987 17.7959C6.27914 17.0813 4.47487 15.3839 3.54782 13.2812L2.17529 13.8863ZM19.8245 6.11412C18.7282 3.62754 16.5907 1.61477 13.7829 0.768338L13.3499 2.2045C15.7207 2.91917 17.5249 4.61652 18.452 6.71924L19.8245 6.11412ZM19.9715 4.33621C19.7662 5.02813 19.6293 5.48599 19.4877 5.8193C19.3521 6.13865 19.2477 6.25386 19.1586 6.31738L20.0294 7.53873C20.4362 7.24871 20.6798 6.84964 20.8684 6.40559C21.051 5.97551 21.2144 5.42084 21.4095 4.76273L19.9715 4.33621ZM16.3933 7.45518C17.0496 7.65624 17.6022 7.82668 18.0615 7.91217C18.5358 8.00045 19.003 8.01796 19.4695 7.83925L18.933 6.43851C18.8308 6.47765 18.6771 6.50098 18.336 6.4375C17.98 6.37124 17.5227 6.23235 16.8326 6.02097L16.3933 7.45518ZM19.1586 6.31738C19.0888 6.36715 19.013 6.40784 18.933 6.43851L19.4695 7.83925C19.6682 7.76317 19.8563 7.6622 20.0294 7.53873L19.1586 6.31738ZM1.97904 15.5747C2.18426 14.8827 2.32124 14.4249 2.46278 14.0916C2.59839 13.7722 2.70279 13.657 2.79187 13.5935L1.92107 12.3721C1.5143 12.6622 1.27066 13.0612 1.0821 13.5053C0.899476 13.9354 0.73615 14.49 0.540962 15.1481L1.97904 15.5747ZM5.55722 12.4557C4.90088 12.2546 4.34835 12.0842 3.88899 11.9987C3.41471 11.9104 2.94748 11.8929 2.48097 12.0716L3.01755 13.4724C3.11972 13.4332 3.27344 13.4099 3.61453 13.4734C3.97054 13.5396 4.42782 13.6785 5.11788 13.8899L5.55722 12.4557ZM2.79187 13.5935C2.86168 13.5437 2.93749 13.503 3.01756 13.4724L2.48096 12.0716C2.28236 12.1477 2.09424 12.2487 1.92107 12.3721L2.79187 13.5935Z" fill="#2B2724"/>
</svg>
