<svg width="12" height="12" viewBox="0 0 12 12" fill="none" xmlns="http://www.w3.org/2000/svg">
<path fill-rule="evenodd" clip-rule="evenodd" d="M3.04283 0.390753C3.1722 0.552476 3.14598 0.788461 2.98426 0.91784L1.73426 1.91784C1.57254 2.04722 1.33655 2.021 1.20717 1.85927C1.0778 1.69755 1.10402 1.46157 1.26574 1.33219L2.51574 0.332188C2.67746 0.202809 2.91345 0.22903 3.04283 0.390753ZM8.95717 0.390753C9.08655 0.22903 9.32254 0.202809 9.48426 0.332188L10.7343 1.33219C10.896 1.46157 10.9222 1.69755 10.7928 1.85927C10.6634 2.021 10.4275 2.04722 10.2657 1.91784L9.01574 0.91784C8.85402 0.788461 8.8278 0.552476 8.95717 0.390753ZM6 1.37501C3.44568 1.37501 1.375 3.4457 1.375 6.00001C1.375 8.55433 3.44568 10.625 6 10.625C8.55432 10.625 10.625 8.55433 10.625 6.00001C10.625 3.4457 8.55432 1.37501 6 1.37501ZM0.625 6.00001C0.625 3.03148 3.03147 0.625014 6 0.625014C8.96853 0.625014 11.375 3.03148 11.375 6.00001C11.375 8.96854 8.96853 11.375 6 11.375C3.03147 11.375 0.625 8.96854 0.625 6.00001ZM6 3.62501C6.20711 3.62501 6.375 3.79291 6.375 4.00001L6.375 5.75001C6.375 5.95712 6.54289 6.12501 6.75 6.12501H7.5C7.70711 6.12501 7.875 6.29291 7.875 6.50001C7.875 6.70712 7.70711 6.87501 7.5 6.87501H6.75C6.12868 6.87501 5.625 6.37133 5.625 5.75001L5.625 4.00001C5.625 3.79291 5.79289 3.62501 6 3.62501Z" fill="white"/>
</svg>
