<svg width="12" height="8" viewBox="0 0 12 8" fill="none" xmlns="http://www.w3.org/2000/svg">
<path fill-rule="evenodd" clip-rule="evenodd" d="M11.6311 0.441232C11.9397 0.717524 11.9659 1.19168 11.6896 1.50028L8.32044 5.26346C7.65144 6.01069 7.092 6.60049 6.62549 7.00653C6.39188 7.20986 6.16057 7.38583 5.93265 7.51397C5.71048 7.63887 5.43626 7.75001 5.13084 7.75001C4.69683 7.75001 4.29496 7.58877 3.95202 7.3891C3.60424 7.18662 3.26228 6.91226 2.93473 6.61248C2.35029 6.07761 1.73513 5.38891 1.14172 4.72456C1.07459 4.6494 1.00773 4.57455 0.941232 4.50028C0.66494 4.19168 0.691134 3.71752 0.999736 3.44123C1.30834 3.16494 1.78249 3.19113 2.05878 3.49974C2.12461 3.57327 2.18994 3.64636 2.25477 3.71891C2.86035 4.39651 3.42253 5.02556 3.94743 5.50594C4.2357 5.76976 4.48861 5.9658 4.70676 6.09281C4.90729 6.20957 5.03675 6.24346 5.10878 6.2491C5.12275 6.24407 5.15163 6.23225 5.19754 6.20644C5.30117 6.14818 5.44598 6.04455 5.6407 5.87508C6.03083 5.53551 6.5368 5.0069 7.20289 4.26292L10.5721 0.499736C10.8484 0.191134 11.3225 0.16494 11.6311 0.441232Z" fill="white"/>
</svg>
