<svg width="18" height="18" viewBox="0 0 18 18" fill="none" xmlns="http://www.w3.org/2000/svg">
<path d="M11.25 12.9375C10.9393 12.9375 10.6875 13.1893 10.6875 13.5C10.6875 13.8107 10.9393 14.0625 11.25 14.0625H15.75C16.0607 14.0625 16.3125 13.8107 16.3125 13.5C16.3125 13.1893 16.0607 12.9375 15.75 12.9375H11.25Z" fill="#5E5E5E"/>
<path d="M4.5 5.0625C4.5 3.09499 6.09499 1.5 8.0625 1.5C10.03 1.5 11.625 3.09499 11.625 5.0625C11.625 7.03001 10.03 8.625 8.0625 8.625C6.09499 8.625 4.5 7.03001 4.5 5.0625Z" fill="#5E5E5E"/>
<path d="M2.25 13.3125C2.25 11.345 3.84499 9.75 5.8125 9.75H10.3125C11.8165 9.75 13.1028 10.682 13.6254 12H11.25C10.4216 12 9.75 12.6716 9.75 13.5C9.75 14.3284 10.4216 15 11.25 15H13.4508C12.8492 16.1163 11.6695 16.875 10.3125 16.875H5.8125C3.84499 16.875 2.25 15.28 2.25 13.3125Z" fill="#5E5E5E"/>
</svg>
