<svg width="34" height="34" viewBox="0 0 34 34" fill="none" xmlns="http://www.w3.org/2000/svg">
  <path fill-rule="evenodd" clip-rule="evenodd"
    d="M6.83682 13.3016L6.8948 13.2047C8.38959 10.7064 9.54877 8.76908 10.5843 7.35474C11.6251 5.93329 12.6337 4.90545 13.8798 4.37011C15.867 3.51638 18.1339 3.51638 20.1211 4.37011C21.3672 4.90545 22.3758 5.93329 23.4166 7.35474C24.4521 8.7691 25.6113 10.7065 27.1062 13.2048L27.1641 13.3016C28.6585 15.7993 29.8178 17.7368 30.5696 19.3098C31.3235 20.8871 31.7493 22.2561 31.6042 23.5878C31.3736 25.705 30.2239 27.617 28.4577 28.8552C27.3542 29.6288 25.9337 29.9554 24.1462 30.1136C22.3624 30.2715 20.0471 30.2715 17.0543 30.2715L16.9466 30.2715C13.9539 30.2715 11.6385 30.2715 9.85475 30.1136C8.06724 29.9554 6.64668 29.6288 5.54321 28.8552C3.77698 27.617 2.62731 25.705 2.39669 23.5878C2.25164 22.2561 2.67744 20.8871 3.43127 19.3098C4.18309 17.7368 5.34237 15.7993 6.83682 13.3016ZM5.27335 20.1902C4.56478 21.6728 4.34447 22.6149 4.42635 23.3667C4.59161 24.8839 5.41746 26.2736 6.71522 27.1834C7.36814 27.6412 8.34491 27.9303 10.0348 28.0799C11.7178 28.2289 13.9427 28.2298 17.0005 28.2298C20.0582 28.2298 22.2831 28.2289 23.9661 28.0799C25.656 27.9303 26.6328 27.6412 27.2857 27.1834C28.5834 26.2736 29.4093 24.8839 29.5746 23.3667C29.6564 22.6149 29.4361 21.6728 28.7276 20.1902C28.0219 18.7137 26.9126 16.8578 25.3829 14.3011C23.8533 11.7447 22.742 9.88945 21.7693 8.56089C20.7951 7.23038 20.0524 6.56271 19.3152 6.24599C17.8425 5.61331 16.1584 5.61331 14.6857 6.24599C13.9485 6.56271 13.2058 7.23038 12.2316 8.56089C11.2589 9.88945 10.1476 11.7447 8.61801 14.3011C7.08828 16.8577 5.97905 18.7137 5.27335 20.1902Z"
    fill="#2B2724" />
  <path fill-rule="evenodd" clip-rule="evenodd"
    d="M17 11.8965C17.5638 11.8965 18.0209 12.3535 18.0209 12.9173V19.0423C18.0209 19.6061 17.5638 20.0632 17 20.0632C16.4362 20.0632 15.9792 19.6061 15.9792 19.0423V12.9173C15.9792 12.3535 16.4362 11.8965 17 11.8965Z"
    fill="#2B2724" />
  <path
    d="M18.3616 22.4451C18.3616 23.1968 17.7522 23.8062 17.0005 23.8062C16.2487 23.8062 15.6393 23.1968 15.6393 22.4451C15.6393 21.6934 16.2487 21.084 17.0005 21.084C17.7522 21.084 18.3616 21.6934 18.3616 22.4451Z"
    fill="#2B2724" />
</svg>