<svg width="25" height="24" viewBox="0 0 25 24" fill="none" xmlns="http://www.w3.org/2000/svg">
<path d="M21.5 13V11C21.5 7.25027 21.5 5.3754 20.5451 4.06107C20.2367 3.6366 19.8634 3.26331 19.4389 2.95491C18.1246 2 16.2497 2 12.5 2C8.75027 2 6.8754 2 5.56107 2.95491C5.1366 3.26331 4.76331 3.6366 4.45491 4.06107C3.5 5.3754 3.5 7.25027 3.5 11V13C3.5 16.7497 3.5 18.6246 4.45491 19.9389C4.76331 20.3634 5.1366 20.7367 5.56107 21.0451C6.8754 22 8.75027 22 12.5 22C16.2497 22 18.1246 22 19.4389 21.0451C19.8634 20.7367 20.2367 20.3634 20.5451 19.9389C21.5 18.6246 21.5 16.7497 21.5 13Z" fill="white"/>
<path d="M5.56107 21.0451L6.00191 20.4383H6.00191L5.56107 21.0451ZM4.45491 19.9389L3.84815 20.3798H3.84815L4.45491 19.9389ZM20.5451 19.9389L19.9383 19.4981H19.9383L20.5451 19.9389ZM19.4389 21.0451L18.9981 20.4383H18.9981L19.4389 21.0451ZM19.4389 2.95491L19.8798 2.34815L19.4389 2.95491ZM20.5451 4.06107L19.9383 4.50191V4.50191L20.5451 4.06107ZM5.56107 2.95491L5.12023 2.34815L5.12023 2.34815L5.56107 2.95491ZM4.45491 4.06107L3.84815 3.62023L3.84815 3.62023L4.45491 4.06107ZM20.75 11V13H22.25V11H20.75ZM4.25 13V11H2.75V13H4.25ZM12.5 21.25C10.6084 21.25 9.24999 21.249 8.19804 21.135C7.16013 21.0225 6.50992 20.8074 6.00191 20.4383L5.12024 21.6518C5.92656 22.2377 6.87094 22.5 8.03648 22.6263C9.18798 22.751 10.6418 22.75 12.5 22.75V21.25ZM2.75 13C2.75 14.8582 2.74897 16.312 2.87373 17.4635C3.00001 18.6291 3.26232 19.5734 3.84815 20.3798L5.06168 19.4981C4.69259 18.9901 4.47745 18.3399 4.365 17.302C4.25103 16.25 4.25 14.8916 4.25 13H2.75ZM6.00191 20.4383C5.64111 20.1762 5.32382 19.8589 5.06168 19.4981L3.84815 20.3798C4.20281 20.8679 4.63209 21.2972 5.12024 21.6518L6.00191 20.4383ZM20.75 13C20.75 14.8916 20.749 16.25 20.635 17.302C20.5225 18.3399 20.3074 18.9901 19.9383 19.4981L21.1518 20.3798C21.7377 19.5734 22 18.6291 22.1263 17.4635C22.251 16.312 22.25 14.8582 22.25 13H20.75ZM12.5 22.75C14.3582 22.75 15.812 22.751 16.9635 22.6263C18.1291 22.5 19.0734 22.2377 19.8798 21.6518L18.9981 20.4383C18.4901 20.8074 17.8399 21.0225 16.802 21.135C15.75 21.249 14.3916 21.25 12.5 21.25V22.75ZM19.9383 19.4981C19.6762 19.8589 19.3589 20.1762 18.9981 20.4383L19.8798 21.6518C20.3679 21.2972 20.7972 20.8679 21.1518 20.3798L19.9383 19.4981ZM12.5 2.75C14.3916 2.75 15.75 2.75103 16.802 2.865C17.8399 2.97745 18.4901 3.19259 18.9981 3.56168L19.8798 2.34815C19.0734 1.76232 18.1291 1.50001 16.9635 1.37373C15.812 1.24897 14.3582 1.25 12.5 1.25V2.75ZM22.25 11C22.25 9.14184 22.251 7.68798 22.1263 6.53648C22 5.37094 21.7377 4.42656 21.1518 3.62024L19.9383 4.50191C20.3074 5.00992 20.5225 5.66013 20.635 6.69804C20.749 7.74999 20.75 9.10843 20.75 11H22.25ZM18.9981 3.56168C19.3589 3.82382 19.6762 4.14111 19.9383 4.50191L21.1518 3.62024C20.7972 3.13209 20.3679 2.70281 19.8798 2.34815L18.9981 3.56168ZM12.5 1.25C10.6418 1.25 9.18798 1.24897 8.03648 1.37373C6.87094 1.50001 5.92656 1.76232 5.12023 2.34815L6.00191 3.56168C6.50992 3.19259 7.16013 2.97745 8.19804 2.865C9.24999 2.75103 10.6084 2.75 12.5 2.75V1.25ZM4.25 11C4.25 9.10843 4.25103 7.74999 4.365 6.69804C4.47745 5.66013 4.69259 5.00992 5.06168 4.50191L3.84815 3.62023C3.26232 4.42656 3.00001 5.37094 2.87373 6.53648C2.74897 7.68798 2.75 9.14184 2.75 11H4.25ZM5.12023 2.34815C4.63209 2.70281 4.20281 3.13209 3.84815 3.62023L5.06168 4.50191C5.32382 4.14111 5.64111 3.82382 6.00191 3.56168L5.12023 2.34815Z" fill="white"/>
<path d="M7.7 6H9.3C9.41046 6 9.5 6.08954 9.5 6.2V7.8C9.5 7.91046 9.41046 8 9.3 8H7.7C7.58954 8 7.5 7.91046 7.5 7.8V6.2C7.5 6.08954 7.58954 6 7.7 6Z" fill="#1C1C1E" stroke="#1C1C1E" stroke-width="1.5" stroke-linecap="round"/>
<path d="M7.7 11H9.3C9.41046 11 9.5 11.0895 9.5 11.2V12.8C9.5 12.9105 9.41046 13 9.3 13H7.7C7.58954 13 7.5 12.9105 7.5 12.8V11.2C7.5 11.0895 7.58954 11 7.7 11Z" fill="#1C1C1E" stroke="#1C1C1E" stroke-width="1.5" stroke-linecap="round"/>
<path d="M7.7 16H9.3C9.41046 16 9.5 16.0895 9.5 16.2V17.8C9.5 17.9105 9.41046 18 9.3 18H7.7C7.58954 18 7.5 17.9105 7.5 17.8V16.2C7.5 16.0895 7.58954 16 7.7 16Z" fill="#1C1C1E" stroke="#1C1C1E" stroke-width="1.5" stroke-linecap="round"/>
<path d="M12.5 6.25C12.0858 6.25 11.75 6.58579 11.75 7C11.75 7.41421 12.0858 7.75 12.5 7.75V6.25ZM17.5 7.75C17.9142 7.75 18.25 7.41421 18.25 7C18.25 6.58579 17.9142 6.25 17.5 6.25V7.75ZM12.5 11.25C12.0858 11.25 11.75 11.5858 11.75 12C11.75 12.4142 12.0858 12.75 12.5 12.75V11.25ZM17.5 12.75C17.9142 12.75 18.25 12.4142 18.25 12C18.25 11.5858 17.9142 11.25 17.5 11.25V12.75ZM12.5 16.25C12.0858 16.25 11.75 16.5858 11.75 17C11.75 17.4142 12.0858 17.75 12.5 17.75V16.25ZM17.5 17.75C17.9142 17.75 18.25 17.4142 18.25 17C18.25 16.5858 17.9142 16.25 17.5 16.25V17.75ZM12.5 7.75H17.5V6.25H12.5V7.75ZM12.5 12.75H17.5V11.25H12.5V12.75ZM12.5 17.75H17.5V16.25H12.5V17.75Z" fill="#1C1C1E"/>
</svg>
