<svg width="25" height="24" viewBox="0 0 25 24" fill="none" xmlns="http://www.w3.org/2000/svg">
<path d="M5.56107 21.0451L6.00191 20.4383L5.56107 21.0451ZM4.45491 19.9389L5.06168 19.4981L4.45491 19.9389ZM20.5451 19.9389L19.9383 19.4981L20.5451 19.9389ZM19.4389 21.0451L18.9981 20.4383L19.4389 21.0451ZM19.4389 2.95491L18.9981 3.56168L19.4389 2.95491ZM20.5451 4.06107L19.9383 4.50191L20.5451 4.06107ZM5.56107 2.95491L6.00191 3.56168L5.56107 2.95491ZM4.45491 4.06107L5.06168 4.50191L4.45491 4.06107ZM12.5 6.25C12.0858 6.25 11.75 6.58579 11.75 7C11.75 7.41421 12.0858 7.75 12.5 7.75V6.25ZM17.5 7.75C17.9142 7.75 18.25 7.41421 18.25 7C18.25 6.58579 17.9142 6.25 17.5 6.25V7.75ZM12.5 11.25C12.0858 11.25 11.75 11.5858 11.75 12C11.75 12.4142 12.0858 12.75 12.5 12.75V11.25ZM17.5 12.75C17.9142 12.75 18.25 12.4142 18.25 12C18.25 11.5858 17.9142 11.25 17.5 11.25V12.75ZM12.5 16.25C12.0858 16.25 11.75 16.5858 11.75 17C11.75 17.4142 12.0858 17.75 12.5 17.75V16.25ZM17.5 17.75C17.9142 17.75 18.25 17.4142 18.25 17C18.25 16.5858 17.9142 16.25 17.5 16.25V17.75ZM20.75 11V13H22.25V11H20.75ZM4.25 13V11H2.75V13H4.25ZM12.5 21.25C10.6084 21.25 9.24999 21.249 8.19804 21.135C7.16013 21.0225 6.50992 20.8074 6.00191 20.4383L5.12023 21.6518C5.92656 22.2377 6.87094 22.5 8.03648 22.6263C9.18798 22.751 10.6418 22.75 12.5 22.75V21.25ZM2.75 13C2.75 14.8582 2.74897 16.312 2.87373 17.4635C3.00001 18.6291 3.26232 19.5734 3.84815 20.3798L5.06168 19.4981C4.69259 18.9901 4.47745 18.3399 4.365 17.302C4.25103 16.25 4.25 14.8916 4.25 13H2.75ZM6.00191 20.4383C5.64111 20.1762 5.32382 19.8589 5.06168 19.4981L3.84815 20.3798C4.20281 20.8679 4.63209 21.2972 5.12023 21.6518L6.00191 20.4383ZM20.75 13C20.75 14.8916 20.749 16.25 20.635 17.302C20.5225 18.3399 20.3074 18.9901 19.9383 19.4981L21.1518 20.3798C21.7377 19.5734 22 18.6291 22.1263 17.4635C22.251 16.312 22.25 14.8582 22.25 13H20.75ZM12.5 22.75C14.3582 22.75 15.812 22.751 16.9635 22.6263C18.1291 22.5 19.0734 22.2377 19.8798 21.6518L18.9981 20.4383C18.4901 20.8074 17.8399 21.0225 16.802 21.135C15.75 21.249 14.3916 21.25 12.5 21.25V22.75ZM19.9383 19.4981C19.6762 19.8589 19.3589 20.1762 18.9981 20.4383L19.8798 21.6518C20.3679 21.2972 20.7972 20.8679 21.1518 20.3798L19.9383 19.4981ZM12.5 2.75C14.3916 2.75 15.75 2.75103 16.802 2.865C17.8399 2.97745 18.4901 3.19259 18.9981 3.56168L19.8798 2.34815C19.0734 1.76232 18.1291 1.50001 16.9635 1.37373C15.812 1.24897 14.3582 1.25 12.5 1.25V2.75ZM22.25 11C22.25 9.14184 22.251 7.68798 22.1263 6.53648C22 5.37094 21.7377 4.42656 21.1518 3.62023L19.9383 4.50191C20.3074 5.00992 20.5225 5.66013 20.635 6.69804C20.749 7.74999 20.75 9.10843 20.75 11H22.25ZM18.9981 3.56168C19.3589 3.82382 19.6762 4.14111 19.9383 4.50191L21.1518 3.62023C20.7972 3.13209 20.3679 2.70281 19.8798 2.34815L18.9981 3.56168ZM12.5 1.25C10.6418 1.25 9.18798 1.24897 8.03648 1.37373C6.87094 1.50001 5.92656 1.76232 5.12023 2.34815L6.00191 3.56168C6.50992 3.19259 7.16013 2.97745 8.19804 2.865C9.24999 2.75103 10.6084 2.75 12.5 2.75V1.25ZM4.25 11C4.25 9.10843 4.25103 7.74999 4.365 6.69804C4.47745 5.66013 4.69259 5.00992 5.06168 4.50191L3.84815 3.62023C3.26232 4.42656 3.00001 5.37094 2.87373 6.53648C2.74897 7.68798 2.75 9.14184 2.75 11H4.25ZM5.12023 2.34815C4.63209 2.70281 4.20281 3.13209 3.84815 3.62023L5.06168 4.50191C5.32382 4.14111 5.64111 3.82382 6.00191 3.56168L5.12023 2.34815ZM12.5 7.75H17.5V6.25H12.5V7.75ZM12.5 12.75H17.5V11.25H12.5V12.75ZM12.5 17.75H17.5V16.25H12.5V17.75Z" fill="#8C8C8C"/>
<path d="M9.3 5.25H7.7V6.75H9.3V5.25ZM8.75 6.2V7.8H10.25V6.2H8.75ZM9.3 7.25H7.7V8.75H9.3V7.25ZM8.25 7.8V6.2H6.75V7.8H8.25ZM7.7 7.25C8.00376 7.25 8.25 7.49624 8.25 7.8H6.75C6.75 8.32467 7.17533 8.75 7.7 8.75V7.25ZM8.75 7.8C8.75 7.49624 8.99624 7.25 9.3 7.25V8.75C9.82467 8.75 10.25 8.32467 10.25 7.8H8.75ZM7.7 5.25C7.17533 5.25 6.75 5.67533 6.75 6.2H8.25C8.25 6.50376 8.00376 6.75 7.7 6.75V5.25ZM9.3 6.75C8.99624 6.75 8.75 6.50376 8.75 6.2H10.25C10.25 5.67533 9.82467 5.25 9.3 5.25V6.75Z" fill="#8C8C8C"/>
<path d="M9.3 10.25H7.7V11.75H9.3V10.25ZM8.75 11.2V12.8H10.25V11.2H8.75ZM9.3 12.25H7.7V13.75H9.3V12.25ZM8.25 12.8V11.2H6.75V12.8H8.25ZM7.7 12.25C8.00376 12.25 8.25 12.4962 8.25 12.8H6.75C6.75 13.3247 7.17533 13.75 7.7 13.75V12.25ZM8.75 12.8C8.75 12.4962 8.99624 12.25 9.3 12.25V13.75C9.82467 13.75 10.25 13.3247 10.25 12.8H8.75ZM7.7 10.25C7.17533 10.25 6.75 10.6753 6.75 11.2H8.25C8.25 11.5038 8.00376 11.75 7.7 11.75V10.25ZM9.3 11.75C8.99624 11.75 8.75 11.5038 8.75 11.2H10.25C10.25 10.6753 9.82467 10.25 9.3 10.25V11.75Z" fill="#8C8C8C"/>
<path d="M9.3 15.25H7.7V16.75H9.3V15.25ZM8.75 16.2V17.8H10.25V16.2H8.75ZM9.3 17.25H7.7V18.75H9.3V17.25ZM8.25 17.8V16.2H6.75V17.8H8.25ZM7.7 17.25C8.00376 17.25 8.25 17.4962 8.25 17.8H6.75C6.75 18.3247 7.17533 18.75 7.7 18.75V17.25ZM8.75 17.8C8.75 17.4962 8.99624 17.25 9.3 17.25V18.75C9.82467 18.75 10.25 18.3247 10.25 17.8H8.75ZM7.7 15.25C7.17533 15.25 6.75 15.6753 6.75 16.2H8.25C8.25 16.5038 8.00376 16.75 7.7 16.75V15.25ZM9.3 16.75C8.99624 16.75 8.75 16.5038 8.75 16.2H10.25C10.25 15.6753 9.82467 15.25 9.3 15.25V16.75Z" fill="#8C8C8C"/>
</svg>
