<svg width="32" height="32" viewBox="0 0 32 32" fill="none" xmlns="http://www.w3.org/2000/svg">
<path d="M6.7481 26.7268L7.18894 26.12L6.7481 26.7268ZM5.27322 25.2519L4.66646 25.6927L5.27322 25.2519ZM26.7268 25.2519L26.12 24.8111L26.7268 25.2519ZM25.2519 26.7268L24.8111 26.12L25.2519 26.7268ZM25.2519 5.27322L24.8111 5.87998L25.2519 5.27322ZM26.7268 6.7481L26.12 7.18894L26.7268 6.7481ZM6.7481 5.27322L7.18894 5.87998L6.7481 5.27322ZM5.27322 6.7481L5.87998 7.18894L5.27322 6.7481ZM5.6262 24.7476L4.95538 24.4122L4.95538 24.4122L5.6262 24.7476ZM15.3333 20L15.5574 19.2842L15.5194 19.2724L15.4804 19.2646L15.3333 20ZM12.2108 19.5373L12.2267 20.2872L12.2108 19.5373ZM7.17805 21.9988L6.59594 21.5258L7.17805 21.9988ZM15.5636 21.0285L14.9107 20.6595L15.5636 21.0285ZM11.3471 26.9643C11.1433 27.3249 11.2704 27.7824 11.631 27.9863C11.9916 28.1901 12.4491 28.063 12.6529 27.7024L11.3471 26.9643ZM26.0142 17.4802L26.4484 16.8687L26.0142 17.4802ZM16.981 18.7115L16.399 18.2385L16.981 18.7115ZM5.47977 25.0405L6.1252 25.4224L6.13872 25.3996L6.15059 25.3759L5.47977 25.0405ZM11.25 12C11.25 13.887 12.7797 15.4167 14.6667 15.4167V13.9167C13.6081 13.9167 12.75 13.0585 12.75 12H11.25ZM14.6667 15.4167C16.5536 15.4167 18.0833 13.887 18.0833 12H16.5833C16.5833 13.0585 15.7252 13.9167 14.6667 13.9167V15.4167ZM18.0833 12C18.0833 10.113 16.5536 8.58333 14.6667 8.58333V10.0833C15.7252 10.0833 16.5833 10.9415 16.5833 12H18.0833ZM14.6667 8.58333C12.7797 8.58333 11.25 10.113 11.25 12H12.75C12.75 10.9415 13.6081 10.0833 14.6667 10.0833V8.58333ZM16 27.25C13.4835 27.25 11.6563 27.249 10.2371 27.0952C8.83198 26.943 7.916 26.6483 7.18894 26.12L6.30726 27.3335C7.33264 28.0785 8.54278 28.4204 10.0756 28.5865C11.5943 28.751 13.5169 28.75 16 28.75V27.25ZM3.25 16C3.25 18.4831 3.24897 20.4057 3.41352 21.9244C3.57958 23.4572 3.92148 24.6674 4.66646 25.6927L5.87998 24.8111C5.35174 24.084 5.05703 23.168 4.90479 21.7629C4.75103 20.3437 4.75 18.5165 4.75 16H3.25ZM16 28.75C18.4831 28.75 20.4057 28.751 21.9244 28.5865C23.4572 28.4204 24.6674 28.0785 25.6927 27.3335L24.8111 26.12C24.084 26.6483 23.168 26.943 21.7629 27.0952C20.3437 27.249 18.5165 27.25 16 27.25V28.75ZM26.12 24.8111C25.7551 25.3134 25.3134 25.7551 24.8111 26.12L25.6927 27.3335C26.3224 26.8761 26.8761 26.3224 27.3335 25.6927L26.12 24.8111ZM16 4.75C18.5165 4.75 20.3437 4.75103 21.7629 4.90479C23.168 5.05703 24.084 5.35174 24.8111 5.87998L25.6927 4.66646C24.6674 3.92148 23.4572 3.57958 21.9244 3.41352C20.4057 3.24897 18.4831 3.25 16 3.25V4.75ZM28.75 16C28.75 13.5169 28.751 11.5943 28.5865 10.0756C28.4204 8.54278 28.0785 7.33264 27.3335 6.30726L26.12 7.18894C26.6483 7.916 26.943 8.83198 27.0952 10.2371C27.249 11.6563 27.25 13.4835 27.25 16H28.75ZM24.8111 5.87998C25.3134 6.24492 25.7551 6.68664 26.12 7.18894L27.3335 6.30726C26.8761 5.67762 26.3224 5.12391 25.6927 4.66646L24.8111 5.87998ZM16 3.25C13.5169 3.25 11.5943 3.24897 10.0756 3.41352C8.54278 3.57958 7.33264 3.92148 6.30726 4.66646L7.18894 5.87998C7.916 5.35174 8.83198 5.05703 10.2371 4.90479C11.6563 4.75103 13.4835 4.75 16 4.75V3.25ZM4.75 16C4.75 13.4835 4.75103 11.6563 4.90479 10.2371C5.05703 8.83198 5.35174 7.916 5.87998 7.18894L4.66646 6.30726C3.92148 7.33264 3.57958 8.54278 3.41352 10.0756C3.24897 11.5943 3.25 13.5169 3.25 16H4.75ZM6.30726 4.66646C5.67762 5.12391 5.12391 5.67762 4.66646 6.30726L5.87998 7.18894C6.24492 6.68664 6.68664 6.24492 7.18894 5.87998L6.30726 4.66646ZM15.4804 19.2646C13.9227 18.953 13.0287 18.7698 12.1949 18.7875L12.2267 20.2872C12.8559 20.2738 13.556 20.4094 15.1862 20.7354L15.4804 19.2646ZM6.29702 25.083C7.04054 23.596 7.36334 22.9601 7.76015 22.4717L6.59594 21.5258C6.07002 22.1732 5.66583 22.9913 4.95538 24.4122L6.29702 25.083ZM12.1949 18.7875C10.017 18.8337 7.96954 19.8351 6.59594 21.5258L7.76015 22.4717C8.85594 21.1229 10.4893 20.3241 12.2267 20.2872L12.1949 18.7875ZM14.9107 20.6595L11.3471 26.9643L12.6529 27.7024L16.2165 21.3976L14.9107 20.6595ZM26.4484 16.8687C23.261 14.6056 18.8643 15.2049 16.399 18.2385L17.563 19.1845C19.5298 16.7645 23.0372 16.2864 25.58 18.0917L26.4484 16.8687ZM16.2165 21.3976C16.3897 21.0911 16.5406 20.8242 16.6753 20.5885L15.3732 19.844C15.2362 20.0836 15.0833 20.354 14.9107 20.6595L16.2165 21.3976ZM16.6753 20.5885C17.1001 19.8457 17.3398 19.4592 17.563 19.1845L16.399 18.2385C16.087 18.6224 15.7908 19.1136 15.3732 19.844L16.6753 20.5885ZM15.1093 20.7158L15.8002 20.932L16.2483 19.5005L15.5574 19.2842L15.1093 20.7158ZM28.5103 18.783C27.5283 17.801 26.9679 17.2375 26.4484 16.8687L25.58 18.0917C25.9697 18.3685 26.4207 18.8147 27.4497 19.8437L28.5103 18.783ZM27.25 16C27.25 17.2543 27.25 18.3411 27.2302 19.2978L28.7298 19.3289C28.75 18.3535 28.75 17.2498 28.75 16H27.25ZM27.2302 19.2978C27.17 22.2038 26.9203 23.7096 26.12 24.8111L27.3335 25.6927C28.442 24.1671 28.6703 22.2058 28.7298 19.3289L27.2302 19.2978ZM4.95538 24.4122L4.80895 24.7051L6.15059 25.3759L6.29702 25.083L4.95538 24.4122ZM7.18894 26.12C6.70487 25.7683 6.27706 25.3453 5.92002 24.8655L4.71664 25.761C5.1642 26.3624 5.70047 26.8927 6.30726 27.3335L7.18894 26.12ZM5.92002 24.8655C5.90657 24.8474 5.89323 24.8293 5.87998 24.8111L4.66646 25.6927C4.68306 25.7156 4.69978 25.7383 4.71664 25.761L5.92002 24.8655ZM4.83433 24.6585L4.67289 24.9313L5.96377 25.6952L6.1252 25.4224L4.83433 24.6585Z" fill="#2B2724"/>
</svg>
