<svg width="24" height="24" viewBox="0 0 24 24" fill="none" xmlns="http://www.w3.org/2000/svg">
  <defs>
    <linearGradient id="paint0_linear_4710_28275" x1="12" y1="21.9418" x2="12" y2="2.15534"
      gradientUnits="userSpaceOnUse">
      <stop stop-color="#E09B3D" />
      <stop offset="0.3" stop-color="#C74C4D" />
      <stop offset="0.6" stop-color="#C21975" />
      <stop offset="1" stop-color="#7024C4" />
    </linearGradient>
    <linearGradient id="paint1_linear_4710_28275" x1="12.0002" y1="21.9416" x2="12.0002" y2="2.1552"
      gradientUnits="userSpaceOnUse">
      <stop stop-color="#E09B3D" />
      <stop offset="0.3" stop-color="#C74C4D" />
      <stop offset="0.6" stop-color="#C21975" />
      <stop offset="1" stop-color="#7024C4" />
    </linearGradient>
    <linearGradient id="paint2_linear_4710_28275" x1="17.1826" y1="21.9419" x2="17.1826" y2="2.15542"
      gradientUnits="userSpaceOnUse">
      <stop stop-color="#E09B3D" />
      <stop offset="0.3" stop-color="#C74C4D" />
      <stop offset="0.6" stop-color="#C21975" />
      <stop offset="1" stop-color="#7024C4" />
    </linearGradient>
  </defs>
  <path
    d="M16.0419 2H7.95811C4.67279 2 2 4.67279 2 7.95811V16.0419C2 19.3272 4.67279 22 7.95811 22H16.0419C19.3272 22 22 19.3272 22 16.0419V7.95811C22 4.67279 19.3272 2 16.0419 2ZM19.988 16.0419C19.988 18.2213 18.2213 19.988 16.0419 19.988H7.95811C5.77875 19.988 4.012 18.2213 4.012 16.0419V7.95811C4.012 5.77871 5.77875 4.012 7.95811 4.012H16.0419C18.2213 4.012 19.988 5.77871 19.988 7.95811V16.0419Z"
    fill="url(#paint0_linear_4710_28275)" />
  <path
    d="M12.0002 6.82715C9.14799 6.82715 6.82751 9.14762 6.82751 11.9998C6.82751 14.852 9.14799 17.1725 12.0002 17.1725C14.8525 17.1725 17.1729 14.8521 17.1729 11.9998C17.1729 9.14759 14.8525 6.82715 12.0002 6.82715ZM12.0002 15.1606C10.2546 15.1606 8.83951 13.7455 8.83951 11.9999C8.83951 10.2542 10.2546 8.83915 12.0002 8.83915C13.7459 8.83915 15.1609 10.2542 15.1609 11.9999C15.1609 13.7455 13.7458 15.1606 12.0002 15.1606Z"
    fill="url(#paint1_linear_4710_28275)" />
  <path
    d="M17.1826 8.10568C17.8672 8.10568 18.4221 7.55075 18.4221 6.8662C18.4221 6.18165 17.8672 5.62671 17.1826 5.62671C16.4981 5.62671 15.9431 6.18165 15.9431 6.8662C15.9431 7.55075 16.4981 8.10568 17.1826 8.10568Z"
    fill="url(#paint2_linear_4710_28275)" />
</svg>