<svg width="24" height="24" viewBox="0 0 24 24" fill="none" xmlns="http://www.w3.org/2000/svg">
<path d="M3 18.001V12V5.69388C3 4.77997 3 4.32301 3.14405 3.97049C3.28702 3.62059 3.52656 3.33827 3.82344 3.16977C4.12256 3 4.51027 3 5.28571 3H8.5C9.5 3 10.2825 4.55147 10.6399 5.42621L10.6493 5.44925C10.9885 6.27918 11.7036 6.99842 12.6002 7.00325C14.5442 7.01372 16.9702 7.05793 17.5451 7.24472C19.0673 7.73931 20.2607 8.93273 20.7553 10.4549C21 11.2081 21 12.1387 21 14L21 17.9998C21.0001 19.6569 19.6567 21 17.9997 21H6C4.34315 21 3 19.6579 3 18.001Z" fill="#2B2724"/>
<path d="M21 14H20.25V14L21 14ZM21 17.9998L20.25 17.9998V17.9998L21 17.9998ZM12.6002 7.00325L12.5961 7.75324H12.5961L12.6002 7.00325ZM17.5451 7.24472L17.7768 6.53143L17.5451 7.24472ZM20.7553 10.4549L21.4686 10.2232V10.2232L20.7553 10.4549ZM10.6399 5.42621L9.94561 5.7099L9.94564 5.70997L10.6399 5.42621ZM3.82344 3.16977L4.19365 3.82203L4.19365 3.82203L3.82344 3.16977ZM3.14405 3.97049L2.44977 3.6868L2.44977 3.6868L3.14405 3.97049ZM10.6493 5.44925L9.95505 5.73301L9.95506 5.73303L10.6493 5.44925ZM2.25 12V18.001H3.75V12H2.25ZM20.25 14L20.25 17.9998L21.75 17.9998L21.75 14L20.25 14ZM12.5961 7.75324C13.566 7.75846 14.6485 7.77209 15.557 7.8073C16.0119 7.82493 16.4155 7.84769 16.7359 7.87662C17.0808 7.90776 17.2605 7.94084 17.3133 7.95801L17.7768 6.53143C17.5423 6.45521 17.2032 6.41271 16.8707 6.3827C16.5138 6.35048 16.0816 6.32651 15.6151 6.30843C14.681 6.27222 13.5784 6.2585 12.6042 6.25326L12.5961 7.75324ZM21.75 14C21.75 12.1971 21.7593 11.1178 21.4686 10.2232L20.042 10.6867C20.2407 11.2984 20.25 12.0803 20.25 14H21.75ZM17.3133 7.95801C18.6072 8.37841 19.6216 9.39282 20.042 10.6867L21.4686 10.2232C20.8998 8.47263 19.5274 7.1002 17.7768 6.53143L17.3133 7.95801ZM3.75 12V5.69388H2.25V12H3.75ZM5.28571 3.75H8.5V2.25H5.28571V3.75ZM8.5 3.75C8.61215 3.75 8.86132 3.8593 9.20649 4.32913C9.51863 4.75398 9.77625 5.29541 9.94561 5.7099L11.3342 5.14253C11.1461 4.68227 10.8338 4.01059 10.4153 3.44102C10.0299 2.91643 9.38785 2.25 8.5 2.25V3.75ZM5.28571 2.25C4.91184 2.25 4.58086 2.24927 4.30742 2.27436C4.02191 2.30056 3.73205 2.35926 3.45323 2.51751L4.19365 3.82203C4.21395 3.81051 4.26751 3.78432 4.44449 3.76808C4.63355 3.75073 4.88415 3.75 5.28571 3.75V2.25ZM3.75 5.69388C3.75 5.22692 3.75038 4.91317 3.76637 4.6711C3.78201 4.4345 3.81005 4.32337 3.83832 4.25417L2.44977 3.6868C2.334 3.97013 2.29002 4.26374 2.26964 4.57222C2.24962 4.87524 2.25 5.24692 2.25 5.69388H3.75ZM3.45324 2.51751C2.99425 2.77801 2.64914 3.19887 2.44977 3.6868L3.83832 4.25417C3.9249 4.0423 4.05887 3.89853 4.19365 3.82203L3.45324 2.51751ZM11.3436 5.16549L11.3341 5.14246L9.94564 5.70997L9.95505 5.73301L11.3436 5.16549ZM12.6042 6.25326C12.1339 6.25073 11.6232 5.84961 11.3435 5.16547L9.95506 5.73303C10.3539 6.70874 11.2733 7.74611 12.5961 7.75324L12.6042 6.25326ZM6 21.75H17.9997V20.25H6V21.75ZM20.25 17.9998C20.25 19.2426 19.2426 20.25 17.9997 20.25V21.75C20.0709 21.75 21.7501 20.0712 21.75 17.9998L20.25 17.9998ZM2.25 18.001C2.25 20.0724 3.92926 21.75 6 21.75V20.25C4.75703 20.25 3.75 19.2433 3.75 18.001H2.25Z" fill="#2B2724"/>
<path d="M10 4H16C18.2091 4 20 5.79086 20 8V9" stroke="#2B2724" stroke-width="1.5"/>
<path d="M7 16L13 16" stroke="white" stroke-width="1.5" stroke-linecap="round"/>
</svg>
