<svg width="24" height="24" viewBox="0 0 24 24" fill="none" xmlns="http://www.w3.org/2000/svg">
<path d="M12.6002 7.00325L12.5961 7.75324H12.5961L12.6002 7.00325ZM17.5451 7.24472L17.7768 6.53143L17.5451 7.24472ZM20.7553 10.4549L21.4686 10.2232V10.2232L20.7553 10.4549ZM8.5 3V3.75H8.5L8.5 3ZM10.6399 5.42621L9.94561 5.7099L9.94564 5.70997L10.6399 5.42621ZM3.82344 3.16977L3.45324 2.51751L3.45324 2.51751L3.82344 3.16977ZM3.14405 3.97049L2.44977 3.6868H2.44977L3.14405 3.97049ZM10.6493 5.44925L9.95505 5.73301L9.95506 5.73303L10.6493 5.44925ZM21 17.9998L21.75 17.9998L21 17.9998ZM2.25 12C2.25 12.0022 2.25 12.0044 2.25 12.0066C2.25 12.0088 2.25 12.0111 2.25 12.0133C2.25 12.0155 2.25 12.0178 2.25 12.02C2.25 12.0222 2.25 12.0245 2.25 12.0267C2.25 12.029 2.25 12.0312 2.25 12.0335C2.25 12.0358 2.25 12.038 2.25 12.0403C2.25 12.0426 2.25 12.0449 2.25 12.0471C2.25 12.0494 2.25 12.0517 2.25 12.054C2.25 12.0563 2.25 12.0586 2.25 12.0609C2.25 12.0632 2.25 12.0656 2.25 12.0679C2.25 12.0702 2.25 12.0725 2.25 12.0749C2.25 12.0772 2.25 12.0795 2.25 12.0819C2.25 12.0842 2.25 12.0866 2.25 12.0889C2.25 12.0913 2.25 12.0936 2.25 12.096C2.25 12.0984 2.25 12.1008 2.25 12.1031C2.25 12.1055 2.25 12.1079 2.25 12.1103C2.25 12.1127 2.25 12.1151 2.25 12.1175C2.25 12.1199 2.25 12.1223 2.25 12.1247C2.25 12.1271 2.25 12.1295 2.25 12.132C2.25 12.1344 2.25 12.1368 2.25 12.1393C2.25 12.1417 2.25 12.1441 2.25 12.1466C2.25 12.149 2.25 12.1515 2.25 12.1539C2.25 12.1564 2.25 12.1589 2.25 12.1613C2.25 12.1638 2.25 12.1663 2.25 12.1688C2.25 12.1712 2.25 12.1737 2.25 12.1762C2.25 12.1787 2.25 12.1812 2.25 12.1837C2.25 12.1862 2.25 12.1887 2.25 12.1912C2.25 12.1938 2.25 12.1963 2.25 12.1988C2.25 12.2013 2.25 12.2039 2.25 12.2064C2.25 12.2089 2.25 12.2115 2.25 12.214C2.25 12.2166 2.25 12.2191 2.25 12.2217C2.25 12.2243 2.25 12.2268 2.25 12.2294C2.25 12.232 2.25 12.2345 2.25 12.2371C2.25 12.2397 2.25 12.2423 2.25 12.2449C2.25 12.2475 2.25 12.2501 2.25 12.2527C2.25 12.2553 2.25 12.2579 2.25 12.2605C2.25 12.2631 2.25 12.2657 2.25 12.2684C2.25 12.271 2.25 12.2736 2.25 12.2763C2.25 12.2789 2.25 12.2815 2.25 12.2842C2.25 12.2868 2.25 12.2895 2.25 12.2921C2.25 12.2948 2.25 12.2975 2.25 12.3001C2.25 12.3028 2.25 12.3055 2.25 12.3081C2.25 12.3108 2.25 12.3135 2.25 12.3162C2.25 12.3189 2.25 12.3216 2.25 12.3243C2.25 12.327 2.25 12.3297 2.25 12.3324C2.25 12.3351 2.25 12.3378 2.25 12.3405C2.25 12.3433 2.25 12.346 2.25 12.3487C2.25 12.3515 2.25 12.3542 2.25 12.3569C2.25 12.3597 2.25 12.3624 2.25 12.3652C2.25 12.3679 2.25 12.3707 2.25 12.3735C2.25 12.3762 2.25 12.379 2.25 12.3818C2.25 12.3845 2.25 12.3873 2.25 12.3901C2.25 12.3929 2.25 12.3957 2.25 12.3985C2.25 12.4013 2.25 12.4041 2.25 12.4069C2.25 12.4097 2.25 12.4125 2.25 12.4153C2.25 12.4181 2.25 12.4209 2.25 12.4238C2.25 12.4266 2.25 12.4294 2.25 12.4322C2.25 12.4351 2.25 12.4379 2.25 12.4408C2.25 12.4436 2.25 12.4465 2.25 12.4493C2.25 12.4522 2.25 12.455 2.25 12.4579C2.25 12.4608 2.25 12.4636 2.25 12.4665C2.25 12.4694 2.25 12.4723 2.25 12.4752C2.25 12.478 2.25 12.4809 2.25 12.4838C2.25 12.4867 2.25 12.4896 2.25 12.4925C2.25 12.4954 2.25 12.4984 2.25 12.5013C2.25 12.5042 2.25 12.5071 2.25 12.51C2.25 12.513 2.25 12.5159 2.25 12.5188C2.25 12.5218 2.25 12.5247 2.25 12.5277C2.25 12.5306 2.25 12.5335 2.25 12.5365C2.25 12.5395 2.25 12.5424 2.25 12.5454C2.25 12.5484 2.25 12.5513 2.25 12.5543C2.25 12.5573 2.25 12.5603 2.25 12.5632C2.25 12.5662 2.25 12.5692 2.25 12.5722C2.25 12.5752 2.25 12.5782 2.25 12.5812C2.25 12.5842 2.25 12.5872 2.25 12.5902C2.25 12.5932 2.25 12.5963 2.25 12.5993C2.25 12.6023 2.25 12.6053 2.25 12.6084C2.25 12.6114 2.25 12.6144 2.25 12.6175C2.25 12.6205 2.25 12.6236 2.25 12.6266C2.25 12.6297 2.25 12.6327 2.25 12.6358C2.25 12.6389 2.25 12.6419 2.25 12.645C2.25 12.6481 2.25 12.6512 2.25 12.6542C2.25 12.6573 2.25 12.6604 2.25 12.6635C2.25 12.6666 2.25 12.6697 2.25 12.6728C2.25 12.6759 2.25 12.679 2.25 12.6821C2.25 12.6852 2.25 12.6883 2.25 12.6914C2.25 12.6945 2.25 12.6977 2.25 12.7008C2.25 12.7039 2.25 12.7071 2.25 12.7102C2.25 12.7133 2.25 12.7165 2.25 12.7196C2.25 12.7228 2.25 12.7259 2.25 12.7291C2.25 12.7322 2.25 12.7354 2.25 12.7386C2.25 12.7417 2.25 12.7449 2.25 12.7481C2.25 12.7512 2.25 12.7544 2.25 12.7576C2.25 12.7608 2.25 12.764 2.25 12.7672C2.25 12.7703 2.25 12.7735 2.25 12.7767C2.25 12.7799 2.25 12.7831 2.25 12.7864C2.25 12.7896 2.25 12.7928 2.25 12.796C2.25 12.7992 2.25 12.8024 2.25 12.8057C2.25 12.8089 2.25 12.8121 2.25 12.8154C2.25 12.8186 2.25 12.8218 2.25 12.8251C2.25 12.8283 2.25 12.8316 2.25 12.8348C2.25 12.8381 2.25 12.8414 2.25 12.8446C2.25 12.8479 2.25 12.8511 2.25 12.8544C2.25 12.8577 2.25 12.861 2.25 12.8642C2.25 12.8675 2.25 12.8708 2.25 12.8741C2.25 12.8774 2.25 12.8807 2.25 12.884C2.25 12.8873 2.25 12.8906 2.25 12.8939C2.25 12.8972 2.25 12.9005 2.25 12.9038C2.25 12.9071 2.25 12.9105 2.25 12.9138C2.25 12.9171 2.25 12.9204 2.25 12.9238C2.25 12.9271 2.25 12.9304 2.25 12.9338C2.25 12.9371 2.25 12.9405 2.25 12.9438C2.25 12.9472 2.25 12.9505 2.25 12.9539C2.25 12.9572 2.25 12.9606 2.25 12.964C2.25 12.9673 2.25 12.9707 2.25 12.9741C2.25 12.9775 2.25 12.9808 2.25 12.9842C2.25 12.9876 2.25 12.991 2.25 12.9944C2.25 12.9978 2.25 13.0012 2.25 13.0046C2.25 13.008 2.25 13.0114 2.25 13.0148C2.25 13.0182 2.25 13.0216 2.25 13.025C2.25 13.0284 2.25 13.0318 2.25 13.0353C2.25 13.0387 2.25 13.0421 2.25 13.0456C2.25 13.049 2.25 13.0524 2.25 13.0559C2.25 13.0593 2.25 13.0628 2.25 13.0662C2.25 13.0697 2.25 13.0731 2.25 13.0766C2.25 13.08 2.25 13.0835 2.25 13.087C2.25 13.0904 2.25 13.0939 2.25 13.0974C2.25 13.1008 2.25 13.1043 2.25 13.1078C2.25 13.1113 2.25 13.1148 2.25 13.1182C2.25 13.1217 2.25 13.1252 2.25 13.1287C2.25 13.1322 2.25 13.1357 2.25 13.1392C2.25 13.1427 2.25 13.1462 2.25 13.1498C2.25 13.1533 2.25 13.1568 2.25 13.1603C2.25 13.1638 2.25 13.1674 2.25 13.1709C2.25 13.1744 2.25 13.1779 2.25 13.1815C2.25 13.185 2.25 13.1886 2.25 13.1921C2.25 13.1956 2.25 13.1992 2.25 13.2027C2.25 13.2063 2.25 13.2099 2.25 13.2134C2.25 13.217 2.25 13.2205 2.25 13.2241C2.25 13.2277 2.25 13.2312 2.25 13.2348C2.25 13.2384 2.25 13.242 2.25 13.2456C2.25 13.2491 2.25 13.2527 2.25 13.2563C2.25 13.2599 2.25 13.2635 2.25 13.2671C2.25 13.2707 2.25 13.2743 2.25 13.2779C2.25 13.2815 2.25 13.2851 2.25 13.2887C2.25 13.2923 2.25 13.296 2.25 13.2996C2.25 13.3032 2.25 13.3068 2.25 13.3104C2.25 13.3141 2.25 13.3177 2.25 13.3213C2.25 13.325 2.25 13.3286 2.25 13.3323C2.25 13.3359 2.25 13.3395 2.25 13.3432C2.25 13.3468 2.25 13.3505 2.25 13.3542C2.25 13.3578 2.25 13.3615 2.25 13.3651C2.25 13.3688 2.25 13.3725 2.25 13.3761C2.25 13.3798 2.25 13.3835 2.25 13.3872C2.25 13.3908 2.25 13.3945 2.25 13.3982C2.25 13.4019 2.25 13.4056 2.25 13.4093C2.25 13.413 2.25 13.4167 2.25 13.4204C2.25 13.4241 2.25 13.4278 2.25 13.4315C2.25 13.4352 2.25 13.4389 2.25 13.4426C2.25 13.4463 2.25 13.45 2.25 13.4538C2.25 13.4575 2.25 13.4612 2.25 13.4649C2.25 13.4687 2.25 13.4724 2.25 13.4761C2.25 13.4799 2.25 13.4836 2.25 13.4873C2.25 13.4911 2.25 13.4948 2.25 13.4986C2.25 13.5023 2.25 13.5061 2.25 13.5098C2.25 13.5136 2.25 13.5174 2.25 13.5211C2.25 13.5249 2.25 13.5286 2.25 13.5324C2.25 13.5362 2.25 13.54 2.25 13.5437C2.25 13.5475 2.25 13.5513 2.25 13.5551C2.25 13.5588 2.25 13.5626 2.25 13.5664C2.25 13.5702 2.25 13.574 2.25 13.5778C2.25 13.5816 2.25 13.5854 2.25 13.5892C2.25 13.593 2.25 13.5968 2.25 13.6006C2.25 13.6044 2.25 13.6082 2.25 13.6121C2.25 13.6159 2.25 13.6197 2.25 13.6235C2.25 13.6273 2.25 13.6312 2.25 13.635C2.25 13.6388 2.25 13.6426 2.25 13.6465C2.25 13.6503 2.25 13.6542 2.25 13.658C2.25 13.6618 2.25 13.6657 2.25 13.6695C2.25 13.6734 2.25 13.6772 2.25 13.6811C2.25 13.6849 2.25 13.6888 2.25 13.6927C2.25 13.6965 2.25 13.7004 2.25 13.7043C2.25 13.7081 2.25 13.712 2.25 13.7159C2.25 13.7197 2.25 13.7236 2.25 13.7275C2.25 13.7314 2.25 13.7353 2.25 13.7391C2.25 13.743 2.25 13.7469 2.25 13.7508C2.25 13.7547 2.25 13.7586 2.25 13.7625C2.25 13.7664 2.25 13.7703 2.25 13.7742C2.25 13.7781 2.25 13.782 2.25 13.7859C2.25 13.7898 2.25 13.7937 2.25 13.7977C2.25 13.8016 2.25 13.8055 2.25 13.8094C2.25 13.8133 2.25 13.8173 2.25 13.8212C2.25 13.8251 2.25 13.8291 2.25 13.833C2.25 13.8369 2.25 13.8409 2.25 13.8448C2.25 13.8487 2.25 13.8527 2.25 13.8566C2.25 13.8606 2.25 13.8645 2.25 13.8685C2.25 13.8724 2.25 13.8764 2.25 13.8804C2.25 13.8843 2.25 13.8883 2.25 13.8922C2.25 13.8962 2.25 13.9002 2.25 13.9041C2.25 13.9081 2.25 13.9121 2.25 13.9161C2.25 13.92 2.25 13.924 2.25 13.928C2.25 13.932 2.25 13.936 2.25 13.9399C2.25 13.9439 2.25 13.9479 2.25 13.9519C2.25 13.9559 2.25 13.9599 2.25 13.9639C2.25 13.9679 2.25 13.9719 2.25 13.9759C2.25 13.9799 2.25 13.9839 2.25 13.9879C2.25 13.9919 2.25 13.9959 2.25 14C2.25 14.004 2.25 14.008 2.25 14.012C2.25 14.016 2.25 14.0201 2.25 14.0241C2.25 14.0281 2.25 14.0321 2.25 14.0362C2.25 14.0402 2.25 14.0442 2.25 14.0483C2.25 14.0523 2.25 14.0563 2.25 14.0604C2.25 14.0644 2.25 14.0685 2.25 14.0725C2.25 14.0766 2.25 14.0806 2.25 14.0847C2.25 14.0887 2.25 14.0928 2.25 14.0968C2.25 14.1009 2.25 14.105 2.25 14.109C2.25 14.1131 2.25 14.1172 2.25 14.1212C2.25 14.1253 2.25 14.1294 2.25 14.1334C2.25 14.1375 2.25 14.1416 2.25 14.1457C2.25 14.1497 2.25 14.1538 2.25 14.1579C2.25 14.162 2.25 14.1661 2.25 14.1702C2.25 14.1743 2.25 14.1783 2.25 14.1824C2.25 14.1865 2.25 14.1906 2.25 14.1947C2.25 14.1988 2.25 14.2029 2.25 14.207C2.25 14.2111 2.25 14.2153 2.25 14.2194C2.25 14.2235 2.25 14.2276 2.25 14.2317C2.25 14.2358 2.25 14.2399 2.25 14.244C2.25 14.2482 2.25 14.2523 2.25 14.2564C2.25 14.2605 2.25 14.2647 2.25 14.2688C2.25 14.2729 2.25 14.277 2.25 14.2812C2.25 14.2853 2.25 14.2895 2.25 14.2936C2.25 14.2977 2.25 14.3019 2.25 14.306C2.25 14.3102 2.25 14.3143 2.25 14.3184C2.25 14.3226 2.25 14.3267 2.25 14.3309C2.25 14.3351 2.25 14.3392 2.25 14.3434C2.25 14.3475 2.25 14.3517 2.25 14.3558C2.25 14.36 2.25 14.3642 2.25 14.3683C2.25 14.3725 2.25 14.3767 2.25 14.3808C2.25 14.385 2.25 14.3892 2.25 14.3934C2.25 14.3975 2.25 14.4017 2.25 14.4059C2.25 14.4101 2.25 14.4143 2.25 14.4184C2.25 14.4226 2.25 14.4268 2.25 14.431C2.25 14.4352 2.25 14.4394 2.25 14.4436C2.25 14.4478 2.25 14.452 2.25 14.4562C2.25 14.4604 2.25 14.4646 2.25 14.4688C2.25 14.473 2.25 14.4772 2.25 14.4814C2.25 14.4856 2.25 14.4898 2.25 14.494C2.25 14.4982 2.25 14.5024 2.25 14.5066C2.25 14.5109 2.25 14.5151 2.25 14.5193C2.25 14.5235 2.25 14.5277 2.25 14.532C2.25 14.5362 2.25 14.5404 2.25 14.5446C2.25 14.5489 2.25 14.5531 2.25 14.5573C2.25 14.5616 2.25 14.5658 2.25 14.57C2.25 14.5743 2.25 14.5785 2.25 14.5827C2.25 14.587 2.25 14.5912 2.25 14.5955C2.25 14.5997 2.25 14.604 2.25 14.6082C2.25 14.6125 2.25 14.6167 2.25 14.621C2.25 14.6252 2.25 14.6295 2.25 14.6337C2.25 14.638 2.25 14.6422 2.25 14.6465C2.25 14.6508 2.25 14.655 2.25 14.6593C2.25 14.6635 2.25 14.6678 2.25 14.6721C2.25 14.6763 2.25 14.6806 2.25 14.6849C2.25 14.6892 2.25 14.6934 2.25 14.6977C2.25 14.702 2.25 14.7063 2.25 14.7105C2.25 14.7148 2.25 14.7191 2.25 14.7234C2.25 14.7277 2.25 14.7319 2.25 14.7362C2.25 14.7405 2.25 14.7448 2.25 14.7491C2.25 14.7534 2.25 14.7577 2.25 14.762C2.25 14.7663 2.25 14.7706 2.25 14.7749C2.25 14.7792 2.25 14.7835 2.25 14.7878C2.25 14.7921 2.25 14.7964 2.25 14.8007C2.25 14.805 2.25 14.8093 2.25 14.8136C2.25 14.8179 2.25 14.8222 2.25 14.8265C2.25 14.8308 2.25 14.8351 2.25 14.8394C2.25 14.8438 2.25 14.8481 2.25 14.8524C2.25 14.8567 2.25 14.861 2.25 14.8654C2.25 14.8697 2.25 14.874 2.25 14.8783C2.25 14.8827 2.25 14.887 2.25 14.8913C2.25 14.8956 2.25 14.9 2.25 14.9043C2.25 14.9086 2.25 14.913 2.25 14.9173C2.25 14.9216 2.25 14.926 2.25 14.9303C2.25 14.9346 2.25 14.939 2.25 14.9433C2.25 14.9477 2.25 14.952 2.25 14.9564C2.25 14.9607 2.25 14.965 2.25 14.9694C2.25 14.9737 2.25 14.9781 2.25 14.9824C2.25 14.9868 2.25 14.9911 2.25 14.9955C2.25 14.9998 2.25 15.0042 2.25 15.0086C2.25 15.0129 2.25 15.0173 2.25 15.0216C2.25 15.026 2.25 15.0304 2.25 15.0347C2.25 15.0391 2.25 15.0434 2.25 15.0478C2.25 15.0522 2.25 15.0565 2.25 15.0609C2.25 15.0653 2.25 15.0696 2.25 15.074C2.25 15.0784 2.25 15.0828 2.25 15.0871C2.25 15.0915 2.25 15.0959 2.25 15.1003C2.25 15.1046 2.25 15.109 2.25 15.1134C2.25 15.1178 2.25 15.1222 2.25 15.1265C2.25 15.1309 2.25 15.1353 2.25 15.1397C2.25 15.1441 2.25 15.1485 2.25 15.1529C2.25 15.1572 2.25 15.1616 2.25 15.166C2.25 15.1704 2.25 15.1748 2.25 15.1792C2.25 15.1836 2.25 15.188 2.25 15.1924C2.25 15.1968 2.25 15.2012 2.25 15.2056C2.25 15.21 2.25 15.2144 2.25 15.2188C2.25 15.2232 2.25 15.2276 2.25 15.232C2.25 15.2364 2.25 15.2408 2.25 15.2452C2.25 15.2496 2.25 15.254 2.25 15.2584C2.25 15.2628 2.25 15.2672 2.25 15.2717C2.25 15.2761 2.25 15.2805 2.25 15.2849C2.25 15.2893 2.25 15.2937 2.25 15.2981C2.25 15.3025 2.25 15.307 2.25 15.3114C2.25 15.3158 2.25 15.3202 2.25 15.3246C2.25 15.3291 2.25 15.3335 2.25 15.3379C2.25 15.3423 2.25 15.3467 2.25 15.3512C2.25 15.3556 2.25 15.36 2.25 15.3645C2.25 15.3689 2.25 15.3733 2.25 15.3777C2.25 15.3822 2.25 15.3866 2.25 15.391C2.25 15.3955 2.25 15.3999 2.25 15.4043C2.25 15.4088 2.25 15.4132 2.25 15.4176C2.25 15.4221 2.25 15.4265 2.25 15.4309C2.25 15.4354 2.25 15.4398 2.25 15.4443C2.25 15.4487 2.25 15.4531 2.25 15.4576C2.25 15.462 2.25 15.4665 2.25 15.4709C2.25 15.4753 2.25 15.4798 2.25 15.4842C2.25 15.4887 2.25 15.4931 2.25 15.4976C2.25 15.502 2.25 15.5065 2.25 15.5109C2.25 15.5154 2.25 15.5198 2.25 15.5243C2.25 15.5287 2.25 15.5332 2.25 15.5376C2.25 15.5421 2.25 15.5465 2.25 15.551C2.25 15.5554 2.25 15.5599 2.25 15.5643C2.25 15.5688 2.25 15.5733 2.25 15.5777C2.25 15.5822 2.25 15.5866 2.25 15.5911C2.25 15.5956 2.25 15.6 2.25 15.6045C2.25 15.6089 2.25 15.6134 2.25 15.6179C2.25 15.6223 2.25 15.6268 2.25 15.6313C2.25 15.6357 2.25 15.6402 2.25 15.6446C2.25 15.6491 2.25 15.6536 2.25 15.658C2.25 15.6625 2.25 15.667 2.25 15.6715C2.25 15.6759 2.25 15.6804 2.25 15.6849C2.25 15.6893 2.25 15.6938 2.25 15.6983C2.25 15.7027 2.25 15.7072 2.25 15.7117C2.25 15.7162 2.25 15.7206 2.25 15.7251C2.25 15.7296 2.25 15.7341 2.25 15.7385C2.25 15.743 2.25 15.7475 2.25 15.752C2.25 15.7564 2.25 15.7609 2.25 15.7654C2.25 15.7699 2.25 15.7744 2.25 15.7788C2.25 15.7833 2.25 15.7878 2.25 15.7923C2.25 15.7968 2.25 15.8012 2.25 15.8057C2.25 15.8102 2.25 15.8147 2.25 15.8192C2.25 15.8236 2.25 15.8281 2.25 15.8326C2.25 15.8371 2.25 15.8416 2.25 15.8461C2.25 15.8506 2.25 15.855 2.25 15.8595C2.25 15.864 2.25 15.8685 2.25 15.873C2.25 15.8775 2.25 15.882 2.25 15.8865C2.25 15.8909 2.25 15.8954 2.25 15.8999C2.25 15.9044 2.25 15.9089 2.25 15.9134C2.25 15.9179 2.25 15.9224 2.25 15.9269C2.25 15.9313 2.25 15.9358 2.25 15.9403C2.25 15.9448 2.25 15.9493 2.25 15.9538C2.25 15.9583 2.25 15.9628 2.25 15.9673C2.25 15.9718 2.25 15.9763 2.25 15.9808C2.25 15.9853 2.25 15.9898 2.25 15.9943C2.25 15.9987 2.25 16.0032 2.25 16.0077C2.25 16.0122 2.25 16.0167 2.25 16.0212C2.25 16.0257 2.25 16.0302 2.25 16.0347C2.25 16.0392 2.25 16.0437 2.25 16.0482C2.25 16.0527 2.25 16.0572 2.25 16.0617C2.25 16.0662 2.25 16.0707 2.25 16.0752C2.25 16.0797 2.25 16.0842 2.25 16.0887C2.25 16.0932 2.25 16.0977 2.25 16.1022C2.25 16.1067 2.25 16.1112 2.25 16.1157C2.25 16.1202 2.25 16.1247 2.25 16.1292C2.25 16.1337 2.25 16.1382 2.25 16.1427C2.25 16.1472 2.25 16.1517 2.25 16.1562C2.25 16.1607 2.25 16.1652 2.25 16.1697C2.25 16.1742 2.25 16.1787 2.25 16.1832C2.25 16.1877 2.25 16.1922 2.25 16.1967C2.25 16.2012 2.25 16.2057 2.25 16.2102C2.25 16.2147 2.25 16.2192 2.25 16.2237C2.25 16.2282 2.25 16.2327 2.25 16.2372C2.25 16.2417 2.25 16.2462 2.25 16.2507C2.25 16.2552 2.25 16.2597 2.25 16.2642C2.25 16.2688 2.25 16.2733 2.25 16.2778C2.25 16.2823 2.25 16.2868 2.25 16.2913C2.25 16.2958 2.25 16.3003 2.25 16.3048C2.25 16.3073 2.25 16.4103 2.25 16.4128C2.25 16.4208 2.25 16.5129 2.25 16.5209C2.25 16.5576 2.25 16.7 2.25 16.7365C2.25 16.8131 2.25 16.8752 2.25 16.9515C2.25 17.0127 2.25 16.9974 2.25 17.0585C2.25 17.1419 2.25 17.0819 2.25 17.1652C2.25 17.2183 2.25 17.1654 2.25 17.2184C2.25 17.2813 2.25 17.2087 2.25 17.2715C2.25 17.3468 2.25 17.2493 2.25 17.3245C2.25 17.3681 2.25 17.3075 2.25 17.351C2.25 17.3992 2.25 17.3292 2.25 17.3774C2.25 17.4312 2.25 17.3501 2.25 17.4038C2.25 17.4642 2.25 17.3698 2.25 17.4302C2.25 17.4346 2.25 17.439 2.25 17.4434C2.25 17.4478 2.25 17.4522 2.25 17.4565C2.25 17.4609 2.25 17.4653 2.25 17.4697C2.25 17.4741 2.25 17.4785 2.25 17.4828C2.25 17.4872 2.25 17.4916 2.25 17.496C2.25 17.5004 2.25 17.5047 2.25 17.5091C2.25 17.5135 2.25 17.5179 2.25 17.5222C2.25 17.5266 2.25 17.531 2.25 17.5354C2.25 17.5397 2.25 17.5441 2.25 17.5485C2.25 17.5528 2.25 17.5572 2.25 17.5616C2.25 17.5659 2.25 17.5703 2.25 17.5747C2.25 17.579 2.25 17.5834 2.25 17.5877C2.25 17.5921 2.25 17.5964 2.25 17.6008C2.25 17.6052 2.25 17.6095 2.25 17.6139C2.25 17.6182 2.25 17.6226 2.25 17.6269C2.25 17.6313 2.25 17.6356 2.25 17.64C2.25 17.6443 2.25 17.6487 2.25 17.653C2.25 17.6573 2.25 17.6617 2.25 17.666C2.25 17.6704 2.25 17.6747 2.25 17.679C2.25 17.6834 2.25 17.6877 2.25 17.692C2.25 17.6964 2.25 17.7007 2.25 17.705C2.25 17.7094 2.25 17.7137 2.25 17.718C2.25 17.7223 2.25 17.7267 2.25 17.731C2.25 17.7353 2.25 17.7396 2.25 17.744C2.25 17.7483 2.25 17.7526 2.25 17.7569C2.25 17.7612 2.25 17.7655 2.25 17.7699C2.25 17.7742 2.25 17.7785 2.25 17.7828C2.25 17.7871 2.25 17.7914 2.25 17.7957C2.25 17.8 2.25 17.8043 2.25 17.8086C2.25 17.8129 2.25 17.8172 2.25 17.8215C2.25 17.8258 2.25 17.8301 2.25 17.8344C2.25 17.8387 2.25 17.843 2.25 17.8473C2.25 17.8516 2.25 17.8559 2.25 17.8602C2.25 17.8645 2.25 17.8688 2.25 17.873C2.25 17.8773 2.25 17.8816 2.25 17.8859C2.25 17.8902 2.25 17.8945 2.25 17.8987C2.25 17.903 2.25 17.9073 2.25 17.9116C2.25 17.9158 2.25 17.9201 2.25 17.9244C2.25 17.9286 2.25 17.9329 2.25 17.9372C2.25 17.9414 2.25 17.9457 2.25 17.95C2.25 17.9542 2.25 17.9585 2.25 17.9627C2.25 17.967 2.25 17.9713 2.25 17.9755C2.25 17.9798 2.25 17.984 2.25 17.9883C2.25 17.9925 2.25 17.9968 2.25 18.001H3.75C3.75 17.9968 3.75 17.9925 3.75 17.9883C3.75 17.984 3.75 17.9798 3.75 17.9755C3.75 17.9713 3.75 17.967 3.75 17.9627C3.75 17.9585 3.75 17.9542 3.75 17.95C3.75 17.9457 3.75 17.9414 3.75 17.9372C3.75 17.9329 3.75 17.9286 3.75 17.9244C3.75 17.9201 3.75 17.9158 3.75 17.9116C3.75 17.9073 3.75 17.903 3.75 17.8987C3.75 17.8945 3.75 17.8902 3.75 17.8859C3.75 17.8816 3.75 17.8773 3.75 17.873C3.75 17.8688 3.75 17.8645 3.75 17.8602C3.75 17.8559 3.75 17.8516 3.75 17.8473C3.75 17.843 3.75 17.8387 3.75 17.8344C3.75 17.8301 3.75 17.8258 3.75 17.8215C3.75 17.8172 3.75 17.8129 3.75 17.8086C3.75 17.8043 3.75 17.8 3.75 17.7957C3.75 17.7914 3.75 17.7871 3.75 17.7828C3.75 17.7785 3.75 17.7742 3.75 17.7699C3.75 17.7655 3.75 17.7612 3.75 17.7569C3.75 17.7526 3.75 17.7483 3.75 17.744C3.75 17.7396 3.75 17.7353 3.75 17.731C3.75 17.7267 3.75 17.7223 3.75 17.718C3.75 17.7137 3.75 17.7094 3.75 17.705C3.75 17.7007 3.75 17.6964 3.75 17.692C3.75 17.6877 3.75 17.6834 3.75 17.679C3.75 17.6747 3.75 17.6704 3.75 17.666C3.75 17.6617 3.75 17.6573 3.75 17.653C3.75 17.6487 3.75 17.6443 3.75 17.64C3.75 17.6356 3.75 17.6313 3.75 17.6269C3.75 17.6226 3.75 17.6182 3.75 17.6139C3.75 17.6095 3.75 17.6052 3.75 17.6008C3.75 17.5964 3.75 17.5921 3.75 17.5877C3.75 17.5834 3.75 17.579 3.75 17.5747C3.75 17.5703 3.75 17.5659 3.75 17.5616C3.75 17.5572 3.75 17.5528 3.75 17.5485C3.75 17.5441 3.75 17.5397 3.75 17.5354C3.75 17.531 3.75 17.5266 3.75 17.5222C3.75 17.5179 3.75 17.5135 3.75 17.5091C3.75 17.5047 3.75 17.5004 3.75 17.496C3.75 17.4916 3.75 17.4872 3.75 17.4828C3.75 17.4785 3.75 17.4741 3.75 17.4697C3.75 17.4653 3.75 17.4609 3.75 17.4565C3.75 17.4522 3.75 17.4478 3.75 17.4434C3.75 17.439 3.75 17.4346 3.75 17.4302C3.75 17.3698 3.75 17.4642 3.75 17.4038C3.75 17.3501 3.75 17.4312 3.75 17.3774C3.75 17.3292 3.75 17.3992 3.75 17.351C3.75 17.3075 3.75 17.3681 3.75 17.3245C3.75 17.2493 3.75 17.3468 3.75 17.2715C3.75 17.2087 3.75 17.2813 3.75 17.2184C3.75 17.1654 3.75 17.2183 3.75 17.1652C3.75 17.0819 3.75 17.1419 3.75 17.0585C3.75 16.9974 3.75 17.0127 3.75 16.9515C3.75 16.8752 3.75 16.8131 3.75 16.7365C3.75 16.7 3.75 16.5576 3.75 16.5209C3.75 16.5129 3.75 16.4208 3.75 16.4128C3.75 16.4103 3.75 16.3073 3.75 16.3048C3.75 16.3003 3.75 16.2958 3.75 16.2913C3.75 16.2868 3.75 16.2823 3.75 16.2778C3.75 16.2733 3.75 16.2688 3.75 16.2642C3.75 16.2597 3.75 16.2552 3.75 16.2507C3.75 16.2462 3.75 16.2417 3.75 16.2372C3.75 16.2327 3.75 16.2282 3.75 16.2237C3.75 16.2192 3.75 16.2147 3.75 16.2102C3.75 16.2057 3.75 16.2012 3.75 16.1967C3.75 16.1922 3.75 16.1877 3.75 16.1832C3.75 16.1787 3.75 16.1742 3.75 16.1697C3.75 16.1652 3.75 16.1607 3.75 16.1562C3.75 16.1517 3.75 16.1472 3.75 16.1427C3.75 16.1382 3.75 16.1337 3.75 16.1292C3.75 16.1247 3.75 16.1202 3.75 16.1157C3.75 16.1112 3.75 16.1067 3.75 16.1022C3.75 16.0977 3.75 16.0932 3.75 16.0887C3.75 16.0842 3.75 16.0797 3.75 16.0752C3.75 16.0707 3.75 16.0662 3.75 16.0617C3.75 16.0572 3.75 16.0527 3.75 16.0482C3.75 16.0437 3.75 16.0392 3.75 16.0347C3.75 16.0302 3.75 16.0257 3.75 16.0212C3.75 16.0167 3.75 16.0122 3.75 16.0077C3.75 16.0032 3.75 15.9987 3.75 15.9943C3.75 15.9898 3.75 15.9853 3.75 15.9808C3.75 15.9763 3.75 15.9718 3.75 15.9673C3.75 15.9628 3.75 15.9583 3.75 15.9538C3.75 15.9493 3.75 15.9448 3.75 15.9403C3.75 15.9358 3.75 15.9313 3.75 15.9269C3.75 15.9224 3.75 15.9179 3.75 15.9134C3.75 15.9089 3.75 15.9044 3.75 15.8999C3.75 15.8954 3.75 15.8909 3.75 15.8865C3.75 15.882 3.75 15.8775 3.75 15.873C3.75 15.8685 3.75 15.864 3.75 15.8595C3.75 15.855 3.75 15.8506 3.75 15.8461C3.75 15.8416 3.75 15.8371 3.75 15.8326C3.75 15.8281 3.75 15.8236 3.75 15.8192C3.75 15.8147 3.75 15.8102 3.75 15.8057C3.75 15.8012 3.75 15.7968 3.75 15.7923C3.75 15.7878 3.75 15.7833 3.75 15.7788C3.75 15.7744 3.75 15.7699 3.75 15.7654C3.75 15.7609 3.75 15.7564 3.75 15.752C3.75 15.7475 3.75 15.743 3.75 15.7385C3.75 15.7341 3.75 15.7296 3.75 15.7251C3.75 15.7206 3.75 15.7162 3.75 15.7117C3.75 15.7072 3.75 15.7027 3.75 15.6983C3.75 15.6938 3.75 15.6893 3.75 15.6849C3.75 15.6804 3.75 15.6759 3.75 15.6715C3.75 15.667 3.75 15.6625 3.75 15.658C3.75 15.6536 3.75 15.6491 3.75 15.6446C3.75 15.6402 3.75 15.6357 3.75 15.6313C3.75 15.6268 3.75 15.6223 3.75 15.6179C3.75 15.6134 3.75 15.6089 3.75 15.6045C3.75 15.6 3.75 15.5956 3.75 15.5911C3.75 15.5866 3.75 15.5822 3.75 15.5777C3.75 15.5733 3.75 15.5688 3.75 15.5643C3.75 15.5599 3.75 15.5554 3.75 15.551C3.75 15.5465 3.75 15.5421 3.75 15.5376C3.75 15.5332 3.75 15.5287 3.75 15.5243C3.75 15.5198 3.75 15.5154 3.75 15.5109C3.75 15.5065 3.75 15.502 3.75 15.4976C3.75 15.4931 3.75 15.4887 3.75 15.4842C3.75 15.4798 3.75 15.4753 3.75 15.4709C3.75 15.4665 3.75 15.462 3.75 15.4576C3.75 15.4531 3.75 15.4487 3.75 15.4443C3.75 15.4398 3.75 15.4354 3.75 15.4309C3.75 15.4265 3.75 15.4221 3.75 15.4176C3.75 15.4132 3.75 15.4088 3.75 15.4043C3.75 15.3999 3.75 15.3955 3.75 15.391C3.75 15.3866 3.75 15.3822 3.75 15.3777C3.75 15.3733 3.75 15.3689 3.75 15.3645C3.75 15.36 3.75 15.3556 3.75 15.3512C3.75 15.3467 3.75 15.3423 3.75 15.3379C3.75 15.3335 3.75 15.3291 3.75 15.3246C3.75 15.3202 3.75 15.3158 3.75 15.3114C3.75 15.307 3.75 15.3025 3.75 15.2981C3.75 15.2937 3.75 15.2893 3.75 15.2849C3.75 15.2805 3.75 15.2761 3.75 15.2717C3.75 15.2672 3.75 15.2628 3.75 15.2584C3.75 15.254 3.75 15.2496 3.75 15.2452C3.75 15.2408 3.75 15.2364 3.75 15.232C3.75 15.2276 3.75 15.2232 3.75 15.2188C3.75 15.2144 3.75 15.21 3.75 15.2056C3.75 15.2012 3.75 15.1968 3.75 15.1924C3.75 15.188 3.75 15.1836 3.75 15.1792C3.75 15.1748 3.75 15.1704 3.75 15.166C3.75 15.1616 3.75 15.1572 3.75 15.1529C3.75 15.1485 3.75 15.1441 3.75 15.1397C3.75 15.1353 3.75 15.1309 3.75 15.1265C3.75 15.1222 3.75 15.1178 3.75 15.1134C3.75 15.109 3.75 15.1046 3.75 15.1003C3.75 15.0959 3.75 15.0915 3.75 15.0871C3.75 15.0828 3.75 15.0784 3.75 15.074C3.75 15.0696 3.75 15.0653 3.75 15.0609C3.75 15.0565 3.75 15.0522 3.75 15.0478C3.75 15.0434 3.75 15.0391 3.75 15.0347C3.75 15.0304 3.75 15.026 3.75 15.0216C3.75 15.0173 3.75 15.0129 3.75 15.0086C3.75 15.0042 3.75 14.9998 3.75 14.9955C3.75 14.9911 3.75 14.9868 3.75 14.9824C3.75 14.9781 3.75 14.9737 3.75 14.9694C3.75 14.965 3.75 14.9607 3.75 14.9564C3.75 14.952 3.75 14.9477 3.75 14.9433C3.75 14.939 3.75 14.9346 3.75 14.9303C3.75 14.926 3.75 14.9216 3.75 14.9173C3.75 14.913 3.75 14.9086 3.75 14.9043C3.75 14.9 3.75 14.8956 3.75 14.8913C3.75 14.887 3.75 14.8827 3.75 14.8783C3.75 14.874 3.75 14.8697 3.75 14.8654C3.75 14.861 3.75 14.8567 3.75 14.8524C3.75 14.8481 3.75 14.8438 3.75 14.8394C3.75 14.8351 3.75 14.8308 3.75 14.8265C3.75 14.8222 3.75 14.8179 3.75 14.8136C3.75 14.8093 3.75 14.805 3.75 14.8007C3.75 14.7964 3.75 14.7921 3.75 14.7878C3.75 14.7835 3.75 14.7792 3.75 14.7749C3.75 14.7706 3.75 14.7663 3.75 14.762C3.75 14.7577 3.75 14.7534 3.75 14.7491C3.75 14.7448 3.75 14.7405 3.75 14.7362C3.75 14.7319 3.75 14.7277 3.75 14.7234C3.75 14.7191 3.75 14.7148 3.75 14.7105C3.75 14.7063 3.75 14.702 3.75 14.6977C3.75 14.6934 3.75 14.6892 3.75 14.6849C3.75 14.6806 3.75 14.6763 3.75 14.6721C3.75 14.6678 3.75 14.6635 3.75 14.6593C3.75 14.655 3.75 14.6508 3.75 14.6465C3.75 14.6422 3.75 14.638 3.75 14.6337C3.75 14.6295 3.75 14.6252 3.75 14.621C3.75 14.6167 3.75 14.6125 3.75 14.6082C3.75 14.604 3.75 14.5997 3.75 14.5955C3.75 14.5912 3.75 14.587 3.75 14.5827C3.75 14.5785 3.75 14.5743 3.75 14.57C3.75 14.5658 3.75 14.5616 3.75 14.5573C3.75 14.5531 3.75 14.5489 3.75 14.5446C3.75 14.5404 3.75 14.5362 3.75 14.532C3.75 14.5277 3.75 14.5235 3.75 14.5193C3.75 14.5151 3.75 14.5109 3.75 14.5066C3.75 14.5024 3.75 14.4982 3.75 14.494C3.75 14.4898 3.75 14.4856 3.75 14.4814C3.75 14.4772 3.75 14.473 3.75 14.4688C3.75 14.4646 3.75 14.4604 3.75 14.4562C3.75 14.452 3.75 14.4478 3.75 14.4436C3.75 14.4394 3.75 14.4352 3.75 14.431C3.75 14.4268 3.75 14.4226 3.75 14.4184C3.75 14.4143 3.75 14.4101 3.75 14.4059C3.75 14.4017 3.75 14.3975 3.75 14.3934C3.75 14.3892 3.75 14.385 3.75 14.3808C3.75 14.3767 3.75 14.3725 3.75 14.3683C3.75 14.3642 3.75 14.36 3.75 14.3558C3.75 14.3517 3.75 14.3475 3.75 14.3434C3.75 14.3392 3.75 14.3351 3.75 14.3309C3.75 14.3267 3.75 14.3226 3.75 14.3184C3.75 14.3143 3.75 14.3102 3.75 14.306C3.75 14.3019 3.75 14.2977 3.75 14.2936C3.75 14.2895 3.75 14.2853 3.75 14.2812C3.75 14.277 3.75 14.2729 3.75 14.2688C3.75 14.2647 3.75 14.2605 3.75 14.2564C3.75 14.2523 3.75 14.2482 3.75 14.244C3.75 14.2399 3.75 14.2358 3.75 14.2317C3.75 14.2276 3.75 14.2235 3.75 14.2194C3.75 14.2153 3.75 14.2111 3.75 14.207C3.75 14.2029 3.75 14.1988 3.75 14.1947C3.75 14.1906 3.75 14.1865 3.75 14.1824C3.75 14.1783 3.75 14.1743 3.75 14.1702C3.75 14.1661 3.75 14.162 3.75 14.1579C3.75 14.1538 3.75 14.1497 3.75 14.1457C3.75 14.1416 3.75 14.1375 3.75 14.1334C3.75 14.1294 3.75 14.1253 3.75 14.1212C3.75 14.1172 3.75 14.1131 3.75 14.109C3.75 14.105 3.75 14.1009 3.75 14.0968C3.75 14.0928 3.75 14.0887 3.75 14.0847C3.75 14.0806 3.75 14.0766 3.75 14.0725C3.75 14.0685 3.75 14.0644 3.75 14.0604C3.75 14.0563 3.75 14.0523 3.75 14.0483C3.75 14.0442 3.75 14.0402 3.75 14.0362C3.75 14.0321 3.75 14.0281 3.75 14.0241C3.75 14.0201 3.75 14.016 3.75 14.012C3.75 14.008 3.75 14.004 3.75 14C3.75 13.9959 3.75 13.9919 3.75 13.9879C3.75 13.9839 3.75 13.9799 3.75 13.9759C3.75 13.9719 3.75 13.9679 3.75 13.9639C3.75 13.9599 3.75 13.9559 3.75 13.9519C3.75 13.9479 3.75 13.9439 3.75 13.9399C3.75 13.936 3.75 13.932 3.75 13.928C3.75 13.924 3.75 13.92 3.75 13.9161C3.75 13.9121 3.75 13.9081 3.75 13.9041C3.75 13.9002 3.75 13.8962 3.75 13.8922C3.75 13.8883 3.75 13.8843 3.75 13.8804C3.75 13.8764 3.75 13.8724 3.75 13.8685C3.75 13.8645 3.75 13.8606 3.75 13.8566C3.75 13.8527 3.75 13.8487 3.75 13.8448C3.75 13.8409 3.75 13.8369 3.75 13.833C3.75 13.8291 3.75 13.8251 3.75 13.8212C3.75 13.8173 3.75 13.8133 3.75 13.8094C3.75 13.8055 3.75 13.8016 3.75 13.7977C3.75 13.7937 3.75 13.7898 3.75 13.7859C3.75 13.782 3.75 13.7781 3.75 13.7742C3.75 13.7703 3.75 13.7664 3.75 13.7625C3.75 13.7586 3.75 13.7547 3.75 13.7508C3.75 13.7469 3.75 13.743 3.75 13.7391C3.75 13.7353 3.75 13.7314 3.75 13.7275C3.75 13.7236 3.75 13.7197 3.75 13.7159C3.75 13.712 3.75 13.7081 3.75 13.7043C3.75 13.7004 3.75 13.6965 3.75 13.6927C3.75 13.6888 3.75 13.6849 3.75 13.6811C3.75 13.6772 3.75 13.6734 3.75 13.6695C3.75 13.6657 3.75 13.6618 3.75 13.658C3.75 13.6542 3.75 13.6503 3.75 13.6465C3.75 13.6426 3.75 13.6388 3.75 13.635C3.75 13.6312 3.75 13.6273 3.75 13.6235C3.75 13.6197 3.75 13.6159 3.75 13.6121C3.75 13.6082 3.75 13.6044 3.75 13.6006C3.75 13.5968 3.75 13.593 3.75 13.5892C3.75 13.5854 3.75 13.5816 3.75 13.5778C3.75 13.574 3.75 13.5702 3.75 13.5664C3.75 13.5626 3.75 13.5588 3.75 13.5551C3.75 13.5513 3.75 13.5475 3.75 13.5437C3.75 13.54 3.75 13.5362 3.75 13.5324C3.75 13.5286 3.75 13.5249 3.75 13.5211C3.75 13.5174 3.75 13.5136 3.75 13.5098C3.75 13.5061 3.75 13.5023 3.75 13.4986C3.75 13.4948 3.75 13.4911 3.75 13.4873C3.75 13.4836 3.75 13.4799 3.75 13.4761C3.75 13.4724 3.75 13.4687 3.75 13.4649C3.75 13.4612 3.75 13.4575 3.75 13.4538C3.75 13.45 3.75 13.4463 3.75 13.4426C3.75 13.4389 3.75 13.4352 3.75 13.4315C3.75 13.4278 3.75 13.4241 3.75 13.4204C3.75 13.4167 3.75 13.413 3.75 13.4093C3.75 13.4056 3.75 13.4019 3.75 13.3982C3.75 13.3945 3.75 13.3908 3.75 13.3872C3.75 13.3835 3.75 13.3798 3.75 13.3761C3.75 13.3725 3.75 13.3688 3.75 13.3651C3.75 13.3615 3.75 13.3578 3.75 13.3542C3.75 13.3505 3.75 13.3468 3.75 13.3432C3.75 13.3395 3.75 13.3359 3.75 13.3323C3.75 13.3286 3.75 13.325 3.75 13.3213C3.75 13.3177 3.75 13.3141 3.75 13.3104C3.75 13.3068 3.75 13.3032 3.75 13.2996C3.75 13.296 3.75 13.2923 3.75 13.2887C3.75 13.2851 3.75 13.2815 3.75 13.2779C3.75 13.2743 3.75 13.2707 3.75 13.2671C3.75 13.2635 3.75 13.2599 3.75 13.2563C3.75 13.2527 3.75 13.2491 3.75 13.2456C3.75 13.242 3.75 13.2384 3.75 13.2348C3.75 13.2312 3.75 13.2277 3.75 13.2241C3.75 13.2205 3.75 13.217 3.75 13.2134C3.75 13.2099 3.75 13.2063 3.75 13.2027C3.75 13.1992 3.75 13.1956 3.75 13.1921C3.75 13.1886 3.75 13.185 3.75 13.1815C3.75 13.1779 3.75 13.1744 3.75 13.1709C3.75 13.1674 3.75 13.1638 3.75 13.1603C3.75 13.1568 3.75 13.1533 3.75 13.1498C3.75 13.1462 3.75 13.1427 3.75 13.1392C3.75 13.1357 3.75 13.1322 3.75 13.1287C3.75 13.1252 3.75 13.1217 3.75 13.1182C3.75 13.1148 3.75 13.1113 3.75 13.1078C3.75 13.1043 3.75 13.1008 3.75 13.0974C3.75 13.0939 3.75 13.0904 3.75 13.087C3.75 13.0835 3.75 13.08 3.75 13.0766C3.75 13.0731 3.75 13.0697 3.75 13.0662C3.75 13.0628 3.75 13.0593 3.75 13.0559C3.75 13.0524 3.75 13.049 3.75 13.0456C3.75 13.0421 3.75 13.0387 3.75 13.0353C3.75 13.0318 3.75 13.0284 3.75 13.025C3.75 13.0216 3.75 13.0182 3.75 13.0148C3.75 13.0114 3.75 13.008 3.75 13.0046C3.75 13.0012 3.75 12.9978 3.75 12.9944C3.75 12.991 3.75 12.9876 3.75 12.9842C3.75 12.9808 3.75 12.9775 3.75 12.9741C3.75 12.9707 3.75 12.9673 3.75 12.964C3.75 12.9606 3.75 12.9572 3.75 12.9539C3.75 12.9505 3.75 12.9472 3.75 12.9438C3.75 12.9405 3.75 12.9371 3.75 12.9338C3.75 12.9304 3.75 12.9271 3.75 12.9238C3.75 12.9204 3.75 12.9171 3.75 12.9138C3.75 12.9105 3.75 12.9071 3.75 12.9038C3.75 12.9005 3.75 12.8972 3.75 12.8939C3.75 12.8906 3.75 12.8873 3.75 12.884C3.75 12.8807 3.75 12.8774 3.75 12.8741C3.75 12.8708 3.75 12.8675 3.75 12.8642C3.75 12.861 3.75 12.8577 3.75 12.8544C3.75 12.8511 3.75 12.8479 3.75 12.8446C3.75 12.8414 3.75 12.8381 3.75 12.8348C3.75 12.8316 3.75 12.8283 3.75 12.8251C3.75 12.8218 3.75 12.8186 3.75 12.8154C3.75 12.8121 3.75 12.8089 3.75 12.8057C3.75 12.8024 3.75 12.7992 3.75 12.796C3.75 12.7928 3.75 12.7896 3.75 12.7864C3.75 12.7831 3.75 12.7799 3.75 12.7767C3.75 12.7735 3.75 12.7703 3.75 12.7672C3.75 12.764 3.75 12.7608 3.75 12.7576C3.75 12.7544 3.75 12.7512 3.75 12.7481C3.75 12.7449 3.75 12.7417 3.75 12.7386C3.75 12.7354 3.75 12.7322 3.75 12.7291C3.75 12.7259 3.75 12.7228 3.75 12.7196C3.75 12.7165 3.75 12.7133 3.75 12.7102C3.75 12.7071 3.75 12.7039 3.75 12.7008C3.75 12.6977 3.75 12.6945 3.75 12.6914C3.75 12.6883 3.75 12.6852 3.75 12.6821C3.75 12.679 3.75 12.6759 3.75 12.6728C3.75 12.6697 3.75 12.6666 3.75 12.6635C3.75 12.6604 3.75 12.6573 3.75 12.6542C3.75 12.6512 3.75 12.6481 3.75 12.645C3.75 12.6419 3.75 12.6389 3.75 12.6358C3.75 12.6327 3.75 12.6297 3.75 12.6266C3.75 12.6236 3.75 12.6205 3.75 12.6175C3.75 12.6144 3.75 12.6114 3.75 12.6084C3.75 12.6053 3.75 12.6023 3.75 12.5993C3.75 12.5963 3.75 12.5932 3.75 12.5902C3.75 12.5872 3.75 12.5842 3.75 12.5812C3.75 12.5782 3.75 12.5752 3.75 12.5722C3.75 12.5692 3.75 12.5662 3.75 12.5632C3.75 12.5603 3.75 12.5573 3.75 12.5543C3.75 12.5513 3.75 12.5484 3.75 12.5454C3.75 12.5424 3.75 12.5395 3.75 12.5365C3.75 12.5335 3.75 12.5306 3.75 12.5277C3.75 12.5247 3.75 12.5218 3.75 12.5188C3.75 12.5159 3.75 12.513 3.75 12.51C3.75 12.5071 3.75 12.5042 3.75 12.5013C3.75 12.4984 3.75 12.4954 3.75 12.4925C3.75 12.4896 3.75 12.4867 3.75 12.4838C3.75 12.4809 3.75 12.478 3.75 12.4752C3.75 12.4723 3.75 12.4694 3.75 12.4665C3.75 12.4636 3.75 12.4608 3.75 12.4579C3.75 12.455 3.75 12.4522 3.75 12.4493C3.75 12.4465 3.75 12.4436 3.75 12.4408C3.75 12.4379 3.75 12.4351 3.75 12.4322C3.75 12.4294 3.75 12.4266 3.75 12.4238C3.75 12.4209 3.75 12.4181 3.75 12.4153C3.75 12.4125 3.75 12.4097 3.75 12.4069C3.75 12.4041 3.75 12.4013 3.75 12.3985C3.75 12.3957 3.75 12.3929 3.75 12.3901C3.75 12.3873 3.75 12.3845 3.75 12.3818C3.75 12.379 3.75 12.3762 3.75 12.3735C3.75 12.3707 3.75 12.3679 3.75 12.3652C3.75 12.3624 3.75 12.3597 3.75 12.3569C3.75 12.3542 3.75 12.3515 3.75 12.3487C3.75 12.346 3.75 12.3433 3.75 12.3405C3.75 12.3378 3.75 12.3351 3.75 12.3324C3.75 12.3297 3.75 12.327 3.75 12.3243C3.75 12.3216 3.75 12.3189 3.75 12.3162C3.75 12.3135 3.75 12.3108 3.75 12.3081C3.75 12.3055 3.75 12.3028 3.75 12.3001C3.75 12.2975 3.75 12.2948 3.75 12.2921C3.75 12.2895 3.75 12.2868 3.75 12.2842C3.75 12.2815 3.75 12.2789 3.75 12.2763C3.75 12.2736 3.75 12.271 3.75 12.2684C3.75 12.2657 3.75 12.2631 3.75 12.2605C3.75 12.2579 3.75 12.2553 3.75 12.2527C3.75 12.2501 3.75 12.2475 3.75 12.2449C3.75 12.2423 3.75 12.2397 3.75 12.2371C3.75 12.2345 3.75 12.232 3.75 12.2294C3.75 12.2268 3.75 12.2243 3.75 12.2217C3.75 12.2191 3.75 12.2166 3.75 12.214C3.75 12.2115 3.75 12.2089 3.75 12.2064C3.75 12.2039 3.75 12.2013 3.75 12.1988C3.75 12.1963 3.75 12.1938 3.75 12.1912C3.75 12.1887 3.75 12.1862 3.75 12.1837C3.75 12.1812 3.75 12.1787 3.75 12.1762C3.75 12.1737 3.75 12.1712 3.75 12.1688C3.75 12.1663 3.75 12.1638 3.75 12.1613C3.75 12.1589 3.75 12.1564 3.75 12.1539C3.75 12.1515 3.75 12.149 3.75 12.1466C3.75 12.1441 3.75 12.1417 3.75 12.1393C3.75 12.1368 3.75 12.1344 3.75 12.132C3.75 12.1295 3.75 12.1271 3.75 12.1247C3.75 12.1223 3.75 12.1199 3.75 12.1175C3.75 12.1151 3.75 12.1127 3.75 12.1103C3.75 12.1079 3.75 12.1055 3.75 12.1031C3.75 12.1008 3.75 12.0984 3.75 12.096C3.75 12.0936 3.75 12.0913 3.75 12.0889C3.75 12.0866 3.75 12.0842 3.75 12.0819C3.75 12.0795 3.75 12.0772 3.75 12.0749C3.75 12.0725 3.75 12.0702 3.75 12.0679C3.75 12.0656 3.75 12.0632 3.75 12.0609C3.75 12.0586 3.75 12.0563 3.75 12.054C3.75 12.0517 3.75 12.0494 3.75 12.0471C3.75 12.0449 3.75 12.0426 3.75 12.0403C3.75 12.038 3.75 12.0358 3.75 12.0335C3.75 12.0312 3.75 12.029 3.75 12.0267C3.75 12.0245 3.75 12.0222 3.75 12.02C3.75 12.0178 3.75 12.0155 3.75 12.0133C3.75 12.0111 3.75 12.0088 3.75 12.0066C3.75 12.0044 3.75 12.0022 3.75 12H2.25ZM20.25 14C20.25 14.9702 20.25 16.5591 20.25 17.9998L21.75 17.9998C21.75 16.5591 21.75 14.9702 21.75 14H20.25ZM12.5961 7.75324C13.566 7.75846 14.6485 7.77209 15.557 7.8073C16.0119 7.82493 16.4155 7.84769 16.7359 7.87662C17.0808 7.90776 17.2605 7.94084 17.3133 7.95801L17.7768 6.53143C17.5423 6.45521 17.2032 6.41271 16.8707 6.3827C16.5138 6.35048 16.0816 6.32651 15.6151 6.30843C14.681 6.27222 13.5784 6.2585 12.6042 6.25326L12.5961 7.75324ZM21.75 14C21.75 12.1971 21.7593 11.1178 21.4686 10.2232L20.042 10.6867C20.2407 11.2984 20.25 12.0803 20.25 14H21.75ZM17.3133 7.95801C18.6072 8.37841 19.6216 9.39282 20.042 10.6867L21.4686 10.2232C20.8998 8.47263 19.5274 7.1002 17.7768 6.53143L17.3133 7.95801ZM3.75 12V5.69388H2.25V12H3.75ZM5.28571 3.75C5.2895 3.75 5.29328 3.75 5.29707 3.75C5.30085 3.75 5.30463 3.75 5.3084 3.75C5.31218 3.75 5.31595 3.75 5.31972 3.75C5.32349 3.75 5.32726 3.75 5.33103 3.75C5.33479 3.75 5.33856 3.75 5.34232 3.75C5.34608 3.75 5.34984 3.75 5.35359 3.75C5.35735 3.75 5.3611 3.75 5.36485 3.75C5.3686 3.75 5.37235 3.75 5.3761 3.75C5.37984 3.75 5.38359 3.75 5.38733 3.75C5.39107 3.75 5.39481 3.75 5.39854 3.75C5.40228 3.75 5.40601 3.75 5.40974 3.75C5.41347 3.75 5.4172 3.75 5.42092 3.75C5.42465 3.75 5.42837 3.75 5.43209 3.75C5.43581 3.75 5.43953 3.75 5.44324 3.75C5.44696 3.75 5.45067 3.75 5.45438 3.75C5.45809 3.75 5.46179 3.75 5.4655 3.75C5.4692 3.75 5.4729 3.75 5.4766 3.75C5.4803 3.75 5.484 3.75 5.48769 3.75C5.49139 3.75 5.49508 3.75 5.49876 3.75C5.50245 3.75 5.50614 3.75 5.50982 3.75C5.51351 3.75 5.51719 3.75 5.52086 3.75C5.52454 3.75 5.52822 3.75 5.53189 3.75C5.53556 3.75 5.53923 3.75 5.5429 3.75C5.54657 3.75 5.55023 3.75 5.5539 3.75C5.55756 3.75 5.56122 3.75 5.56488 3.75C5.56853 3.75 5.57219 3.75 5.57584 3.75C5.57949 3.75 5.58314 3.75 5.58679 3.75C5.59043 3.75 5.59408 3.75 5.59772 3.75C5.60136 3.75 5.605 3.75 5.60863 3.75C5.61227 3.75 5.6159 3.75 5.61953 3.75C5.62316 3.75 5.62679 3.75 5.63042 3.75C5.63404 3.75 5.63766 3.75 5.64128 3.75C5.6449 3.75 5.64852 3.75 5.65213 3.75C5.65575 3.75 5.65936 3.75 5.66297 3.75C5.66658 3.75 5.67019 3.75 5.67379 3.75C5.67739 3.75 5.68099 3.75 5.68459 3.75C5.68819 3.75 5.69179 3.75 5.69538 3.75C5.69897 3.75 5.70256 3.75 5.70615 3.75C5.70974 3.75 5.71332 3.75 5.7169 3.75C5.72049 3.75 5.72407 3.75 5.72764 3.75C5.73122 3.75 5.73479 3.75 5.73836 3.75C5.74194 3.75 5.7455 3.75 5.74907 3.75C5.75264 3.75 5.7562 3.75 5.75976 3.75C5.76332 3.75 5.76688 3.75 5.77043 3.75C5.77399 3.75 5.77754 3.75 5.78109 3.75C5.78464 3.75 5.78819 3.75 5.79173 3.75C5.79527 3.75 5.79882 3.75 5.80235 3.75C5.80589 3.75 5.80943 3.75 5.81296 3.75C5.81649 3.75 5.82002 3.75 5.82355 3.75C5.82708 3.75 5.8306 3.75 5.83413 3.75C5.83765 3.75 5.84117 3.75 5.84468 3.75C5.8482 3.75 5.85171 3.75 5.85523 3.75C5.85874 3.75 5.86224 3.75 5.86575 3.75C5.86926 3.75 5.87276 3.75 5.87626 3.75C5.87976 3.75 5.88326 3.75 5.88675 3.75C5.89024 3.75 5.89374 3.75 5.89722 3.75C5.90071 3.75 5.9042 3.75 5.90768 3.75C5.91117 3.75 5.91465 3.75 5.91812 3.75C5.9216 3.75 5.92508 3.75 5.92855 3.75C5.93202 3.75 5.93549 3.75 5.93896 3.75C5.94242 3.75 5.94589 3.75 5.94935 3.75C5.95281 3.75 5.95627 3.75 5.95972 3.75C5.96318 3.75 5.96663 3.75 5.97008 3.75C5.97353 3.75 5.97697 3.75 5.98042 3.75C5.98386 3.75 5.9873 3.75 5.99074 3.75C5.99418 3.75 5.99762 3.75 6.00105 3.75C6.00448 3.75 6.00791 3.75 6.01134 3.75C6.01476 3.75 6.01819 3.75 6.02161 3.75C6.02503 3.75 6.02845 3.75 6.03187 3.75C6.03528 3.75 6.03869 3.75 6.0421 3.75C6.04551 3.75 6.04892 3.75 6.05232 3.75C6.05573 3.75 6.05913 3.75 6.06253 3.75C6.06593 3.75 6.06932 3.75 6.07272 3.75C6.07611 3.75 6.0795 3.75 6.08289 3.75C6.08627 3.75 6.08966 3.75 6.09304 3.75C6.09642 3.75 6.0998 3.75 6.10317 3.75C6.10655 3.75 6.10992 3.75 6.11329 3.75C6.11666 3.75 6.12003 3.75 6.12339 3.75C6.12676 3.75 6.13012 3.75 6.13348 3.75C6.13683 3.75 6.14019 3.75 6.14354 3.75C6.14689 3.75 6.15024 3.75 6.15359 3.75C6.15694 3.75 6.16028 3.75 6.16362 3.75C6.16696 3.75 6.1703 3.75 6.17364 3.75C6.17697 3.75 6.1803 3.75 6.18363 3.75C6.18696 3.75 6.19029 3.75 6.19361 3.75C6.19694 3.75 6.20026 3.75 6.20357 3.75C6.20689 3.75 6.21021 3.75 6.21352 3.75C6.21683 3.75 6.22014 3.75 6.22344 3.75C6.22675 3.75 6.23005 3.75 6.23335 3.75C6.23665 3.75 6.23995 3.75 6.24324 3.75C6.24654 3.75 6.24983 3.75 6.25312 3.75C6.25641 3.75 6.25969 3.75 6.26297 3.75C6.26626 3.75 6.26954 3.75 6.27281 3.75C6.27609 3.75 6.27936 3.75 6.28263 3.75C6.2859 3.75 6.28917 3.75 6.29244 3.75C6.2957 3.75 6.29896 3.75 6.30222 3.75C6.30548 3.75 6.30873 3.75 6.31199 3.75C6.31524 3.75 6.31849 3.75 6.32174 3.75C6.32498 3.75 6.32823 3.75 6.33147 3.75C6.33471 3.75 6.33795 3.75 6.34118 3.75C6.34442 3.75 6.34765 3.75 6.35088 3.75C6.35411 3.75 6.35733 3.75 6.36056 3.75C6.36378 3.75 6.367 3.75 6.37022 3.75C6.37343 3.75 6.37665 3.75 6.37986 3.75C6.38307 3.75 6.38628 3.75 6.38948 3.75C6.39269 3.75 6.39589 3.75 6.39909 3.75C6.40229 3.75 6.40548 3.75 6.40867 3.75C6.41187 3.75 6.41506 3.75 6.41824 3.75C6.42143 3.75 6.42462 3.75 6.4278 3.75C6.43098 3.75 6.43415 3.75 6.43733 3.75C6.4405 3.75 6.44368 3.75 6.44684 3.75C6.45001 3.75 6.45318 3.75 6.45634 3.75C6.4595 3.75 6.46266 3.75 6.46582 3.75C6.46898 3.75 6.47213 3.75 6.47528 3.75C6.47843 3.75 6.48158 3.75 6.48472 3.75C6.48787 3.75 6.49101 3.75 6.49415 3.75C6.49728 3.75 6.50042 3.75 6.50355 3.75C6.50668 3.75 6.50981 3.75 6.51294 3.75C6.51606 3.75 6.51919 3.75 6.52231 3.75C6.52543 3.75 6.52854 3.75 6.53166 3.75C6.53477 3.75 6.53788 3.75 6.54099 3.75C6.5441 3.75 6.5472 3.75 6.5503 3.75C6.5534 3.75 6.5565 3.75 6.5596 3.75C6.56269 3.75 6.56578 3.75 6.56887 3.75C6.57196 3.75 6.57505 3.75 6.57813 3.75C6.58121 3.75 6.58429 3.75 6.58737 3.75C6.59045 3.75 6.59352 3.75 6.59659 3.75C6.59966 3.75 6.60273 3.75 6.60579 3.75C6.60886 3.75 6.61192 3.75 6.61498 3.75C6.61803 3.75 6.62109 3.75 6.62414 3.75C6.62719 3.75 6.63024 3.75 6.63329 3.75C6.63633 3.75 6.63937 3.75 6.64241 3.75C6.64545 3.75 6.64849 3.75 6.65152 3.75C6.65455 3.75 6.65758 3.75 6.66061 3.75C6.66364 3.75 6.66666 3.75 6.66968 3.75C6.6727 3.75 6.67572 3.75 6.67873 3.75C6.68175 3.75 6.68476 3.75 6.68777 3.75C6.69077 3.75 6.69378 3.75 6.69678 3.75C6.69978 3.75 6.70278 3.75 6.70577 3.75C6.70877 3.75 6.71176 3.75 6.71475 3.75C6.71774 3.75 6.72072 3.75 6.72371 3.75C6.72669 3.75 6.72967 3.75 6.73264 3.75C6.73562 3.75 6.73859 3.75 6.74156 3.75C6.74453 3.75 6.7475 3.75 6.75046 3.75C6.75343 3.75 6.75639 3.75 6.75934 3.75C6.7623 3.75 6.76525 3.75 6.7682 3.75C6.77115 3.75 6.7741 3.75 6.77705 3.75C6.77999 3.75 6.78293 3.75 6.78587 3.75C6.78881 3.75 6.79174 3.75 6.79467 3.75C6.7976 3.75 6.80053 3.75 6.80346 3.75C6.80638 3.75 6.8093 3.75 6.81222 3.75C6.81514 3.75 6.81806 3.75 6.82097 3.75C6.82388 3.75 6.82679 3.75 6.8297 3.75C6.8326 3.75 6.8355 3.75 6.8384 3.75C6.8413 3.75 6.8442 3.75 6.84709 3.75C6.84998 3.75 6.85287 3.75 6.85576 3.75C6.85865 3.75 6.86153 3.75 6.86441 3.75C6.86729 3.75 6.87016 3.75 6.87304 3.75C6.87591 3.75 6.87878 3.75 6.88165 3.75C6.88451 3.75 6.88738 3.75 6.89024 3.75C6.8931 3.75 6.89596 3.75 6.89881 3.75C6.90166 3.75 6.90451 3.75 6.90736 3.75C6.91021 3.75 6.91305 3.75 6.91589 3.75C6.91873 3.75 6.92157 3.75 6.9244 3.75C6.92724 3.75 6.93007 3.75 6.9329 3.75C6.93572 3.75 6.93855 3.75 6.94137 3.75C6.94419 3.75 6.94701 3.75 6.94982 3.75C6.95264 3.75 6.95545 3.75 6.95826 3.75C6.96106 3.75 6.96387 3.75 6.96667 3.75C6.96947 3.75 6.97227 3.75 6.97506 3.75C6.97786 3.75 6.98065 3.75 6.98344 3.75C6.98622 3.75 6.98901 3.75 6.99179 3.75C6.99457 3.75 6.99735 3.75 7.00012 3.75C7.0029 3.75 7.00567 3.75 7.00844 3.75C7.01121 3.75 7.01397 3.75 7.01673 3.75C7.01949 3.75 7.02225 3.75 7.02501 3.75C7.02776 3.75 7.03051 3.75 7.03326 3.75C7.03601 3.75 7.03875 3.75 7.0415 3.75C7.04424 3.75 7.04698 3.75 7.04971 3.75C7.05244 3.75 7.05518 3.75 7.0579 3.75C7.06063 3.75 7.06336 3.75 7.06608 3.75C7.0688 3.75 7.07152 3.75 7.07423 3.75C7.07695 3.75 7.07966 3.75 7.08237 3.75C7.08507 3.75 7.08778 3.75 7.09048 3.75C7.09318 3.75 7.09588 3.75 7.09857 3.75C7.10127 3.75 7.10396 3.75 7.10665 3.75C7.10933 3.75 7.11202 3.75 7.1147 3.75C7.11738 3.75 7.12006 3.75 7.12273 3.75C7.12541 3.75 7.12808 3.75 7.13074 3.75C7.13341 3.75 7.13607 3.75 7.13874 3.75C7.1414 3.75 7.14405 3.75 7.14671 3.75C7.14936 3.75 7.15201 3.75 7.15466 3.75C7.1573 3.75 7.15995 3.75 7.16259 3.75C7.16523 3.75 7.16787 3.75 7.1705 3.75C7.17313 3.75 7.17576 3.75 7.17839 3.75C7.18102 3.75 7.18364 3.75 7.18626 3.75C7.18888 3.75 7.19149 3.75 7.19411 3.75C7.19672 3.75 7.19933 3.75 7.20193 3.75C7.20454 3.75 7.20714 3.75 7.20974 3.75C7.21234 3.75 7.21494 3.75 7.21753 3.75C7.22012 3.75 7.22271 3.75 7.2253 3.75C7.22788 3.75 7.23046 3.75 7.23304 3.75C7.23562 3.75 7.23819 3.75 7.24077 3.75C7.24334 3.75 7.2459 3.75 7.24847 3.75C7.25103 3.75 7.25359 3.75 7.25615 3.75C7.25871 3.75 7.26126 3.75 7.26382 3.75C7.26637 3.75 7.26891 3.75 7.27146 3.75C7.274 3.75 7.27654 3.75 7.27908 3.75C7.28161 3.75 7.28415 3.75 7.28668 3.75C7.28921 3.75 7.29173 3.75 7.29426 3.75C7.29678 3.75 7.2993 3.75 7.30182 3.75C7.30433 3.75 7.30684 3.75 7.30935 3.75C7.31186 3.75 7.31437 3.75 7.31687 3.75C7.31937 3.75 7.32187 3.75 7.32436 3.75C7.32686 3.75 7.32935 3.75 7.33184 3.75C7.33433 3.75 7.33681 3.75 7.33929 3.75C7.34177 3.75 7.34425 3.75 7.34672 3.75C7.3492 3.75 7.35167 3.75 7.35413 3.75C7.3566 3.75 7.35906 3.75 7.36152 3.75C7.36398 3.75 7.36644 3.75 7.36889 3.75C7.37135 3.75 7.37379 3.75 7.37624 3.75C7.37869 3.75 7.38113 3.75 7.38357 3.75C7.386 3.75 7.38844 3.75 7.39087 3.75C7.3933 3.75 7.39573 3.75 7.39815 3.75C7.40058 3.75 7.403 3.75 7.40542 3.75C7.40783 3.75 7.41025 3.75 7.41266 3.75C7.41507 3.75 7.41748 3.75 7.41988 3.75C7.42228 3.75 7.42468 3.75 7.42708 3.75C7.42947 3.75 7.43186 3.75 7.43425 3.75C7.43664 3.75 7.43903 3.75 7.44141 3.75C7.44379 3.75 7.44617 3.75 7.44854 3.75C7.45092 3.75 7.45329 3.75 7.45566 3.75C7.45802 3.75 7.46039 3.75 7.46275 3.75C7.46511 3.75 7.46746 3.75 7.46982 3.75C7.47217 3.75 7.47452 3.75 7.47686 3.75C7.47921 3.75 7.48155 3.75 7.48389 3.75C7.48623 3.75 7.48856 3.75 7.49089 3.75C7.49322 3.75 7.49555 3.75 7.49788 3.75C7.5002 3.75 7.50252 3.75 7.50484 3.75C7.50715 3.75 7.50947 3.75 7.51178 3.75C7.51409 3.75 7.51639 3.75 7.51869 3.75C7.521 3.75 7.5233 3.75 7.52559 3.75C7.52789 3.75 7.53018 3.75 7.53246 3.75C7.53475 3.75 7.53704 3.75 7.53932 3.75C7.5416 3.75 7.54387 3.75 7.54615 3.75C7.54842 3.75 7.55069 3.75 7.55296 3.75C7.55522 3.75 7.55748 3.75 7.55974 3.75C7.562 3.75 7.56426 3.75 7.56651 3.75C7.56876 3.75 7.57101 3.75 7.57325 3.75C7.57549 3.75 7.57773 3.75 7.57997 3.75C7.58221 3.75 7.58444 3.75 7.58667 3.75C7.5889 3.75 7.59112 3.75 7.59335 3.75C7.59557 3.75 7.59779 3.75 7.6 3.75C7.60222 3.75 7.60443 3.75 7.60663 3.75C7.60884 3.75 7.61104 3.75 7.61324 3.75C7.61544 3.75 7.61764 3.75 7.61983 3.75C7.62202 3.75 7.62421 3.75 7.6264 3.75C7.62858 3.75 7.63076 3.75 7.63294 3.75C7.63512 3.75 7.63729 3.75 7.63946 3.75C7.64163 3.75 7.6438 3.75 7.64596 3.75C7.64813 3.75 7.65028 3.75 7.65244 3.75C7.65459 3.75 7.65675 3.75 7.65889 3.75C7.66104 3.75 7.66319 3.75 7.66533 3.75C7.66747 3.75 7.6696 3.75 7.67174 3.75C7.67387 3.75 7.676 3.75 7.67812 3.75C7.68025 3.75 7.68237 3.75 7.68449 3.75C7.68661 3.75 7.68872 3.75 7.69083 3.75C7.69294 3.75 7.69505 3.75 7.69715 3.75C7.69925 3.75 7.70135 3.75 7.70345 3.75C7.70554 3.75 7.70764 3.75 7.70972 3.75C7.71181 3.75 7.7139 3.75 7.71598 3.75C7.71806 3.75 7.72013 3.75 7.72221 3.75C7.72428 3.75 7.72635 3.75 7.72841 3.75C7.73048 3.75 7.73254 3.75 7.7346 3.75C7.73666 3.75 7.73871 3.75 7.74076 3.75C7.74281 3.75 7.74486 3.75 7.7469 3.75C7.74894 3.75 7.75098 3.75 7.75302 3.75C7.75505 3.75 7.75708 3.75 7.75911 3.75C7.76114 3.75 7.76316 3.75 7.76518 3.75C7.7672 3.75 7.76922 3.75 7.77123 3.75C7.77324 3.75 7.77525 3.75 7.77726 3.75C7.77926 3.75 7.78126 3.75 7.78326 3.75C7.78525 3.75 7.78725 3.75 7.78924 3.75C7.79123 3.75 7.79321 3.75 7.79519 3.75C7.79718 3.75 7.79915 3.75 7.80113 3.75C7.8031 3.75 7.80507 3.75 7.80704 3.75C7.809 3.75 7.81097 3.75 7.81293 3.75C7.81488 3.75 7.81684 3.75 7.81879 3.75C7.82074 3.75 7.82269 3.75 7.82463 3.75C7.82658 3.75 7.82852 3.75 7.83045 3.75C7.83239 3.75 7.83432 3.75 7.83625 3.75C7.83817 3.75 7.8401 3.75 7.84202 3.75C7.84394 3.75 7.84586 3.75 7.84777 3.75C7.84968 3.75 7.85159 3.75 7.85349 3.75C7.8554 3.75 7.8573 3.75 7.8592 3.75C7.86109 3.75 7.86299 3.75 7.86488 3.75C7.86676 3.75 7.86865 3.75 7.87053 3.75C7.87241 3.75 7.87429 3.75 7.87616 3.75C7.87804 3.75 7.87991 3.75 7.88177 3.75C7.88364 3.75 7.8855 3.75 7.88736 3.75C7.88922 3.75 7.89107 3.75 7.89292 3.75C7.89477 3.75 7.89662 3.75 7.89846 3.75C7.9003 3.75 7.90214 3.75 7.90398 3.75C7.90581 3.75 7.90764 3.75 7.90947 3.75C7.9113 3.75 7.91312 3.75 7.91494 3.75C7.91676 3.75 7.91857 3.75 7.92038 3.75C7.9222 3.75 7.924 3.75 7.92581 3.75C7.92761 3.75 7.92941 3.75 7.9312 3.75C7.933 3.75 7.93479 3.75 7.93658 3.75C7.93837 3.75 7.94015 3.75 7.94193 3.75C7.94371 3.75 7.94549 3.75 7.94726 3.75C7.94903 3.75 7.9508 3.75 7.95256 3.75C7.95433 3.75 7.95609 3.75 7.95784 3.75C7.9596 3.75 7.96135 3.75 7.9631 3.75C7.96485 3.75 7.96659 3.75 7.96833 3.75C7.97007 3.75 7.97181 3.75 7.97354 3.75C7.97527 3.75 7.977 3.75 7.97872 3.75C7.98045 3.75 7.98217 3.75 7.98388 3.75C7.9856 3.75 7.98731 3.75 7.98902 3.75C7.99073 3.75 7.99243 3.75 7.99413 3.75C7.99583 3.75 7.99753 3.75 7.99922 3.75C8.00092 3.75 8.0026 3.75 8.00429 3.75C8.00597 3.75 8.00765 3.75 8.00933 3.75C8.01101 3.75 8.01268 3.75 8.01435 3.75C8.01602 3.75 8.01768 3.75 8.01934 3.75C8.021 3.75 8.02266 3.75 8.02431 3.75C8.02596 3.75 8.02761 3.75 8.02925 3.75C8.0309 3.75 8.03254 3.75 8.03417 3.75C8.03581 3.75 8.03744 3.75 8.03907 3.75C8.0407 3.75 8.04232 3.75 8.04394 3.75C8.04556 3.75 8.04718 3.75 8.04879 3.75C8.0504 3.75 8.05201 3.75 8.05362 3.75C8.05522 3.75 8.05682 3.75 8.05842 3.75C8.06001 3.75 8.0616 3.75 8.06319 3.75C8.06478 3.75 8.06636 3.75 8.06794 3.75C8.06952 3.75 8.0711 3.75 8.07267 3.75C8.07424 3.75 8.07581 3.75 8.07737 3.75C8.07894 3.75 8.08049 3.75 8.08205 3.75C8.0836 3.75 8.08516 3.75 8.0867 3.75C8.08825 3.75 8.08979 3.75 8.09133 3.75C8.09287 3.75 8.09441 3.75 8.09594 3.75C8.09747 3.75 8.09899 3.75 8.10052 3.75C8.10204 3.75 8.10356 3.75 8.10507 3.75C8.10659 3.75 8.1081 3.75 8.1096 3.75C8.11111 3.75 8.11261 3.75 8.11411 3.75C8.11561 3.75 8.1171 3.75 8.11859 3.75C8.12008 3.75 8.12157 3.75 8.12305 3.75C8.12453 3.75 8.12601 3.75 8.12748 3.75C8.12895 3.75 8.13042 3.75 8.13189 3.75C8.13335 3.75 8.13482 3.75 8.13627 3.75C8.13773 3.75 8.13918 3.75 8.14063 3.75C8.14208 3.75 8.14352 3.75 8.14496 3.75C8.1464 3.75 8.14784 3.75 8.14927 3.75C8.1507 3.75 8.15213 3.75 8.15356 3.75C8.15498 3.75 8.1564 3.75 8.15782 3.75C8.15923 3.75 8.16064 3.75 8.16205 3.75C8.16346 3.75 8.16486 3.75 8.16626 3.75C8.16766 3.75 8.16905 3.75 8.17044 3.75C8.17183 3.75 8.17322 3.75 8.1746 3.75C8.17598 3.75 8.17736 3.75 8.17874 3.75C8.18011 3.75 8.18148 3.75 8.18285 3.75C8.18421 3.75 8.18557 3.75 8.18693 3.75C8.18829 3.75 8.18964 3.75 8.19099 3.75C8.19234 3.75 8.19368 3.75 8.19502 3.75C8.19636 3.75 8.1977 3.75 8.19903 3.75C8.20036 3.75 8.20169 3.75 8.20301 3.75C8.20434 3.75 8.20566 3.75 8.20697 3.75C8.20829 3.75 8.2096 3.75 8.21091 3.75C8.21221 3.75 8.21352 3.75 8.21481 3.75C8.21611 3.75 8.21741 3.75 8.2187 3.75C8.21999 3.75 8.22127 3.75 8.22255 3.75C8.22384 3.75 8.22511 3.75 8.22639 3.75C8.22766 3.75 8.22893 3.75 8.23019 3.75C8.23146 3.75 8.23272 3.75 8.23397 3.75C8.23523 3.75 8.23648 3.75 8.23773 3.75C8.23898 3.75 8.24022 3.75 8.24146 3.75C8.2427 3.75 8.24393 3.75 8.24516 3.75C8.2464 3.75 8.24762 3.75 8.24884 3.75C8.25007 3.75 8.25128 3.75 8.2525 3.75C8.25371 3.75 8.25492 3.75 8.25613 3.75C8.25733 3.75 8.25853 3.75 8.25973 3.75C8.26093 3.75 8.26212 3.75 8.26331 3.75C8.26449 3.75 8.26568 3.75 8.26686 3.75C8.26804 3.75 8.26921 3.75 8.27038 3.75C8.27155 3.75 8.27272 3.75 8.27388 3.75C8.27505 3.75 8.2762 3.75 8.27736 3.75C8.27851 3.75 8.27966 3.75 8.28081 3.75C8.28195 3.75 8.28309 3.75 8.28423 3.75C8.28537 3.75 8.2865 3.75 8.28763 3.75C8.28875 3.75 8.28988 3.75 8.291 3.75C8.29212 3.75 8.29323 3.75 8.29434 3.75C8.29545 3.75 8.29656 3.75 8.29766 3.75C8.29876 3.75 8.29986 3.75 8.30096 3.75C8.30205 3.75 8.30314 3.75 8.30422 3.75C8.30531 3.75 8.30639 3.75 8.30747 3.75C8.30854 3.75 8.30961 3.75 8.31068 3.75C8.31175 3.75 8.31281 3.75 8.31387 3.75C8.31493 3.75 8.31598 3.75 8.31703 3.75C8.31808 3.75 8.31913 3.75 8.32017 3.75C8.32121 3.75 8.32225 3.75 8.32328 3.75C8.32432 3.75 8.32534 3.75 8.32637 3.75C8.32739 3.75 8.32841 3.75 8.32943 3.75C8.33044 3.75 8.33145 3.75 8.33246 3.75C8.33347 3.75 8.33447 3.75 8.33547 3.75C8.33647 3.75 8.33746 3.75 8.33845 3.75C8.33944 3.75 8.34042 3.75 8.3414 3.75C8.34238 3.75 8.34336 3.75 8.34433 3.75C8.3453 3.75 8.34627 3.75 8.34723 3.75C8.34819 3.75 8.34915 3.75 8.35011 3.75C8.35106 3.75 8.35201 3.75 8.35296 3.75C8.3539 3.75 8.35484 3.75 8.35578 3.75C8.35672 3.75 8.35765 3.75 8.35857 3.75C8.3595 3.75 8.36043 3.75 8.36134 3.75C8.36226 3.75 8.36318 3.75 8.36409 3.75C8.365 3.75 8.3659 3.75 8.3668 3.75C8.36771 3.75 8.3686 3.75 8.36949 3.75C8.37039 3.75 8.37127 3.75 8.37216 3.75C8.37304 3.75 8.37392 3.75 8.37479 3.75C8.37567 3.75 8.37654 3.75 8.3774 3.75C8.37827 3.75 8.37913 3.75 8.37999 3.75C8.38085 3.75 8.3817 3.75 8.38255 3.75C8.38339 3.75 8.38424 3.75 8.38508 3.75C8.38591 3.75 8.38675 3.75 8.38758 3.75C8.38841 3.75 8.38924 3.75 8.39006 3.75C8.39088 3.75 8.39169 3.75 8.39251 3.75C8.39332 3.75 8.39413 3.75 8.39493 3.75C8.39573 3.75 8.39653 3.75 8.39733 3.75C8.39812 3.75 8.39891 3.75 8.39969 3.75C8.40048 3.75 8.40126 3.75 8.40204 3.75C8.40281 3.75 8.40359 3.75 8.40435 3.75C8.40512 3.75 8.40588 3.75 8.40664 3.75C8.4074 3.75 8.40815 3.75 8.4089 3.75C8.40965 3.75 8.4104 3.75 8.41114 3.75C8.41188 3.75 8.41261 3.75 8.41335 3.75C8.41408 3.75 8.4148 3.75 8.41553 3.75C8.41625 3.75 8.41697 3.75 8.41768 3.75C8.41839 3.75 8.4191 3.75 8.41981 3.75C8.42051 3.75 8.42121 3.75 8.42191 3.75C8.4226 3.75 8.42329 3.75 8.42398 3.75C8.42466 3.75 8.42535 3.75 8.42602 3.75C8.4267 3.75 8.42737 3.75 8.42804 3.75C8.42871 3.75 8.42937 3.75 8.43003 3.75C8.43069 3.75 8.43134 3.75 8.43199 3.75C8.43264 3.75 8.43329 3.75 8.43393 3.75C8.43457 3.75 8.43521 3.75 8.43584 3.75C8.43647 3.75 8.4371 3.75 8.43772 3.75C8.43834 3.75 8.43896 3.75 8.43957 3.75C8.44019 3.75 8.44079 3.75 8.4414 3.75C8.442 3.75 8.4426 3.75 8.4432 3.75C8.44379 3.75 8.44438 3.75 8.44497 3.75C8.44556 3.75 8.44614 3.75 8.44671 3.75C8.44729 3.75 8.44786 3.75 8.44843 3.75C8.449 3.75 8.44956 3.75 8.45012 3.75C8.45068 3.75 8.45123 3.75 8.45178 3.75C8.45233 3.75 8.45287 3.75 8.45341 3.75C8.45395 3.75 8.45449 3.75 8.45502 3.75C8.45555 3.75 8.45608 3.75 8.4566 3.75C8.45712 3.75 8.45764 3.75 8.45815 3.75C8.45866 3.75 8.45917 3.75 8.45967 3.75C8.46017 3.75 8.46067 3.75 8.46117 3.75C8.46166 3.75 8.46215 3.75 8.46263 3.75C8.46312 3.75 8.4636 3.75 8.46407 3.75C8.46455 3.75 8.46502 3.75 8.46548 3.75C8.46595 3.75 8.46641 3.75 8.46687 3.75C8.46733 3.75 8.46778 3.75 8.46822 3.75C8.46867 3.75 8.46911 3.75 8.46955 3.75C8.46999 3.75 8.47042 3.75 8.47085 3.75C8.47128 3.75 8.47171 3.75 8.47213 3.75C8.47254 3.75 8.47296 3.75 8.47337 3.75C8.47378 3.75 8.47418 3.75 8.47459 3.75C8.47499 3.75 8.47538 3.75 8.47577 3.75C8.47616 3.75 8.47655 3.75 8.47693 3.75C8.47732 3.75 8.47769 3.75 8.47807 3.75C8.47844 3.75 8.47881 3.75 8.47917 3.75C8.47953 3.75 8.47989 3.75 8.48025 3.75C8.4806 3.75 8.48095 3.75 8.48129 3.75C8.48164 3.75 8.48198 3.75 8.48231 3.75C8.48265 3.75 8.48298 3.75 8.4833 3.75C8.48363 3.75 8.48395 3.75 8.48427 3.75C8.48458 3.75 8.48489 3.75 8.4852 3.75C8.48551 3.75 8.48581 3.75 8.48611 3.75C8.4864 3.75 8.4867 3.75 8.48698 3.75C8.48727 3.75 8.48756 3.75 8.48783 3.75C8.48811 3.75 8.48839 3.75 8.48865 3.75C8.48892 3.75 8.48919 3.75 8.48945 3.75C8.48971 3.75 8.48996 3.75 8.49021 3.75C8.49046 3.75 8.49071 3.75 8.49095 3.75C8.49119 3.75 8.49142 3.75 8.49165 3.75C8.49189 3.75 8.49211 3.75 8.49233 3.75C8.49255 3.75 8.49277 3.75 8.49298 3.75C8.49319 3.75 8.4934 3.75 8.4936 3.75C8.49381 3.75 8.494 3.75 8.4942 3.75C8.49439 3.75 8.49458 3.75 8.49476 3.75C8.49494 3.75 8.49512 3.75 8.4953 3.75C8.49547 3.75 8.49564 3.75 8.4958 3.75C8.49597 3.75 8.49613 3.75 8.49628 3.75C8.49644 3.75 8.49659 3.75 8.49673 3.75C8.49688 3.75 8.49702 3.75 8.49715 3.75C8.49729 3.75 8.49742 3.75 8.49754 3.75C8.49767 3.75 8.49779 3.75 8.49791 3.75C8.49802 3.75 8.49813 3.75 8.49824 3.75C8.49835 3.75 8.49845 3.75 8.49854 3.75C8.49864 3.75 8.49873 3.75 8.49882 3.75C8.49891 3.75 8.49899 3.75 8.49907 3.75C8.49915 3.75 8.49922 3.75 8.49929 3.75C8.49935 3.75 8.49942 3.75 8.49948 3.75C8.49953 3.75 8.49959 3.75 8.49964 3.75C8.49968 3.75 8.49973 3.75 8.49977 3.75C8.49981 3.75 8.49984 3.75 8.49987 3.75C8.4999 3.75 8.49992 3.75 8.49994 3.75C8.49996 3.75 8.49998 3.75 8.49999 3.75C8.5 3.75 8.5 3.75 8.5 3C8.5 2.25 8.5 2.25 8.49999 2.25C8.49998 2.25 8.49996 2.25 8.49994 2.25C8.49992 2.25 8.4999 2.25 8.49987 2.25C8.49984 2.25 8.49981 2.25 8.49977 2.25C8.49973 2.25 8.49968 2.25 8.49964 2.25C8.49959 2.25 8.49953 2.25 8.49948 2.25C8.49942 2.25 8.49935 2.25 8.49929 2.25C8.49922 2.25 8.49915 2.25 8.49907 2.25C8.49899 2.25 8.49891 2.25 8.49882 2.25C8.49873 2.25 8.49864 2.25 8.49854 2.25C8.49845 2.25 8.49835 2.25 8.49824 2.25C8.49813 2.25 8.49802 2.25 8.49791 2.25C8.49779 2.25 8.49767 2.25 8.49754 2.25C8.49742 2.25 8.49729 2.25 8.49715 2.25C8.49702 2.25 8.49688 2.25 8.49673 2.25C8.49659 2.25 8.49644 2.25 8.49628 2.25C8.49613 2.25 8.49597 2.25 8.4958 2.25C8.49564 2.25 8.49547 2.25 8.4953 2.25C8.49512 2.25 8.49494 2.25 8.49476 2.25C8.49458 2.25 8.49439 2.25 8.4942 2.25C8.494 2.25 8.49381 2.25 8.4936 2.25C8.4934 2.25 8.49319 2.25 8.49298 2.25C8.49277 2.25 8.49255 2.25 8.49233 2.25C8.49211 2.25 8.49189 2.25 8.49165 2.25C8.49142 2.25 8.49119 2.25 8.49095 2.25C8.49071 2.25 8.49046 2.25 8.49021 2.25C8.48996 2.25 8.48971 2.25 8.48945 2.25C8.48919 2.25 8.48892 2.25 8.48865 2.25C8.48839 2.25 8.48811 2.25 8.48783 2.25C8.48756 2.25 8.48727 2.25 8.48698 2.25C8.4867 2.25 8.4864 2.25 8.48611 2.25C8.48581 2.25 8.48551 2.25 8.4852 2.25C8.48489 2.25 8.48458 2.25 8.48427 2.25C8.48395 2.25 8.48363 2.25 8.4833 2.25C8.48298 2.25 8.48265 2.25 8.48231 2.25C8.48198 2.25 8.48164 2.25 8.48129 2.25C8.48095 2.25 8.4806 2.25 8.48025 2.25C8.47989 2.25 8.47953 2.25 8.47917 2.25C8.47881 2.25 8.47844 2.25 8.47807 2.25C8.47769 2.25 8.47732 2.25 8.47693 2.25C8.47655 2.25 8.47616 2.25 8.47577 2.25C8.47538 2.25 8.47499 2.25 8.47459 2.25C8.47418 2.25 8.47378 2.25 8.47337 2.25C8.47296 2.25 8.47254 2.25 8.47213 2.25C8.47171 2.25 8.47128 2.25 8.47085 2.25C8.47042 2.25 8.46999 2.25 8.46955 2.25C8.46911 2.25 8.46867 2.25 8.46822 2.25C8.46778 2.25 8.46733 2.25 8.46687 2.25C8.46641 2.25 8.46595 2.25 8.46548 2.25C8.46502 2.25 8.46455 2.25 8.46407 2.25C8.4636 2.25 8.46312 2.25 8.46263 2.25C8.46215 2.25 8.46166 2.25 8.46117 2.25C8.46067 2.25 8.46017 2.25 8.45967 2.25C8.45917 2.25 8.45866 2.25 8.45815 2.25C8.45764 2.25 8.45712 2.25 8.4566 2.25C8.45608 2.25 8.45555 2.25 8.45502 2.25C8.45449 2.25 8.45395 2.25 8.45341 2.25C8.45287 2.25 8.45233 2.25 8.45178 2.25C8.45123 2.25 8.45068 2.25 8.45012 2.25C8.44956 2.25 8.449 2.25 8.44843 2.25C8.44786 2.25 8.44729 2.25 8.44671 2.25C8.44614 2.25 8.44556 2.25 8.44497 2.25C8.44438 2.25 8.44379 2.25 8.4432 2.25C8.4426 2.25 8.442 2.25 8.4414 2.25C8.44079 2.25 8.44019 2.25 8.43957 2.25C8.43896 2.25 8.43834 2.25 8.43772 2.25C8.4371 2.25 8.43647 2.25 8.43584 2.25C8.43521 2.25 8.43457 2.25 8.43393 2.25C8.43329 2.25 8.43264 2.25 8.43199 2.25C8.43134 2.25 8.43069 2.25 8.43003 2.25C8.42937 2.25 8.42871 2.25 8.42804 2.25C8.42737 2.25 8.4267 2.25 8.42602 2.25C8.42535 2.25 8.42466 2.25 8.42398 2.25C8.42329 2.25 8.4226 2.25 8.42191 2.25C8.42121 2.25 8.42051 2.25 8.41981 2.25C8.4191 2.25 8.41839 2.25 8.41768 2.25C8.41697 2.25 8.41625 2.25 8.41553 2.25C8.4148 2.25 8.41408 2.25 8.41335 2.25C8.41261 2.25 8.41188 2.25 8.41114 2.25C8.4104 2.25 8.40965 2.25 8.4089 2.25C8.40815 2.25 8.4074 2.25 8.40664 2.25C8.40588 2.25 8.40512 2.25 8.40435 2.25C8.40359 2.25 8.40281 2.25 8.40204 2.25C8.40126 2.25 8.40048 2.25 8.39969 2.25C8.39891 2.25 8.39812 2.25 8.39733 2.25C8.39653 2.25 8.39573 2.25 8.39493 2.25C8.39413 2.25 8.39332 2.25 8.39251 2.25C8.39169 2.25 8.39088 2.25 8.39006 2.25C8.38924 2.25 8.38841 2.25 8.38758 2.25C8.38675 2.25 8.38591 2.25 8.38508 2.25C8.38424 2.25 8.38339 2.25 8.38255 2.25C8.3817 2.25 8.38085 2.25 8.37999 2.25C8.37913 2.25 8.37827 2.25 8.3774 2.25C8.37654 2.25 8.37567 2.25 8.37479 2.25C8.37392 2.25 8.37304 2.25 8.37216 2.25C8.37127 2.25 8.37039 2.25 8.36949 2.25C8.3686 2.25 8.36771 2.25 8.3668 2.25C8.3659 2.25 8.365 2.25 8.36409 2.25C8.36318 2.25 8.36226 2.25 8.36134 2.25C8.36043 2.25 8.3595 2.25 8.35857 2.25C8.35765 2.25 8.35672 2.25 8.35578 2.25C8.35484 2.25 8.3539 2.25 8.35296 2.25C8.35201 2.25 8.35106 2.25 8.35011 2.25C8.34915 2.25 8.34819 2.25 8.34723 2.25C8.34627 2.25 8.3453 2.25 8.34433 2.25C8.34336 2.25 8.34238 2.25 8.3414 2.25C8.34042 2.25 8.33944 2.25 8.33845 2.25C8.33746 2.25 8.33647 2.25 8.33547 2.25C8.33447 2.25 8.33347 2.25 8.33246 2.25C8.33145 2.25 8.33044 2.25 8.32943 2.25C8.32841 2.25 8.32739 2.25 8.32637 2.25C8.32534 2.25 8.32432 2.25 8.32328 2.25C8.32225 2.25 8.32121 2.25 8.32017 2.25C8.31913 2.25 8.31808 2.25 8.31703 2.25C8.31598 2.25 8.31493 2.25 8.31387 2.25C8.31281 2.25 8.31175 2.25 8.31068 2.25C8.30961 2.25 8.30854 2.25 8.30747 2.25C8.30639 2.25 8.30531 2.25 8.30422 2.25C8.30314 2.25 8.30205 2.25 8.30096 2.25C8.29986 2.25 8.29876 2.25 8.29766 2.25C8.29656 2.25 8.29545 2.25 8.29434 2.25C8.29323 2.25 8.29212 2.25 8.291 2.25C8.28988 2.25 8.28875 2.25 8.28763 2.25C8.2865 2.25 8.28537 2.25 8.28423 2.25C8.28309 2.25 8.28195 2.25 8.28081 2.25C8.27966 2.25 8.27851 2.25 8.27736 2.25C8.2762 2.25 8.27505 2.25 8.27388 2.25C8.27272 2.25 8.27155 2.25 8.27038 2.25C8.26921 2.25 8.26804 2.25 8.26686 2.25C8.26568 2.25 8.26449 2.25 8.26331 2.25C8.26212 2.25 8.26093 2.25 8.25973 2.25C8.25853 2.25 8.25733 2.25 8.25613 2.25C8.25492 2.25 8.25371 2.25 8.2525 2.25C8.25128 2.25 8.25007 2.25 8.24884 2.25C8.24762 2.25 8.2464 2.25 8.24516 2.25C8.24393 2.25 8.2427 2.25 8.24146 2.25C8.24022 2.25 8.23898 2.25 8.23773 2.25C8.23648 2.25 8.23523 2.25 8.23397 2.25C8.23272 2.25 8.23146 2.25 8.23019 2.25C8.22893 2.25 8.22766 2.25 8.22639 2.25C8.22511 2.25 8.22384 2.25 8.22255 2.25C8.22127 2.25 8.21999 2.25 8.2187 2.25C8.21741 2.25 8.21611 2.25 8.21481 2.25C8.21352 2.25 8.21221 2.25 8.21091 2.25C8.2096 2.25 8.20829 2.25 8.20697 2.25C8.20566 2.25 8.20434 2.25 8.20301 2.25C8.20169 2.25 8.20036 2.25 8.19903 2.25C8.1977 2.25 8.19636 2.25 8.19502 2.25C8.19368 2.25 8.19234 2.25 8.19099 2.25C8.18964 2.25 8.18829 2.25 8.18693 2.25C8.18557 2.25 8.18421 2.25 8.18285 2.25C8.18148 2.25 8.18011 2.25 8.17874 2.25C8.17736 2.25 8.17598 2.25 8.1746 2.25C8.17322 2.25 8.17183 2.25 8.17044 2.25C8.16905 2.25 8.16766 2.25 8.16626 2.25C8.16486 2.25 8.16346 2.25 8.16205 2.25C8.16064 2.25 8.15923 2.25 8.15782 2.25C8.1564 2.25 8.15498 2.25 8.15356 2.25C8.15213 2.25 8.1507 2.25 8.14927 2.25C8.14784 2.25 8.1464 2.25 8.14496 2.25C8.14352 2.25 8.14208 2.25 8.14063 2.25C8.13918 2.25 8.13773 2.25 8.13627 2.25C8.13482 2.25 8.13335 2.25 8.13189 2.25C8.13042 2.25 8.12895 2.25 8.12748 2.25C8.12601 2.25 8.12453 2.25 8.12305 2.25C8.12157 2.25 8.12008 2.25 8.11859 2.25C8.1171 2.25 8.11561 2.25 8.11411 2.25C8.11261 2.25 8.11111 2.25 8.1096 2.25C8.1081 2.25 8.10659 2.25 8.10507 2.25C8.10356 2.25 8.10204 2.25 8.10052 2.25C8.09899 2.25 8.09747 2.25 8.09594 2.25C8.09441 2.25 8.09287 2.25 8.09133 2.25C8.08979 2.25 8.08825 2.25 8.0867 2.25C8.08516 2.25 8.0836 2.25 8.08205 2.25C8.08049 2.25 8.07894 2.25 8.07737 2.25C8.07581 2.25 8.07424 2.25 8.07267 2.25C8.0711 2.25 8.06952 2.25 8.06794 2.25C8.06636 2.25 8.06478 2.25 8.06319 2.25C8.0616 2.25 8.06001 2.25 8.05842 2.25C8.05682 2.25 8.05522 2.25 8.05362 2.25C8.05201 2.25 8.0504 2.25 8.04879 2.25C8.04718 2.25 8.04556 2.25 8.04394 2.25C8.04232 2.25 8.0407 2.25 8.03907 2.25C8.03744 2.25 8.03581 2.25 8.03417 2.25C8.03254 2.25 8.0309 2.25 8.02925 2.25C8.02761 2.25 8.02596 2.25 8.02431 2.25C8.02266 2.25 8.021 2.25 8.01934 2.25C8.01768 2.25 8.01602 2.25 8.01435 2.25C8.01268 2.25 8.01101 2.25 8.00933 2.25C8.00765 2.25 8.00597 2.25 8.00429 2.25C8.0026 2.25 8.00092 2.25 7.99922 2.25C7.99753 2.25 7.99583 2.25 7.99413 2.25C7.99243 2.25 7.99073 2.25 7.98902 2.25C7.98731 2.25 7.9856 2.25 7.98388 2.25C7.98217 2.25 7.98045 2.25 7.97872 2.25C7.977 2.25 7.97527 2.25 7.97354 2.25C7.97181 2.25 7.97007 2.25 7.96833 2.25C7.96659 2.25 7.96485 2.25 7.9631 2.25C7.96135 2.25 7.9596 2.25 7.95784 2.25C7.95609 2.25 7.95433 2.25 7.95256 2.25C7.9508 2.25 7.94903 2.25 7.94726 2.25C7.94549 2.25 7.94371 2.25 7.94193 2.25C7.94015 2.25 7.93837 2.25 7.93658 2.25C7.93479 2.25 7.933 2.25 7.9312 2.25C7.92941 2.25 7.92761 2.25 7.92581 2.25C7.924 2.25 7.9222 2.25 7.92038 2.25C7.91857 2.25 7.91676 2.25 7.91494 2.25C7.91312 2.25 7.9113 2.25 7.90947 2.25C7.90764 2.25 7.90581 2.25 7.90398 2.25C7.90214 2.25 7.9003 2.25 7.89846 2.25C7.89662 2.25 7.89477 2.25 7.89292 2.25C7.89107 2.25 7.88922 2.25 7.88736 2.25C7.8855 2.25 7.88364 2.25 7.88177 2.25C7.87991 2.25 7.87804 2.25 7.87616 2.25C7.87429 2.25 7.87241 2.25 7.87053 2.25C7.86865 2.25 7.86676 2.25 7.86488 2.25C7.86299 2.25 7.86109 2.25 7.8592 2.25C7.8573 2.25 7.8554 2.25 7.85349 2.25C7.85159 2.25 7.84968 2.25 7.84777 2.25C7.84586 2.25 7.84394 2.25 7.84202 2.25C7.8401 2.25 7.83817 2.25 7.83625 2.25C7.83432 2.25 7.83239 2.25 7.83045 2.25C7.82852 2.25 7.82658 2.25 7.82463 2.25C7.82269 2.25 7.82074 2.25 7.81879 2.25C7.81684 2.25 7.81488 2.25 7.81293 2.25C7.81097 2.25 7.809 2.25 7.80704 2.25C7.80507 2.25 7.8031 2.25 7.80113 2.25C7.79915 2.25 7.79718 2.25 7.79519 2.25C7.79321 2.25 7.79123 2.25 7.78924 2.25C7.78725 2.25 7.78525 2.25 7.78326 2.25C7.78126 2.25 7.77926 2.25 7.77726 2.25C7.77525 2.25 7.77324 2.25 7.77123 2.25C7.76922 2.25 7.7672 2.25 7.76518 2.25C7.76316 2.25 7.76114 2.25 7.75911 2.25C7.75708 2.25 7.75505 2.25 7.75302 2.25C7.75098 2.25 7.74894 2.25 7.7469 2.25C7.74486 2.25 7.74281 2.25 7.74076 2.25C7.73871 2.25 7.73666 2.25 7.7346 2.25C7.73254 2.25 7.73048 2.25 7.72841 2.25C7.72635 2.25 7.72428 2.25 7.72221 2.25C7.72013 2.25 7.71806 2.25 7.71598 2.25C7.7139 2.25 7.71181 2.25 7.70972 2.25C7.70764 2.25 7.70554 2.25 7.70345 2.25C7.70135 2.25 7.69925 2.25 7.69715 2.25C7.69505 2.25 7.69294 2.25 7.69083 2.25C7.68872 2.25 7.68661 2.25 7.68449 2.25C7.68237 2.25 7.68025 2.25 7.67812 2.25C7.676 2.25 7.67387 2.25 7.67174 2.25C7.6696 2.25 7.66747 2.25 7.66533 2.25C7.66319 2.25 7.66104 2.25 7.65889 2.25C7.65675 2.25 7.65459 2.25 7.65244 2.25C7.65028 2.25 7.64813 2.25 7.64596 2.25C7.6438 2.25 7.64163 2.25 7.63946 2.25C7.63729 2.25 7.63512 2.25 7.63294 2.25C7.63076 2.25 7.62858 2.25 7.6264 2.25C7.62421 2.25 7.62202 2.25 7.61983 2.25C7.61764 2.25 7.61544 2.25 7.61324 2.25C7.61104 2.25 7.60884 2.25 7.60663 2.25C7.60443 2.25 7.60222 2.25 7.6 2.25C7.59779 2.25 7.59557 2.25 7.59335 2.25C7.59112 2.25 7.5889 2.25 7.58667 2.25C7.58444 2.25 7.58221 2.25 7.57997 2.25C7.57773 2.25 7.57549 2.25 7.57325 2.25C7.57101 2.25 7.56876 2.25 7.56651 2.25C7.56426 2.25 7.562 2.25 7.55974 2.25C7.55748 2.25 7.55522 2.25 7.55296 2.25C7.55069 2.25 7.54842 2.25 7.54615 2.25C7.54387 2.25 7.5416 2.25 7.53932 2.25C7.53704 2.25 7.53475 2.25 7.53246 2.25C7.53018 2.25 7.52789 2.25 7.52559 2.25C7.5233 2.25 7.521 2.25 7.51869 2.25C7.51639 2.25 7.51409 2.25 7.51178 2.25C7.50947 2.25 7.50715 2.25 7.50484 2.25C7.50252 2.25 7.5002 2.25 7.49788 2.25C7.49555 2.25 7.49322 2.25 7.49089 2.25C7.48856 2.25 7.48623 2.25 7.48389 2.25C7.48155 2.25 7.47921 2.25 7.47686 2.25C7.47452 2.25 7.47217 2.25 7.46982 2.25C7.46746 2.25 7.46511 2.25 7.46275 2.25C7.46039 2.25 7.45802 2.25 7.45566 2.25C7.45329 2.25 7.45092 2.25 7.44854 2.25C7.44617 2.25 7.44379 2.25 7.44141 2.25C7.43903 2.25 7.43664 2.25 7.43425 2.25C7.43186 2.25 7.42947 2.25 7.42708 2.25C7.42468 2.25 7.42228 2.25 7.41988 2.25C7.41748 2.25 7.41507 2.25 7.41266 2.25C7.41025 2.25 7.40783 2.25 7.40542 2.25C7.403 2.25 7.40058 2.25 7.39815 2.25C7.39573 2.25 7.3933 2.25 7.39087 2.25C7.38844 2.25 7.386 2.25 7.38357 2.25C7.38113 2.25 7.37869 2.25 7.37624 2.25C7.37379 2.25 7.37135 2.25 7.36889 2.25C7.36644 2.25 7.36398 2.25 7.36152 2.25C7.35906 2.25 7.3566 2.25 7.35413 2.25C7.35167 2.25 7.3492 2.25 7.34672 2.25C7.34425 2.25 7.34177 2.25 7.33929 2.25C7.33681 2.25 7.33433 2.25 7.33184 2.25C7.32935 2.25 7.32686 2.25 7.32436 2.25C7.32187 2.25 7.31937 2.25 7.31687 2.25C7.31437 2.25 7.31186 2.25 7.30935 2.25C7.30684 2.25 7.30433 2.25 7.30182 2.25C7.2993 2.25 7.29678 2.25 7.29426 2.25C7.29173 2.25 7.28921 2.25 7.28668 2.25C7.28415 2.25 7.28161 2.25 7.27908 2.25C7.27654 2.25 7.274 2.25 7.27146 2.25C7.26891 2.25 7.26637 2.25 7.26382 2.25C7.26126 2.25 7.25871 2.25 7.25615 2.25C7.25359 2.25 7.25103 2.25 7.24847 2.25C7.2459 2.25 7.24334 2.25 7.24077 2.25C7.23819 2.25 7.23562 2.25 7.23304 2.25C7.23046 2.25 7.22788 2.25 7.2253 2.25C7.22271 2.25 7.22012 2.25 7.21753 2.25C7.21494 2.25 7.21234 2.25 7.20974 2.25C7.20714 2.25 7.20454 2.25 7.20193 2.25C7.19933 2.25 7.19672 2.25 7.19411 2.25C7.19149 2.25 7.18888 2.25 7.18626 2.25C7.18364 2.25 7.18102 2.25 7.17839 2.25C7.17576 2.25 7.17313 2.25 7.1705 2.25C7.16787 2.25 7.16523 2.25 7.16259 2.25C7.15995 2.25 7.1573 2.25 7.15466 2.25C7.15201 2.25 7.14936 2.25 7.14671 2.25C7.14405 2.25 7.1414 2.25 7.13874 2.25C7.13607 2.25 7.13341 2.25 7.13074 2.25C7.12808 2.25 7.12541 2.25 7.12273 2.25C7.12006 2.25 7.11738 2.25 7.1147 2.25C7.11202 2.25 7.10933 2.25 7.10665 2.25C7.10396 2.25 7.10127 2.25 7.09857 2.25C7.09588 2.25 7.09318 2.25 7.09048 2.25C7.08778 2.25 7.08507 2.25 7.08237 2.25C7.07966 2.25 7.07695 2.25 7.07423 2.25C7.07152 2.25 7.0688 2.25 7.06608 2.25C7.06336 2.25 7.06063 2.25 7.0579 2.25C7.05518 2.25 7.05244 2.25 7.04971 2.25C7.04698 2.25 7.04424 2.25 7.0415 2.25C7.03875 2.25 7.03601 2.25 7.03326 2.25C7.03051 2.25 7.02776 2.25 7.02501 2.25C7.02225 2.25 7.01949 2.25 7.01673 2.25C7.01397 2.25 7.01121 2.25 7.00844 2.25C7.00567 2.25 7.0029 2.25 7.00012 2.25C6.99735 2.25 6.99457 2.25 6.99179 2.25C6.98901 2.25 6.98622 2.25 6.98344 2.25C6.98065 2.25 6.97786 2.25 6.97506 2.25C6.97227 2.25 6.96947 2.25 6.96667 2.25C6.96387 2.25 6.96106 2.25 6.95826 2.25C6.95545 2.25 6.95264 2.25 6.94982 2.25C6.94701 2.25 6.94419 2.25 6.94137 2.25C6.93855 2.25 6.93572 2.25 6.9329 2.25C6.93007 2.25 6.92724 2.25 6.9244 2.25C6.92157 2.25 6.91873 2.25 6.91589 2.25C6.91305 2.25 6.91021 2.25 6.90736 2.25C6.90451 2.25 6.90166 2.25 6.89881 2.25C6.89596 2.25 6.8931 2.25 6.89024 2.25C6.88738 2.25 6.88451 2.25 6.88165 2.25C6.87878 2.25 6.87591 2.25 6.87304 2.25C6.87016 2.25 6.86729 2.25 6.86441 2.25C6.86153 2.25 6.85865 2.25 6.85576 2.25C6.85287 2.25 6.84998 2.25 6.84709 2.25C6.8442 2.25 6.8413 2.25 6.8384 2.25C6.8355 2.25 6.8326 2.25 6.8297 2.25C6.82679 2.25 6.82388 2.25 6.82097 2.25C6.81806 2.25 6.81514 2.25 6.81222 2.25C6.8093 2.25 6.80638 2.25 6.80346 2.25C6.80053 2.25 6.7976 2.25 6.79467 2.25C6.79174 2.25 6.78881 2.25 6.78587 2.25C6.78293 2.25 6.77999 2.25 6.77705 2.25C6.7741 2.25 6.77115 2.25 6.7682 2.25C6.76525 2.25 6.7623 2.25 6.75934 2.25C6.75639 2.25 6.75343 2.25 6.75046 2.25C6.7475 2.25 6.74453 2.25 6.74156 2.25C6.73859 2.25 6.73562 2.25 6.73264 2.25C6.72967 2.25 6.72669 2.25 6.72371 2.25C6.72072 2.25 6.71774 2.25 6.71475 2.25C6.71176 2.25 6.70877 2.25 6.70577 2.25C6.70278 2.25 6.69978 2.25 6.69678 2.25C6.69378 2.25 6.69077 2.25 6.68777 2.25C6.68476 2.25 6.68175 2.25 6.67873 2.25C6.67572 2.25 6.6727 2.25 6.66968 2.25C6.66666 2.25 6.66364 2.25 6.66061 2.25C6.65758 2.25 6.65455 2.25 6.65152 2.25C6.64849 2.25 6.64545 2.25 6.64241 2.25C6.63937 2.25 6.63633 2.25 6.63329 2.25C6.63024 2.25 6.62719 2.25 6.62414 2.25C6.62109 2.25 6.61803 2.25 6.61498 2.25C6.61192 2.25 6.60886 2.25 6.60579 2.25C6.60273 2.25 6.59966 2.25 6.59659 2.25C6.59352 2.25 6.59045 2.25 6.58737 2.25C6.58429 2.25 6.58121 2.25 6.57813 2.25C6.57505 2.25 6.57196 2.25 6.56887 2.25C6.56578 2.25 6.56269 2.25 6.5596 2.25C6.5565 2.25 6.5534 2.25 6.5503 2.25C6.5472 2.25 6.5441 2.25 6.54099 2.25C6.53788 2.25 6.53477 2.25 6.53166 2.25C6.52854 2.25 6.52543 2.25 6.52231 2.25C6.51919 2.25 6.51606 2.25 6.51294 2.25C6.50981 2.25 6.50668 2.25 6.50355 2.25C6.50042 2.25 6.49728 2.25 6.49415 2.25C6.49101 2.25 6.48787 2.25 6.48472 2.25C6.48158 2.25 6.47843 2.25 6.47528 2.25C6.47213 2.25 6.46898 2.25 6.46582 2.25C6.46266 2.25 6.4595 2.25 6.45634 2.25C6.45318 2.25 6.45001 2.25 6.44684 2.25C6.44368 2.25 6.4405 2.25 6.43733 2.25C6.43415 2.25 6.43098 2.25 6.4278 2.25C6.42462 2.25 6.42143 2.25 6.41824 2.25C6.41506 2.25 6.41187 2.25 6.40867 2.25C6.40548 2.25 6.40229 2.25 6.39909 2.25C6.39589 2.25 6.39269 2.25 6.38948 2.25C6.38628 2.25 6.38307 2.25 6.37986 2.25C6.37665 2.25 6.37343 2.25 6.37022 2.25C6.367 2.25 6.36378 2.25 6.36056 2.25C6.35733 2.25 6.35411 2.25 6.35088 2.25C6.34765 2.25 6.34442 2.25 6.34118 2.25C6.33795 2.25 6.33471 2.25 6.33147 2.25C6.32823 2.25 6.32498 2.25 6.32174 2.25C6.31849 2.25 6.31524 2.25 6.31199 2.25C6.30873 2.25 6.30548 2.25 6.30222 2.25C6.29896 2.25 6.2957 2.25 6.29244 2.25C6.28917 2.25 6.2859 2.25 6.28263 2.25C6.27936 2.25 6.27609 2.25 6.27281 2.25C6.26954 2.25 6.26626 2.25 6.26297 2.25C6.25969 2.25 6.25641 2.25 6.25312 2.25C6.24983 2.25 6.24654 2.25 6.24324 2.25C6.23995 2.25 6.23665 2.25 6.23335 2.25C6.23005 2.25 6.22675 2.25 6.22344 2.25C6.22014 2.25 6.21683 2.25 6.21352 2.25C6.21021 2.25 6.20689 2.25 6.20357 2.25C6.20026 2.25 6.19694 2.25 6.19361 2.25C6.19029 2.25 6.18696 2.25 6.18363 2.25C6.1803 2.25 6.17697 2.25 6.17364 2.25C6.1703 2.25 6.16696 2.25 6.16362 2.25C6.16028 2.25 6.15694 2.25 6.15359 2.25C6.15024 2.25 6.14689 2.25 6.14354 2.25C6.14019 2.25 6.13683 2.25 6.13348 2.25C6.13012 2.25 6.12676 2.25 6.12339 2.25C6.12003 2.25 6.11666 2.25 6.11329 2.25C6.10992 2.25 6.10655 2.25 6.10317 2.25C6.0998 2.25 6.09642 2.25 6.09304 2.25C6.08966 2.25 6.08627 2.25 6.08289 2.25C6.0795 2.25 6.07611 2.25 6.07272 2.25C6.06932 2.25 6.06593 2.25 6.06253 2.25C6.05913 2.25 6.05573 2.25 6.05232 2.25C6.04892 2.25 6.04551 2.25 6.0421 2.25C6.03869 2.25 6.03528 2.25 6.03187 2.25C6.02845 2.25 6.02503 2.25 6.02161 2.25C6.01819 2.25 6.01476 2.25 6.01134 2.25C6.00791 2.25 6.00448 2.25 6.00105 2.25C5.99762 2.25 5.99418 2.25 5.99074 2.25C5.9873 2.25 5.98386 2.25 5.98042 2.25C5.97697 2.25 5.97353 2.25 5.97008 2.25C5.96663 2.25 5.96318 2.25 5.95972 2.25C5.95627 2.25 5.95281 2.25 5.94935 2.25C5.94589 2.25 5.94242 2.25 5.93896 2.25C5.93549 2.25 5.93202 2.25 5.92855 2.25C5.92508 2.25 5.9216 2.25 5.91812 2.25C5.91465 2.25 5.91117 2.25 5.90768 2.25C5.9042 2.25 5.90071 2.25 5.89722 2.25C5.89374 2.25 5.89024 2.25 5.88675 2.25C5.88326 2.25 5.87976 2.25 5.87626 2.25C5.87276 2.25 5.86926 2.25 5.86575 2.25C5.86224 2.25 5.85874 2.25 5.85523 2.25C5.85171 2.25 5.8482 2.25 5.84468 2.25C5.84117 2.25 5.83765 2.25 5.83413 2.25C5.8306 2.25 5.82708 2.25 5.82355 2.25C5.82002 2.25 5.81649 2.25 5.81296 2.25C5.80943 2.25 5.80589 2.25 5.80235 2.25C5.79882 2.25 5.79527 2.25 5.79173 2.25C5.78819 2.25 5.78464 2.25 5.78109 2.25C5.77754 2.25 5.77399 2.25 5.77043 2.25C5.76688 2.25 5.76332 2.25 5.75976 2.25C5.7562 2.25 5.75264 2.25 5.74907 2.25C5.7455 2.25 5.74194 2.25 5.73836 2.25C5.73479 2.25 5.73122 2.25 5.72764 2.25C5.72407 2.25 5.72049 2.25 5.7169 2.25C5.71332 2.25 5.70974 2.25 5.70615 2.25C5.70256 2.25 5.69897 2.25 5.69538 2.25C5.69179 2.25 5.68819 2.25 5.68459 2.25C5.68099 2.25 5.67739 2.25 5.67379 2.25C5.67019 2.25 5.66658 2.25 5.66297 2.25C5.65936 2.25 5.65575 2.25 5.65213 2.25C5.64852 2.25 5.6449 2.25 5.64128 2.25C5.63766 2.25 5.63404 2.25 5.63042 2.25C5.62679 2.25 5.62316 2.25 5.61953 2.25C5.6159 2.25 5.61227 2.25 5.60863 2.25C5.605 2.25 5.60136 2.25 5.59772 2.25C5.59408 2.25 5.59043 2.25 5.58679 2.25C5.58314 2.25 5.57949 2.25 5.57584 2.25C5.57219 2.25 5.56853 2.25 5.56488 2.25C5.56122 2.25 5.55756 2.25 5.5539 2.25C5.55023 2.25 5.54657 2.25 5.5429 2.25C5.53923 2.25 5.53556 2.25 5.53189 2.25C5.52822 2.25 5.52454 2.25 5.52086 2.25C5.51719 2.25 5.51351 2.25 5.50982 2.25C5.50614 2.25 5.50245 2.25 5.49876 2.25C5.49508 2.25 5.49139 2.25 5.48769 2.25C5.484 2.25 5.4803 2.25 5.4766 2.25C5.4729 2.25 5.4692 2.25 5.4655 2.25C5.46179 2.25 5.45809 2.25 5.45438 2.25C5.45067 2.25 5.44696 2.25 5.44324 2.25C5.43953 2.25 5.43581 2.25 5.43209 2.25C5.42837 2.25 5.42465 2.25 5.42092 2.25C5.4172 2.25 5.41347 2.25 5.40974 2.25C5.40601 2.25 5.40228 2.25 5.39854 2.25C5.39481 2.25 5.39107 2.25 5.38733 2.25C5.38359 2.25 5.37984 2.25 5.3761 2.25C5.37235 2.25 5.3686 2.25 5.36485 2.25C5.3611 2.25 5.35735 2.25 5.35359 2.25C5.34984 2.25 5.34608 2.25 5.34232 2.25C5.33856 2.25 5.33479 2.25 5.33103 2.25C5.32726 2.25 5.32349 2.25 5.31972 2.25C5.31595 2.25 5.31218 2.25 5.3084 2.25C5.30463 2.25 5.30085 2.25 5.29707 2.25C5.29328 2.25 5.2895 2.25 5.28571 2.25V3.75ZM8.5 3.75C8.61216 3.75 8.86132 3.8593 9.20649 4.32913C9.51863 4.75398 9.77625 5.29541 9.94561 5.7099L11.3342 5.14253C11.1461 4.68227 10.8338 4.01059 10.4153 3.44102C10.0299 2.91643 9.38784 2.25 8.5 2.25L8.5 3.75ZM5.28571 2.25C4.91184 2.25 4.58086 2.24927 4.30742 2.27436C4.02191 2.30056 3.73205 2.35926 3.45324 2.51751L4.19365 3.82203C4.21395 3.81051 4.26751 3.78433 4.44449 3.76808C4.63355 3.75074 4.88415 3.75 5.28571 3.75V2.25ZM3.75 5.69388C3.75 5.22692 3.75038 4.91317 3.76637 4.6711C3.78201 4.4345 3.81005 4.32337 3.83832 4.25417L2.44977 3.6868C2.334 3.97013 2.29002 4.26374 2.26964 4.57222C2.24962 4.87524 2.25 5.24692 2.25 5.69388H3.75ZM3.45324 2.51751C2.99425 2.77801 2.64914 3.19887 2.44977 3.6868L3.83832 4.25417C3.9249 4.0423 4.05887 3.89853 4.19365 3.82203L3.45324 2.51751ZM11.3436 5.16549L11.3341 5.14246L9.94564 5.70997L9.95505 5.73301L11.3436 5.16549ZM12.6042 6.25326C12.1339 6.25073 11.6232 5.84961 11.3435 5.16547L9.95506 5.73303C10.3539 6.70874 11.2733 7.74611 12.5961 7.75324L12.6042 6.25326ZM6 21.75H17.9997V20.25H6V21.75ZM20.25 17.9998C20.25 19.2426 19.2426 20.25 17.9997 20.25V21.75C20.0709 21.75 21.7501 20.0712 21.75 17.9998L20.25 17.9998ZM2.25 18.001C2.25 20.0724 3.92926 21.75 6 21.75V20.25C4.75703 20.25 3.75 19.2433 3.75 18.001H2.25Z" fill="#2B2724"/>
<path d="M10 4H16C18.2091 4 20 5.79086 20 8V9" stroke="#2B2724" stroke-width="1.5"/>
<path d="M7 16L13 16" stroke="#2B2724" stroke-width="1.5" stroke-linecap="round"/>
</svg>
