<svg width="56" height="56" viewBox="0 0 56 56" fill="none" xmlns="http://www.w3.org/2000/svg">
<path d="M2.33334 27.9997C2.33334 13.8244 13.8247 2.33301 28 2.33301C42.1753 2.33301 53.6667 13.8244 53.6667 27.9997C53.6667 42.175 42.1753 53.6663 28 53.6663C13.8247 53.6663 2.33334 42.175 2.33334 27.9997Z" fill="#F2F2F2"/>
<g clip-path="url(#clip0_2813:4591)">
<path fill-rule="evenodd" clip-rule="evenodd" d="M24.862 20.5509C24.4633 20.1523 24.4633 19.5059 24.862 19.1073L26.3153 17.654C29.631 14.3382 35.0415 14.3496 38.3459 17.654C41.6617 20.9697 41.6504 26.3802 38.3459 29.6846L36.8926 31.1379C36.494 31.5366 35.8476 31.5366 35.449 31.1379C35.0503 30.7392 35.0503 30.0929 35.449 29.6942L36.9023 28.2409C39.4111 25.7321 39.419 21.6144 36.9023 19.0976C34.3935 16.5888 30.2757 16.5809 27.759 19.0976L26.3057 20.5509C25.907 20.9496 25.2607 20.9496 24.862 20.5509Z" fill="#2B2724"/>
<path fill-rule="evenodd" clip-rule="evenodd" d="M17.6528 38.3464C14.3379 35.0315 14.3379 29.6306 17.6528 26.3157L19.0964 24.8721C19.4951 24.4734 20.1415 24.4734 20.5401 24.8721C20.9388 25.2707 20.9388 25.9171 20.5401 26.3157L19.0964 27.7594C16.5789 30.277 16.5789 34.3851 19.0964 36.9027C21.6052 39.4115 25.723 39.4194 28.2397 36.9027L29.6834 35.459C30.0821 35.0604 30.7284 35.0604 31.1271 35.459C31.5257 35.8577 31.5257 36.504 31.1271 36.9027L29.6834 38.3464C26.3677 41.6621 20.9572 41.6508 17.6528 38.3464Z" fill="#2B2724"/>
<path fill-rule="evenodd" clip-rule="evenodd" d="M23.4283 32.5724C23.0296 32.1738 23.0296 31.5274 23.4283 31.1287L31.1279 23.4291C31.5266 23.0305 32.1729 23.0305 32.5716 23.4291C32.9702 23.8278 32.9702 24.4742 32.5716 24.8728L24.872 32.5724C24.4733 32.9711 23.827 32.9711 23.4283 32.5724Z" fill="#2B2724"/>
</g>
<defs>
<clipPath id="clip0_2813:4591">
<rect width="32.6667" height="32.6667" fill="white" transform="translate(11.6667 11.667)"/>
</clipPath>
</defs>
</svg>
