<svg width="24" height="24" viewBox="0 0 24 24" fill="none" xmlns="http://www.w3.org/2000/svg">
  <path
    d="M18.6741 9.84009C18.6741 17.8591 19.8284 21.4839 12.0646 21.4839C4.29982 21.4839 5.47791 17.8591 5.47791 9.84009"
    stroke="#F2F1F1" stroke-width="1.5" stroke-linecap="round" stroke-linejoin="round" />
  <path d="M20.1505 6.76562H4" stroke="#F2F1F1" stroke-width="1.5" stroke-linecap="round" stroke-linejoin="round" />
  <path d="M15.5 6.76571C15.5 6.76571 16.0286 3 12.0743 3C8.12093 3 8.64951 6.76571 8.64951 6.76571" stroke="#F2F1F1"
    stroke-width="1.5" stroke-linecap="round" stroke-linejoin="round" />
  <path
    d="M9.25 18C9.25 18.4142 9.58579 18.75 10 18.75C10.4142 18.75 10.75 18.4142 10.75 18H9.25ZM10.75 10C10.75 9.58579 10.4142 9.25 10 9.25C9.58579 9.25 9.25 9.58579 9.25 10H10.75ZM13.25 18C13.25 18.4142 13.5858 18.75 14 18.75C14.4142 18.75 14.75 18.4142 14.75 18H13.25ZM14.75 10C14.75 9.58579 14.4142 9.25 14 9.25C13.5858 9.25 13.25 9.58579 13.25 10H14.75ZM10.75 18V10H9.25V18H10.75ZM14.75 18V10H13.25V18H14.75Z"
    fill="#F2F1F1" />
</svg>