<?xml version="1.0" ?><svg width="128px" height="128px" viewBox="0 0 128 128" id="Layer_1" style="enable-background:new 0 0 128 128;" version="1.1" xml:space="preserve" xmlns="http://www.w3.org/2000/svg" xmlns:xlink="http://www.w3.org/1999/xlink"><g><path d="M50.738,80.422h-7.29V59.87c2.413-1.353,4.05-3.932,4.05-6.889V15.896c0-4.354-3.542-7.896-7.896-7.896   s-7.896,3.542-7.896,7.896V52.98c0,2.958,1.637,5.537,4.05,6.889v20.552h-7.29c-2.73,0-4.979,2.127-5.119,4.84l-1.595,29.329   c-0.082,1.417,0.409,2.766,1.384,3.798c0.966,1.023,2.327,1.609,3.736,1.609h25.461c1.409,0,2.771-0.586,3.736-1.609   c0.975-1.032,1.466-2.381,1.384-3.795l-1.593-29.33C55.717,82.549,53.468,80.422,50.738,80.422z M33.705,52.98V15.896   c0-3.251,2.646-5.896,5.896-5.896s5.896,2.645,5.896,5.896V52.98c0,3.251-2.646,5.896-5.896,5.896S33.705,56.231,33.705,52.98z    M54.613,117.017c-0.598,0.634-1.408,0.982-2.281,0.982H26.871c-0.873,0-1.684-0.349-2.281-0.982   c-0.593-0.628-0.893-1.448-0.843-2.313l1.596-29.334c0.085-1.652,1.457-2.946,3.122-2.946h8.29c0.553,0,1-0.448,1-1V60.649   c0.594,0.143,1.21,0.227,1.847,0.227s1.253-0.084,1.847-0.227v20.773c0,0.552,0.447,1,1,1h8.29c1.665,0,3.037,1.294,3.124,2.949   l1.594,29.335C55.506,115.568,55.206,116.389,54.613,117.017z"/><path d="M31.456,85.475c-1.681,0-3.048,1.368-3.048,3.049v23.441c0,1.681,1.367,3.049,3.048,3.049s3.049-1.368,3.049-3.049V88.523   C34.505,86.842,33.137,85.475,31.456,85.475z M32.505,111.964c0,0.578-0.471,1.049-1.049,1.049s-1.048-0.471-1.048-1.049V88.523   c0-0.578,0.47-1.049,1.048-1.049s1.049,0.471,1.049,1.049V111.964z"/><path d="M39.708,85.475c-1.681,0-3.048,1.368-3.048,3.049v23.441c0,1.681,1.367,3.049,3.048,3.049s3.049-1.368,3.049-3.049V88.523   C42.757,86.842,41.389,85.475,39.708,85.475z M40.757,111.964c0,0.578-0.471,1.049-1.049,1.049s-1.048-0.471-1.048-1.049V88.523   c0-0.578,0.47-1.049,1.048-1.049s1.049,0.471,1.049,1.049V111.964z"/><path d="M47.96,85.475c-1.681,0-3.048,1.368-3.048,3.049v23.441c0,1.681,1.368,3.049,3.049,3.049s3.048-1.368,3.048-3.049V88.523   C51.009,86.842,49.641,85.475,47.96,85.475z M49.009,111.964c0,0.578-0.47,1.049-1.048,1.049H47.96   c-0.578,0-1.048-0.471-1.048-1.049V88.523c0-0.578,0.471-1.049,1.049-1.049s1.048,0.471,1.048,1.049V111.964z"/><path d="M43.273,17.024c0-2.025-1.647-3.672-3.672-3.672s-3.672,1.647-3.672,3.672s1.647,3.672,3.672,3.672   S43.273,19.049,43.273,17.024z M37.93,17.024c0-0.922,0.75-1.672,1.672-1.672s1.672,0.75,1.672,1.672s-0.75,1.672-1.672,1.672   S37.93,17.946,37.93,17.024z"/><path d="M93.376,17.024c0-2.025-1.647-3.672-3.673-3.672c-2.024,0-3.672,1.647-3.672,3.672s1.647,3.672,3.672,3.672   C91.729,20.696,93.376,19.049,93.376,17.024z M88.031,17.024c0-0.922,0.75-1.672,1.672-1.672c0.923,0,1.673,0.75,1.673,1.672   s-0.75,1.672-1.673,1.672C88.781,18.696,88.031,17.946,88.031,17.024z"/><path d="M93.55,78.672V59.87c2.413-1.353,4.05-3.932,4.05-6.889V15.896C97.6,11.542,94.058,8,89.703,8   c-4.354,0-7.896,3.542-7.896,7.896V52.98c0,2.957,1.636,5.536,4.049,6.889v18.803c-7.406,2.216-12.707,10.618-12.707,20.377   c0,11.552,7.426,20.95,16.554,20.95s16.555-9.398,16.555-20.95C106.258,89.29,100.956,80.888,93.55,78.672z M83.808,52.98V15.896   c0-3.251,2.645-5.896,5.896-5.896s5.896,2.645,5.896,5.896V52.98c0,3.251-2.646,5.896-5.896,5.896S83.808,56.231,83.808,52.98z    M89.703,117.999c-8.025,0-14.554-8.501-14.554-18.95c0-9.18,5.021-17.026,11.937-18.658c0.028-0.007,0.049-0.026,0.076-0.035   c0.066-0.022,0.125-0.051,0.185-0.085c0.055-0.032,0.106-0.063,0.154-0.104c0.049-0.042,0.088-0.089,0.128-0.139   c0.04-0.051,0.076-0.1,0.106-0.157c0.029-0.055,0.048-0.113,0.066-0.174c0.02-0.065,0.034-0.129,0.04-0.199   c0.002-0.028,0.016-0.053,0.016-0.082V60.649c0.594,0.143,1.21,0.227,1.847,0.227s1.253-0.084,1.847-0.227v18.769   c0,0.029,0.014,0.054,0.017,0.082c0.006,0.069,0.02,0.132,0.04,0.197c0.018,0.062,0.037,0.12,0.067,0.176   c0.029,0.056,0.065,0.105,0.104,0.155c0.04,0.051,0.081,0.099,0.13,0.141c0.047,0.04,0.098,0.071,0.152,0.103   c0.06,0.034,0.119,0.063,0.185,0.085c0.027,0.009,0.047,0.028,0.076,0.035c6.917,1.631,11.938,9.478,11.938,18.658   C104.258,109.498,97.729,117.999,89.703,117.999z"/><path d="M89.703,83.167c-6.941,0-12.588,7.121-12.588,15.873c0,0.552,0.447,1,1,1s1-0.448,1-1c0-7.649,4.75-13.873,10.588-13.873   c0.553,0,1-0.448,1-1S90.256,83.167,89.703,83.167z"/></g></svg>