<svg width="30" height="32" viewBox="0 0 30 32" fill="none" xmlns="http://www.w3.org/2000/svg">
<g clip-path="url(#clip0_5747_22258)">
<path d="M3.12378 16.1526C3.19997 16.2288 3.27616 16.3812 3.35235 16.4573C3.35235 16.5335 3.42854 16.5335 3.42854 16.6097C3.35235 16.4574 3.27616 16.305 3.12378 16.1526Z" fill="#F04287"/>
<path d="M6.47619 20.2669C6.93334 20.724 7.31429 21.1811 7.77143 21.6383C7.77143 21.6383 7.77143 21.6383 7.84762 21.7145C8.45714 22.324 9.06667 22.9335 9.67619 23.6192C10.5143 24.4573 17.6762 31.543 22.4762 31.543C22.9333 31.543 23.3905 31.4669 23.7714 31.3145C28.1143 29.7145 29.181 20.6478 29.1048 16.0764C28.9524 11.2764 28.1905 6.62876 26.9714 2.05733C26.5905 0.838286 25.3714 0.152572 24.1524 0.533524C22.9333 0.914476 22.2476 2.13352 22.6286 3.35257C23.7714 7.46686 24.381 11.7335 24.5333 16.0764C24.6095 21.7907 23.0857 26.1335 22.2476 26.8954C21.0286 26.743 17.1429 24.5335 12.9524 20.2669C11.9619 19.2002 10.9714 18.2859 10.1333 17.2954C12.2667 14.9335 13.4857 12.0383 13.2571 9.90495C13.0286 7.39067 12.0381 5.40971 10.5143 4.34305C9.14286 3.42876 7.46667 3.124 5.86667 3.50495C1.67619 4.41924 0.914288 8.60971 1.14286 10.743C1.37143 12.8764 2.20953 14.8573 3.58096 16.6097L2.05715 17.2192C1.98096 17.2192 1.98095 17.2192 1.90476 17.2954C0.761907 17.7526 0.152383 19.124 0.685717 20.2669C1.14286 21.4097 2.51429 22.0192 3.65714 21.4859L5.40953 20.8002L5.56191 20.724C5.86667 20.5716 6.17143 20.4192 6.47619 20.2669ZM7.08572 13.7145C6.32381 12.724 5.86667 11.5811 5.6381 10.3621C5.6381 10.1335 5.56191 8.30495 6.85715 8.00019C7.00953 8.00019 7.16191 7.924 7.31429 7.924C7.46667 7.924 7.61905 7.924 7.77143 8.00019C8.30476 8.60971 8.60953 9.44781 8.60953 10.2859C8.45714 11.5811 7.92381 12.8002 7.08572 13.7145Z" fill="#F04287"/>
<path d="M5.48577 20.7237C5.79053 20.5713 6.09529 20.4189 6.47624 20.2665C5.40958 19.1237 4.4191 17.9046 3.50481 16.6094L2.28577 17.0665C2.28577 17.0665 2.43815 17.3713 2.74291 17.8284C4.03815 19.5808 4.26672 19.8856 5.2572 20.876L5.40958 20.7999L5.48577 20.7237Z" fill="#DB086A"/>
</g>
<defs>
<clipPath id="clip0_5747_22258">
<rect width="29.5385" height="32" fill="white"/>
</clipPath>
</defs>
</svg>
