<svg width="118" height="44" viewBox="0 0 118 44" fill="none" xmlns="http://www.w3.org/2000/svg">
<path d="M50.9896 11.6157C53.7668 11.6157 56.0182 9.36437 56.0182 6.58717C56.0182 3.80996 53.7668 1.55859 50.9896 1.55859C48.2124 1.55859 45.9611 3.80996 45.9611 6.58717C45.9611 9.36437 48.2124 11.6157 50.9896 11.6157Z" fill="#F04287"/>
<path d="M72.6124 11.6157C75.3896 11.6157 77.641 9.36437 77.641 6.58717C77.641 3.80996 75.3896 1.55859 72.6124 1.55859C69.8352 1.55859 67.5839 3.80996 67.5839 6.58717C67.5839 9.36437 69.8352 11.6157 72.6124 11.6157Z" fill="#F04287"/>
<path d="M53.3029 43.5974C51.0903 43.5974 48.9783 42.8934 47.0675 41.6865C39.8263 37.1608 43.8492 21.3711 44.7543 18.2534C45.1566 16.6442 46.7657 15.6385 48.3749 16.0408C49.984 16.4431 50.9897 18.0522 50.5875 19.6614C50.5875 19.762 50.5875 19.7619 50.4869 19.8625C48.576 26.6008 47.9726 35.1494 50.1852 36.5574C51.5932 37.5631 53.4035 37.7642 55.1132 37.1608C59.7395 35.4511 64.768 27.8077 67.7852 18.1528C68.288 16.5437 69.9978 15.6385 71.5063 16.1414C73.1155 16.6442 74.0206 18.3539 73.5178 19.8625C72.6126 23.6842 72.2103 27.6065 72.3109 31.5288C72.512 34.1437 73.216 35.954 74.2218 36.5574C74.8252 36.8591 75.5292 36.9597 76.2332 36.7585C79.0492 35.8534 81.8652 33.0374 84.0778 29.0145C84.7818 27.7071 85.4858 23.6842 85.8881 20.9688C86.8938 15.4374 87.2961 12.6214 90.5143 12.7219C93.3303 12.8225 93.9338 15.1357 95.6435 21.9745C96.0458 23.7848 96.7498 26.3997 97.3532 28.21C98.7612 25.9974 100.069 20.9688 100.571 19.0579C101.577 15.4374 101.979 13.9288 103.589 13.0237C104.393 12.6214 105.298 12.5208 106.203 12.9231C107.209 13.3254 108.818 14.4317 108.315 17.3482C108.215 17.8511 108.114 18.3539 108.215 18.8568C108.315 19.2591 108.718 19.5608 109.12 19.6614C109.925 19.8625 110.629 19.1585 111.031 18.5551C112.137 17.2477 114.048 17.1471 115.255 18.2534C116.462 19.2591 116.663 21.0694 115.758 22.3768C113.646 25.0922 110.528 26.2991 107.611 25.4945C106.807 25.2934 106.103 24.9917 105.399 24.4888C103.689 30.0202 101.074 35.8534 95.744 35.0488C93.3303 34.6465 92.3246 32.434 90.9166 27.4054C90.6149 29.0145 90.1121 30.5231 89.4081 31.9311C86.3909 37.4625 82.368 41.1837 78.0435 42.5917C75.6298 43.3962 73.0149 43.0945 70.8023 41.6865C68.6903 40.2785 67.2823 37.8648 66.5783 34.6465C63.7623 38.77 60.4435 41.6865 57.024 42.8934C56.0183 43.3962 54.6103 43.5974 53.3029 43.5974Z" fill="#F04287"/>
<path d="M4.12341 23.0815C4.22398 23.1821 4.32456 23.3833 4.42513 23.4838C4.42513 23.5844 4.5257 23.5844 4.5257 23.685C4.42513 23.4838 4.32456 23.2827 4.12341 23.0815Z" fill="#F04287"/>
<path d="M8.5486 28.5122C9.15203 29.1156 9.65489 29.719 10.2583 30.3225C10.2583 30.3225 10.2583 30.3225 10.3589 30.423C11.1635 31.2276 11.968 32.0322 12.7726 32.9373C13.8789 34.0436 23.3326 43.3968 29.6686 43.3968C30.272 43.3968 30.8755 43.2962 31.3783 43.095C37.1109 40.983 38.5189 29.015 38.4183 22.9808C38.2172 16.6448 37.2115 10.5099 35.6023 4.47562C35.0995 2.86648 33.4903 1.96134 31.8812 2.46419C30.272 2.96705 29.3669 4.57619 29.8697 6.18534C31.3783 11.6162 32.1829 17.2482 32.384 22.9808C32.4846 30.5236 30.4732 36.2562 29.3669 37.2619C27.7577 37.0608 22.6286 34.1442 17.0972 28.5122C15.7897 27.1042 14.4823 25.8973 13.376 24.5899C16.192 21.4722 17.8012 17.6505 17.4995 14.8345C17.1977 11.5156 15.8903 8.90076 13.8789 7.49276C12.0686 6.28591 9.85603 5.88362 7.74403 6.38648C2.2126 7.59333 1.20689 13.1248 1.5086 15.9408C1.81032 18.7568 2.9166 21.3716 4.72689 23.6848L2.71546 24.4893C2.61489 24.4893 2.61489 24.4893 2.51432 24.5899C1.00575 25.1933 0.201175 27.0036 0.905175 28.5122C1.5086 30.0208 3.31889 30.8253 4.82746 30.1213L7.1406 29.2162L7.34175 29.1156C7.74403 28.9145 8.14632 28.7133 8.5486 28.5122ZM9.35318 19.863C8.34746 18.5556 7.74403 17.047 7.44232 15.4379C7.44232 15.1362 7.34175 12.7225 9.05146 12.3202C9.2526 12.3202 9.45375 12.2196 9.65489 12.2196C9.85603 12.2196 10.0572 12.2196 10.2583 12.3202C10.9623 13.1248 11.3646 14.231 11.3646 15.3373C11.1635 17.047 10.4595 18.6562 9.35318 19.863Z" fill="#F04287"/>
<path d="M7.24121 29.1154C7.6435 28.9143 8.04578 28.7131 8.54864 28.512C7.14064 27.0034 5.83321 25.3943 4.62636 23.6846L3.01721 24.288C3.01721 24.288 3.21836 24.6903 3.62064 25.2937C5.33036 27.6069 5.63207 28.0091 6.9395 29.3166L7.14064 29.216L7.24121 29.1154Z" fill="#DB086A"/>
</svg>
