<svg width="25" height="24" viewBox="0 0 25 24" fill="none" xmlns="http://www.w3.org/2000/svg">
<path fill-rule="evenodd" clip-rule="evenodd" d="M16.9635 2.37373C15.8214 2.24999 14.3818 2.24999 12.5452 2.25H12.4548C10.6182 2.24999 9.17861 2.24999 8.03648 2.37373C6.87094 2.50001 5.92656 2.76232 5.12024 3.34815C4.63209 3.70281 4.20281 4.13209 3.84815 4.62024C3.26232 5.42656 3.00001 6.37094 2.87373 7.53648C2.74999 8.67861 2.74999 10.1182 2.75 11.9548V12.0452C2.74999 13.8818 2.74999 15.3214 2.87373 16.4635C3.00001 17.6291 3.26232 18.5734 3.84815 19.3798C4.20281 19.8679 4.63209 20.2972 5.12024 20.6518C5.92656 21.2377 6.87094 21.5 8.03648 21.6263C9.17859 21.75 10.6182 21.75 12.4547 21.75H12.5453C14.3818 21.75 15.8214 21.75 16.9635 21.6263C18.1291 21.5 19.0734 21.2377 19.8798 20.6518C20.3679 20.2972 20.7972 19.8679 21.1518 19.3798C21.7377 18.5734 22 17.6291 22.1263 16.4635C22.25 15.3214 22.25 13.8818 22.25 12.0453V11.9547C22.25 10.1182 22.25 8.67859 22.1263 7.53648C22 6.37094 21.7377 5.42656 21.1518 4.62024C20.7972 4.13209 20.3679 3.70281 19.8798 3.34815C19.0734 2.76232 18.1291 2.50001 16.9635 2.37373ZM6.00191 4.56168C6.50992 4.19259 7.16013 3.97745 8.19804 3.865C9.24999 3.75103 10.6084 3.75 12.5 3.75C14.3916 3.75 15.75 3.75103 16.802 3.865C17.8399 3.97745 18.4901 4.19259 18.9981 4.56168C19.3589 4.82382 19.6762 5.14111 19.9383 5.50191C20.3074 6.00992 20.5225 6.66013 20.635 7.69804C20.749 8.74999 20.75 10.1084 20.75 12C20.75 13.8916 20.749 15.25 20.635 16.302C20.5225 17.3399 20.3074 17.9901 19.9383 18.4981C19.6762 18.8589 19.3589 19.1762 18.9981 19.4383C18.4901 19.8074 17.8399 20.0225 16.802 20.135C15.75 20.249 14.3916 20.25 12.5 20.25C10.6084 20.25 9.24999 20.249 8.19804 20.135C7.16013 20.0225 6.50992 19.8074 6.00191 19.4383C5.64111 19.1762 5.32382 18.8589 5.06168 18.4981C4.69259 17.9901 4.47745 17.3399 4.365 16.302C4.25103 15.25 4.25 13.8916 4.25 12C4.25 10.1084 4.25103 8.74999 4.365 7.69804C4.47745 6.66013 4.69259 6.00992 5.06168 5.50191C5.32382 5.14111 5.64111 4.82382 6.00191 4.56168Z" fill="#8C8C8C"/>
<path d="M11.59 15.59C11.23 15.59 10.89 15.5 10.58 15.33C9.9 14.93 9.5 14.13 9.5 13.12V10.72C9.5 9.70999 9.9 8.89998 10.59 8.49998C11.28 8.09998 12.18 8.15998 13.05 8.66998L15.13 9.86998C16 10.37 16.51 11.12 16.51 11.92C16.51 12.72 16 13.47 15.12 13.97L13.04 15.17C12.56 15.45 12.06 15.59 11.59 15.59ZM11.6 9.73998C11.5 9.73998 11.41 9.75998 11.34 9.79998C11.13 9.91998 11 10.26 11 10.72V13.12C11 13.57 11.13 13.91 11.34 14.04C11.55 14.16 11.91 14.1 12.3 13.87L14.38 12.67C14.77 12.44 15.01 12.16 15.01 11.92C15.01 11.68 14.78 11.4 14.38 11.17L12.3 9.96999C12.04 9.81999 11.79 9.73998 11.6 9.73998Z" fill="#8C8C8C"/>
</svg>
