<svg width="24" height="24" viewBox="0 0 24 24" fill="none" xmlns="http://www.w3.org/2000/svg">
<path d="M12.0005 14C13.3266 14 14.5983 13.4732 15.536 12.5355C16.4737 11.5978 17.0005 10.3261 17.0005 8.99999C17.0005 7.67391 16.4737 6.40214 15.536 5.46446C14.5983 4.52678 13.3266 3.99999 12.0005 3.99999C10.6744 3.99999 9.40263 4.52678 8.46495 5.46446C7.52727 6.40214 7.00049 7.67391 7.00049 8.99999C7.00049 10.3261 7.52727 11.5978 8.46495 12.5355C9.40263 13.4732 10.6744 14 12.0005 14V14ZM13.0005 18H14.0005C14.2657 18 14.5201 18.1053 14.7076 18.2929C14.8951 18.4804 15.0005 18.7348 15.0005 19C15.0005 19.2652 14.8951 19.5196 14.7076 19.7071C14.5201 19.8946 14.2657 20 14.0005 20H13.0005V21C13.0005 21.2652 12.8951 21.5196 12.7076 21.7071C12.5201 21.8946 12.2657 22 12.0005 22C11.7353 22 11.4809 21.8946 11.2934 21.7071C11.1058 21.5196 11.0005 21.2652 11.0005 21V20H10.0005C9.73527 20 9.48092 19.8946 9.29338 19.7071C9.10584 19.5196 9.00049 19.2652 9.00049 19C9.00049 18.7348 9.10584 18.4804 9.29338 18.2929C9.48092 18.1053 9.73527 18 10.0005 18H11.0005V16C11.0005 15.976 11.0005 15.953 11.0025 15.93C9.25369 15.6737 7.6665 14.7656 6.55941 13.3878C5.45232 12.01 4.90723 10.2646 5.03354 8.5016C5.15984 6.73865 5.94819 5.08869 7.24039 3.8828C8.53259 2.67691 10.233 2.00432 12.0005 1.99999C13.7722 1.99731 15.4791 2.66658 16.7768 3.87283C18.0745 5.07907 18.8666 6.73254 18.9932 8.49976C19.1198 10.267 18.5716 12.0165 17.459 13.3954C16.3465 14.7743 14.7525 15.6801 12.9985 15.93L13.0005 16V18Z" fill="black"/>
</svg>
