<svg width="24" height="24" viewBox="0 0 24 24" fill="none" xmlns="http://www.w3.org/2000/svg">
<path d="M6.86448 17.136C7.32804 17.6036 7.87939 17.9751 8.48689 18.2291C9.09439 18.483 9.74607 18.6145 10.4045 18.616C11.063 18.6174 11.7152 18.4888 12.3238 18.2375C12.9324 17.9862 13.4854 17.6171 13.951 17.1515C14.4166 16.6859 14.7856 16.1329 15.037 15.5243C15.2883 14.9157 15.4169 14.2635 15.4155 13.605C15.414 12.9466 15.2825 12.2949 15.0286 11.6874C14.7746 11.0799 14.4031 10.5286 13.9355 10.065C12.9964 9.1341 11.7268 8.6131 10.4045 8.61599C9.08223 8.61889 7.81493 9.14545 6.87993 10.0804C5.94493 11.0154 5.41838 12.2827 5.41548 13.605C5.41258 14.9273 5.93359 16.1969 6.86448 17.136ZM14.5925 7.994L17.1455 5.441H15.6285C15.3633 5.441 15.1089 5.33564 14.9214 5.14811C14.7338 4.96057 14.6285 4.70622 14.6285 4.441C14.6285 4.17578 14.7338 3.92143 14.9214 3.73389C15.1089 3.54636 15.3633 3.441 15.6285 3.441H19.6285C19.7599 3.4406 19.8901 3.4662 20.0116 3.51631C20.1331 3.56643 20.2435 3.64007 20.3365 3.73301C20.4294 3.82595 20.5031 3.93634 20.5532 4.05785C20.6033 4.17935 20.6289 4.30957 20.6285 4.441V8.441C20.6285 8.70621 20.5231 8.96057 20.3356 9.14811C20.1481 9.33564 19.8937 9.441 19.6285 9.441C19.3633 9.441 19.1089 9.33564 18.9214 9.14811C18.7338 8.96057 18.6285 8.70621 18.6285 8.441V6.786L16.0065 9.408C17.0591 10.826 17.5369 12.5894 17.3444 14.3449C17.1518 16.1003 16.303 17.7182 14.9681 18.8743C13.6331 20.0305 11.9106 20.6395 10.1457 20.5793C8.38069 20.5192 6.70363 19.7943 5.45048 18.55C4.19832 17.2987 3.46671 15.6195 3.40298 13.8505C3.33925 12.0814 3.94812 10.3539 5.107 9.01582C6.26588 7.67769 7.8887 6.82832 9.64871 6.63873C11.4087 6.44913 13.1752 6.93339 14.5925 7.994Z" fill="black"/>
</svg>
