<svg width="16" height="16" viewBox="0 0 16 16" fill="none" xmlns="http://www.w3.org/2000/svg">
<g clip-path="url(#clip0_2470:4828)">
<path d="M2.08337 8.00001C2.08337 7.58579 1.74759 7.25001 1.33337 7.25001C0.91916 7.25001 0.583374 7.58579 0.583374 8.00001H2.08337ZM3.99939 2.66667L4.4499 3.26629V3.26629L3.99939 2.66667ZM2.66671 3.99936L3.22154 4.504L3.2452 4.47798L3.26633 4.44986L2.66671 3.99936ZM2.92516 0.670018C2.92701 0.255808 2.59273 -0.0814728 2.17852 -0.0833208C1.76431 -0.0851688 1.42703 0.249116 1.42518 0.663326L2.92516 0.670018ZM2.16926 1.99048L1.41927 1.98713L2.16926 1.99048ZM4.6226 4.44381L4.62594 5.19381H4.62594L4.6226 4.44381ZM5.94975 5.1879C6.36396 5.18605 6.69825 4.84877 6.6964 4.43456C6.69455 4.02035 6.35727 3.68607 5.94306 3.68792L5.94975 5.1879ZM2.44163 3.93512L1.8485 4.39414L1.8485 4.39414L2.44163 3.93512ZM2.67796 4.17145L2.21894 4.76458L2.21894 4.76458L2.67796 4.17145ZM0.583374 8.00001C0.583374 12.0961 3.90393 15.4167 8.00004 15.4167V13.9167C4.73236 13.9167 2.08337 11.2677 2.08337 8.00001H0.583374ZM8.00004 15.4167C12.0962 15.4167 15.4167 12.0961 15.4167 8.00001H13.9167C13.9167 11.2677 11.2677 13.9167 8.00004 13.9167V15.4167ZM15.4167 8.00001C15.4167 3.90389 12.0962 0.583338 8.00004 0.583338V2.08334C11.2677 2.08334 13.9167 4.73232 13.9167 8.00001H15.4167ZM8.00004 0.583338C6.33093 0.583338 4.78864 1.1356 3.54888 2.06705L4.4499 3.26629C5.43879 2.52332 6.66695 2.08334 8.00004 2.08334V0.583338ZM3.54889 2.06705C2.98784 2.48858 2.48861 2.9878 2.06709 3.54885L3.26633 4.44986C3.60298 4.00177 4.00181 3.60295 4.4499 3.26629L3.54889 2.06705ZM1.42518 0.663326L1.41927 1.98713L2.91926 1.99383L2.92516 0.670018L1.42518 0.663326ZM4.62594 5.19381L5.94975 5.1879L5.94306 3.68792L4.61925 3.69382L4.62594 5.19381ZM1.41927 1.98713C1.417 2.49735 1.41387 2.9434 1.45333 3.30471C1.49443 3.68111 1.58939 4.05932 1.8485 4.39414L3.03476 3.4761C3.01444 3.44984 2.97086 3.38359 2.94446 3.14187C2.91642 2.88506 2.91682 2.53932 2.91926 1.99383L1.41927 1.98713ZM4.61925 3.69382C4.07376 3.69626 3.72802 3.69666 3.47121 3.66862C3.22949 3.64222 3.16324 3.59864 3.13698 3.57832L2.21894 4.76458C2.55376 5.02369 2.93197 5.11865 3.30837 5.15975C3.66968 5.19921 4.11573 5.19608 4.62594 5.19381L4.61925 3.69382ZM1.8485 4.39414C1.91604 4.48141 1.99037 4.56305 2.07077 4.63835L3.09609 3.54349C3.07391 3.52272 3.0534 3.50019 3.03476 3.4761L1.8485 4.39414ZM2.07077 4.63835C2.11811 4.68268 2.16755 4.72481 2.21894 4.76458L3.13698 3.57832C3.12279 3.56734 3.10915 3.55572 3.09609 3.54349L2.07077 4.63835ZM2.11188 3.49471L2.0286 3.58627L3.13826 4.59556L3.22154 4.504L2.11188 3.49471Z" fill="#2B2724"/>
</g>
<defs>
<clipPath id="clip0_2470:4828">
<rect width="16" height="16" fill="white"/>
</clipPath>
</defs>
</svg>
