<svg width="25" height="24" viewBox="0 0 25 24" fill="none" xmlns="http://www.w3.org/2000/svg">
<path fill-rule="evenodd" clip-rule="evenodd" d="M11.6724 2C7.15891 2 3.5 5.65891 3.5 10.1724C3.5 14.6859 7.15891 18.3448 11.6724 18.3448C16.1859 18.3448 19.8448 14.6859 19.8448 10.1724C19.8448 5.65891 16.1859 2 11.6724 2ZM10.1714 5.5208C10.5805 5.456 10.8596 5.07182 10.7948 4.66271C10.7301 4.25359 10.3459 3.97447 9.93676 4.03927C7.67311 4.39779 5.89776 6.17314 5.53923 8.43679C5.47443 8.8459 5.75356 9.23009 6.16267 9.29488C6.57179 9.35968 6.95597 9.08056 7.02076 8.67144C7.27763 7.04963 8.5496 5.77767 10.1714 5.5208Z" fill="#F2F1F1"/>
<path fill-rule="evenodd" clip-rule="evenodd" d="M19.467 16.9062C19.1741 16.6133 18.6992 16.6133 18.4063 16.9062C18.1134 17.1991 18.1134 17.674 18.4063 17.9669L22.0384 21.599C22.3313 21.8919 22.8062 21.8919 23.0991 21.599C23.392 21.3061 23.392 20.8312 23.0991 20.5383L19.467 16.9062Z" fill="#F2F1F1"/>
</svg>
