<svg width="25" height="24" viewBox="0 0 25 24" fill="none" xmlns="http://www.w3.org/2000/svg">
<path d="M19.4114 16.8508C19.1185 16.5579 18.6436 16.5579 18.3507 16.8508C18.0579 17.1437 18.0578 17.6185 18.3507 17.9114L19.4114 16.8508ZM21.9697 21.5304C22.2626 21.8233 22.7375 21.8233 23.0304 21.5304C23.3233 21.2376 23.3233 20.7627 23.0304 20.4698L21.9697 21.5304ZM10.1477 5.51075C10.5568 5.44596 10.836 5.06178 10.7712 4.65266C10.7064 4.24355 10.3222 3.96442 9.91308 4.02922L10.1477 5.51075ZM5.52919 8.41311C5.4644 8.82223 5.74352 9.20641 6.15264 9.2712C6.56175 9.336 6.94593 9.05688 7.01073 8.64776L5.52919 8.41311ZM18.3507 17.9114L21.9697 21.5304L23.0304 20.4698L19.4114 16.8508L18.3507 17.9114ZM11.6429 17.5358C7.55991 17.5358 4.25 14.2259 4.25 10.1429H2.75C2.75 15.0543 6.73148 19.0358 11.6429 19.0358V17.5358ZM19.0358 10.1429C19.0358 14.2259 15.7259 17.5358 11.6429 17.5358V19.0358C16.5543 19.0358 20.5358 15.0543 20.5358 10.1429H19.0358ZM11.6429 2.75C15.7259 2.75 19.0358 6.05991 19.0358 10.1429H20.5358C20.5358 5.23148 16.5543 1.25 11.6429 1.25V2.75ZM11.6429 1.25C6.73148 1.25 2.75 5.23148 2.75 10.1429H4.25C4.25 6.05991 7.55991 2.75 11.6429 2.75V1.25ZM9.91308 4.02922C7.65645 4.38664 5.88661 6.15648 5.52919 8.41311L7.01073 8.64776C7.26649 7.03297 8.53294 5.76651 10.1477 5.51075L9.91308 4.02922Z" fill="#8C8C8C"/>
</svg>
