<svg width="24" height="24" viewBox="0 0 24 24" fill="none" xmlns="http://www.w3.org/2000/svg">
<g clip-path="url(#clip0_2742:12519)">
<path d="M21.3314 12.0123C21.3407 11.2955 20.9525 10.6368 20.322 10.2911L5.63011 2.21894C4.97206 1.84703 4.19633 1.89272 3.57625 2.31614C2.9448 2.7467 2.6216 3.77164 2.79812 4.5119L4.16967 10.2582C4.31047 10.8474 4.83783 11.2623 5.44453 11.2597L13.6205 11.2343C14.0392 11.2259 14.3788 11.5655 14.3704 11.9842C14.3691 12.3958 14.0345 12.7303 13.6159 12.7387L5.43208 12.7577C4.82538 12.7589 4.29544 13.1756 4.15098 13.7657L2.73093 19.5349C2.55851 20.2166 2.75509 20.8972 3.23612 21.3782C3.29271 21.4348 3.35637 21.4985 3.42008 21.548C4.04303 22.0286 4.85887 22.0899 5.55542 21.7187L20.2971 13.7256C20.9297 13.3901 21.322 12.729 21.3314 12.0123Z" fill="#2B2724"/>
</g>
<defs>
<clipPath id="clip0_2742:12519">
<rect width="24" height="24" fill="white"/>
</clipPath>
</defs>
</svg>
