<svg width="34" height="34" viewBox="0 0 34 34" fill="none" xmlns="http://www.w3.org/2000/svg">
  <path fill-rule="evenodd" clip-rule="evenodd"
    d="M9.17318 8.83344C9.17318 5.26277 12.0678 2.36816 15.6385 2.36816C19.2091 2.36816 22.1037 5.26277 22.1037 8.83344C22.1037 12.4041 19.2091 15.2987 15.6385 15.2987C12.0678 15.2987 9.17318 12.4041 9.17318 8.83344ZM15.6385 4.40983C13.1954 4.40983 11.2148 6.39035 11.2148 8.83344C11.2148 11.2765 13.1954 13.2571 15.6385 13.2571C18.0816 13.2571 20.0621 11.2765 20.0621 8.83344C20.0621 6.39035 18.0816 4.40983 15.6385 4.40983ZM5.08984 23.8057C5.08984 20.235 7.98445 17.3404 11.5551 17.3404H17.6801C18.2439 17.3404 18.701 17.7974 18.701 18.3612C18.701 18.925 18.2439 19.3821 17.6801 19.3821H11.5551C9.11203 19.3821 7.13151 21.3626 7.13151 23.8057C7.13151 26.2488 9.11203 28.2293 11.5551 28.2293H17.6801C18.2439 28.2293 18.701 28.6863 18.701 29.2501C18.701 29.8139 18.2439 30.2709 17.6801 30.2709H11.5551C7.98445 30.2709 5.08984 27.3763 5.08984 23.8057ZM25.1662 28.5696C26.663 28.5696 27.9986 27.8793 28.8719 26.7997L20.5467 22.6371C20.4524 23.011 20.4023 23.4025 20.4023 23.8057C20.4023 26.4367 22.5352 28.5696 25.1662 28.5696ZM21.4607 20.8114L29.7858 24.974C29.8801 24.6002 29.9301 24.2088 29.9301 23.8057C29.9301 21.1746 27.7973 19.0418 25.1662 19.0418C23.6696 19.0418 22.3341 19.732 21.4607 20.8114ZM25.1662 30.6112C28.9248 30.6112 31.9718 27.5643 31.9718 23.8057C31.9718 20.0471 28.9248 17.0001 25.1662 17.0001C21.4076 17.0001 18.3607 20.0471 18.3607 23.8057C18.3607 27.5643 21.4076 30.6112 25.1662 30.6112Z"
    fill="#2B2724" />
</svg>