<svg width="18" height="18" viewBox="0 0 18 18" fill="none" xmlns="http://www.w3.org/2000/svg">
  <path
    d="M6.75 1.5C4.78249 1.5 3.1875 3.09499 3.1875 5.0625C3.1875 7.03001 4.78249 8.625 6.75 8.625C8.71751 8.625 10.3125 7.03001 10.3125 5.0625C10.3125 3.09499 8.71751 1.5 6.75 1.5Z"
    fill="#FFF0DA" />
  <path
    d="M14.8125 6.5625C14.8125 6.25184 14.5607 6 14.25 6C13.9393 6 13.6875 6.25184 13.6875 6.5625V8.25H12C11.6893 8.25 11.4375 8.50184 11.4375 8.8125C11.4375 9.12316 11.6893 9.375 12 9.375H13.6875V11.0625C13.6875 11.3732 13.9393 11.625 14.25 11.625C14.5607 11.625 14.8125 11.3732 14.8125 11.0625V9.375H16.5C16.8107 9.375 17.0625 9.12316 17.0625 8.8125C17.0625 8.50184 16.8107 8.25 16.5 8.25H14.8125V6.5625Z"
    fill="#FFF0DA" />
  <path
    d="M4.5 9.75C2.53249 9.75 0.9375 11.345 0.9375 13.3125C0.9375 15.28 2.53249 16.875 4.5 16.875H9C10.9675 16.875 12.5625 15.28 12.5625 13.3125C12.5625 11.345 10.9675 9.75 9 9.75H4.5Z"
    fill="#FFF0DA" />
</svg>