<svg width="18" height="16" viewBox="0 0 18 16" fill="none" xmlns="http://www.w3.org/2000/svg">
  <path fill-rule="evenodd" clip-rule="evenodd"
    d="M6.75 0.5C4.78249 0.5 3.1875 2.09499 3.1875 4.0625C3.1875 6.03001 4.78249 7.625 6.75 7.625C8.71751 7.625 10.3125 6.03001 10.3125 4.0625C10.3125 2.09499 8.71751 0.5 6.75 0.5ZM12 7.25C11.6893 7.25 11.4375 7.50184 11.4375 7.8125C11.4375 8.12316 11.6893 8.375 12 8.375H15.1126L14.0466 9.26325C13.808 9.46213 13.7757 9.81682 13.9746 10.0555C14.1735 10.2941 14.5282 10.3264 14.7669 10.1275L16.9477 8.31012C17.2536 8.05525 17.2536 7.58551 16.9477 7.33064L14.7669 5.51325C14.5282 5.31437 14.1735 5.34662 13.9746 5.58527C13.7757 5.82393 13.808 6.17862 14.0466 6.3775L15.0936 7.25H12ZM0.9375 12.3125C0.9375 10.345 2.53249 8.75 4.5 8.75H9C10.9675 8.75 12.5625 10.345 12.5625 12.3125C12.5625 14.28 10.9675 15.875 9 15.875H4.5C2.53249 15.875 0.9375 14.28 0.9375 12.3125Z"
    fill="white" />
</svg>