<svg width="48" height="42" viewBox="0 0 48 42" fill="none" xmlns="http://www.w3.org/2000/svg">
  <path
    d="M47.7634 7.01214C47.744 9.56571 46.8542 11.9258 45.0938 14.0925L26.4353 37.0166C23.9204 40.1118 21.0863 41.6595 17.933 41.6595H10.5045L13.4353 8.14383H0L4.32366 0.831334H18.3683C19.9353 0.831334 21.2507 1.31496 22.3147 2.28223C23.3787 3.24949 23.9107 4.47791 23.9107 5.96749C23.9107 6.16095 23.901 6.3544 23.8817 6.54785L20.8638 36.059L38.6228 13.9184C36.8043 13.5702 35.2954 12.7673 34.096 11.5099C32.9159 10.2331 32.3259 8.73386 32.3259 7.01214C32.3259 5.09696 33.0804 3.46229 34.5893 2.10812C36.0982 0.734608 37.9167 0.0478516 40.0446 0.0478516C42.192 0.0478516 44.0201 0.734608 45.529 2.10812C47.0379 3.48163 47.7827 5.1163 47.7634 7.01214Z"
    fill="#F04287" />
</svg>