<svg width="24" height="24" viewBox="0 0 24 24" fill="none" xmlns="http://www.w3.org/2000/svg">
<path fill-rule="evenodd" clip-rule="evenodd" d="M16.4635 2.37373C15.3214 2.24999 13.8818 2.24999 12.0452 2.25H11.9548C10.1182 2.24999 8.67861 2.24999 7.53648 2.37373C6.37094 2.50001 5.42656 2.76232 4.62024 3.34815C4.13209 3.70281 3.70281 4.13209 3.34815 4.62024C2.76232 5.42656 2.50001 6.37094 2.37373 7.53648C2.24999 8.67861 2.24999 10.1182 2.25 11.9548V12.0452C2.24999 13.8818 2.24999 15.3214 2.37373 16.4635C2.50001 17.6291 2.76232 18.5734 3.34815 19.3798C3.70281 19.8679 4.13209 20.2972 4.62024 20.6518C5.42656 21.2377 6.37094 21.5 7.53648 21.6263C8.67859 21.75 10.1182 21.75 11.9547 21.75H12.0453C13.8818 21.75 15.3214 21.75 16.4635 21.6263C17.6291 21.5 18.5734 21.2377 19.3798 20.6518C19.8679 20.2972 20.2972 19.8679 20.6518 19.3798C21.2377 18.5734 21.5 17.6291 21.6263 16.4635C21.75 15.3214 21.75 13.8818 21.75 12.0453V11.9547C21.75 10.1182 21.75 8.67859 21.6263 7.53648C21.5 6.37094 21.2377 5.42656 20.6518 4.62024C20.2972 4.13209 19.8679 3.70281 19.3798 3.34815C18.5734 2.76232 17.6291 2.50001 16.4635 2.37373ZM5.50191 4.56168C6.00992 4.19259 6.66013 3.97745 7.69804 3.865C8.74999 3.75103 10.1084 3.75 12 3.75C13.8916 3.75 15.25 3.75103 16.302 3.865C17.3399 3.97745 17.9901 4.19259 18.4981 4.56168C18.8589 4.82382 19.1762 5.14111 19.4383 5.50191C19.8074 6.00992 20.0225 6.66013 20.135 7.69804C20.249 8.74999 20.25 10.1084 20.25 12C20.25 13.8916 20.249 15.25 20.135 16.302C20.0225 17.3399 19.8074 17.9901 19.4383 18.4981C19.1762 18.8589 18.8589 19.1762 18.4981 19.4383C17.9901 19.8074 17.3399 20.0225 16.302 20.135C15.25 20.249 13.8916 20.25 12 20.25C10.1084 20.25 8.74999 20.249 7.69804 20.135C6.66013 20.0225 6.00992 19.8074 5.50191 19.4383C5.14111 19.1762 4.82382 18.8589 4.56168 18.4981C4.19259 17.9901 3.97745 17.3399 3.865 16.302C3.75103 15.25 3.75 13.8916 3.75 12C3.75 10.1084 3.75103 8.74999 3.865 7.69804C3.97745 6.66013 4.19259 6.00992 4.56168 5.50191C4.82382 5.14111 5.14111 4.82382 5.50191 4.56168Z" fill="#2B2724"/>
<path d="M10.3623 7.07049C10.0264 7.30565 9.5529 7.22216 9.31773 6.88631L7.45361 4.22407C7.21845 3.88821 7.30194 3.41468 7.63779 3.17952C7.97365 2.94435 8.44717 3.02785 8.68234 3.3637L10.5465 6.02594C10.7816 6.36179 10.6981 6.83532 10.3623 7.07049Z" fill="#2B2724"/>
<path d="M16.1123 7.07049C15.7764 7.30565 15.3029 7.22216 15.0677 6.88631L13.2036 4.22407C12.9684 3.88821 13.0519 3.41468 13.3878 3.17952C13.7236 2.94435 14.1972 3.02785 14.4323 3.3637L16.2965 6.02594C16.5316 6.36179 16.4481 6.83532 16.1123 7.07049Z" fill="#2B2724"/>
<path d="M11.09 17.3517C10.73 17.3517 10.39 17.2617 10.08 17.0917C9.4 16.6917 9 15.8917 9 14.8817V12.4817C9 11.4717 9.4 10.6617 10.09 10.2617C10.78 9.8617 11.68 9.9217 12.55 10.4317L14.63 11.6317C15.5 12.1317 16.01 12.8817 16.01 13.6817C16.01 14.4817 15.5 15.2317 14.62 15.7317L12.54 16.9317C12.06 17.2117 11.56 17.3517 11.09 17.3517ZM11.1 11.5017C11 11.5017 10.91 11.5217 10.84 11.5617C10.63 11.6817 10.5 12.0217 10.5 12.4817V14.8817C10.5 15.3317 10.63 15.6717 10.84 15.8017C11.05 15.9217 11.41 15.8617 11.8 15.6317L13.88 14.4317C14.27 14.2017 14.51 13.9217 14.51 13.6817C14.51 13.4417 14.28 13.1617 13.88 12.9317L11.8 11.7317C11.54 11.5817 11.29 11.5017 11.1 11.5017Z" fill="#2B2724"/>
<path d="M20.5 7.86035H3.5C3.09 7.86035 2.75 7.52035 2.75 7.11035C2.75 6.70035 3.08 6.36035 3.5 6.36035L20.5 6.36035C20.91 6.36035 21.25 6.70035 21.25 7.11035C21.25 7.52035 20.92 7.86035 20.5 7.86035Z" fill="#2B2724"/>
</svg>
