<svg width="24" height="24" viewBox="0 0 24 24" fill="none" xmlns="http://www.w3.org/2000/svg">
<path fill-rule="evenodd" clip-rule="evenodd" d="M11.3015 6.36035C11.2899 6.33977 11.2772 6.31959 11.2634 6.29988L8.46369 2.30148C9.43372 2.24999 10.5836 2.24999 11.9547 2.25H11.9548H12.0452H12.0453C12.161 2.25 12.2752 2.25 12.3878 2.25003C12.4099 2.31989 12.4427 2.38741 12.4866 2.45012L15.2246 6.36035H11.3015ZM14.1843 2.25956L17.0134 6.29988C17.0272 6.31959 17.0399 6.33977 17.0515 6.36035H21.4284C21.2693 5.7092 21.0269 5.13643 20.6518 4.62024C20.2972 4.13209 19.8679 3.70281 19.3798 3.34815C18.5734 2.76232 17.6291 2.50001 16.4635 2.37373C15.808 2.30271 15.0546 2.27245 14.1843 2.25956ZM21.6575 7.86035H2.34253C2.24999 8.94769 2.24999 10.2877 2.25 11.9547V11.9548V12.0452V12.0453C2.24999 13.8818 2.24999 15.3214 2.37373 16.4635C2.50001 17.6291 2.76232 18.5734 3.34815 19.3798C3.70281 19.8679 4.13209 20.2972 4.62024 20.6518C5.42656 21.2377 6.37094 21.5 7.53648 21.6263C8.67859 21.75 10.1182 21.75 11.9547 21.75H12.0453C13.8818 21.75 15.3214 21.75 16.4635 21.6263C17.6291 21.5 18.5734 21.2377 19.3798 20.6518C19.8679 20.2972 20.2972 19.8679 20.6518 19.3798C21.2377 18.5734 21.5 17.6291 21.6263 16.4635C21.75 15.3214 21.75 13.8818 21.75 12.0453V11.9547C21.75 10.2877 21.75 8.94768 21.6575 7.86035ZM2.57161 6.36035C2.73067 5.7092 2.97312 5.13643 3.34815 4.62024C3.70281 4.13209 4.13209 3.70281 4.62024 3.34815C5.23988 2.89796 5.94105 2.63881 6.76147 2.48564L9.47458 6.36035H2.57161ZM11.09 17.3517C10.73 17.3517 10.39 17.2617 10.08 17.0917C9.4 16.6917 9 15.8917 9 14.8817V12.4817C9 11.4717 9.4 10.6617 10.09 10.2617C10.78 9.8617 11.68 9.9217 12.55 10.4317L14.63 11.6317C15.5 12.1317 16.01 12.8817 16.01 13.6817C16.01 14.4817 15.5 15.2317 14.62 15.7317L12.54 16.9317C12.06 17.2117 11.56 17.3517 11.09 17.3517ZM11.1 11.5017C11 11.5017 10.91 11.5217 10.84 11.5617C10.63 11.6817 10.5 12.0217 10.5 12.4817V14.8817C10.5 15.3317 10.63 15.6717 10.84 15.8017C11.05 15.9217 11.41 15.8617 11.8 15.6317L13.88 14.4317C14.27 14.2017 14.51 13.9217 14.51 13.6817C14.51 13.4417 14.28 13.1617 13.88 12.9317L11.8 11.7317C11.54 11.5817 11.29 11.5017 11.1 11.5017Z" fill="#2B2724"/>
</svg>
