<?xml version="1.0" encoding="utf-8"?>

<!DOCTYPE svg PUBLIC "-//W3C//DTD SVG 1.1//EN" "http://www.w3.org/Graphics/SVG/1.1/DTD/svg11.dtd">
<svg version="1.1" id="Layer_1" xmlns="http://www.w3.org/2000/svg" xmlns:xlink="http://www.w3.org/1999/xlink" x="0px" y="0px"
	 viewBox="0 0 2761.735 1427.261" enable-background="new 0 0 2761.735 1427.261" xml:space="preserve">
<g>
	<path fill="none" stroke="#000000" stroke-width="64" stroke-miterlimit="10" d="M2660.868,713.631
		c0,0-573.076,638.384-1280,638.384s-1280-638.384-1280-638.384s573.076-638.384,1280-638.384S2660.868,713.631,2660.868,713.631z"
		/>
	<circle fill="none" stroke="#000000" stroke-width="64" stroke-miterlimit="10" cx="1380.868" cy="713.631" r="638.384"/>
	<path d="M1705.456,496.798c-4.914,86.16-76.33,154.517-163.72,154.517c-90.575,0-164-73.425-164-164
		c0-68.349,41.817-126.924,101.258-151.559c-31.353-8.118-64.234-12.441-98.125-12.441c-215.566,0-390.317,174.751-390.317,390.316
		s174.751,390.316,390.317,390.316s390.316-174.751,390.316-390.316C1771.184,633.395,1746.969,558.818,1705.456,496.798z"/>
</g>
</svg>
