<svg width="24" height="24" viewBox="0 0 24 24" fill="none" xmlns="http://www.w3.org/2000/svg">
  <path
    d="M10.3627 3.90644C11.1322 3.42098 11.9345 3.08771 12.7695 3.3311C13.0467 3.41187 13.3094 3.53578 13.548 3.69827C14.2669 4.18786 14.5199 5.01894 14.6347 5.92153C14.7001 6.43521 14.7284 7.04812 14.7407 7.75958L19.0306 3.46958C19.3235 3.17669 19.7984 3.17668 20.0913 3.46958C20.3842 3.76247 20.3842 4.23734 20.0913 4.53024L4.09138 20.5302C3.79849 20.8231 3.32362 20.8231 3.03072 20.5302C2.73783 20.2373 2.73783 19.7625 3.03072 19.4696L6.21365 16.2866C6.15829 16.2419 6.11801 16.2103 6.07791 16.1804C5.40104 15.676 4.5893 15.3846 3.74617 15.3434C3.6466 15.3385 3.54225 15.3383 3.28377 15.3383L3.24221 15.3383C3.01939 15.3384 2.84771 15.3384 2.69421 15.3212C1.41758 15.1784 0.409921 14.1707 0.267071 12.8941C0.249896 12.7406 0.249945 12.5689 0.250007 12.3461V11.1162C0.249945 10.8934 0.249896 10.7217 0.267071 10.5682C0.409921 9.29157 1.41758 8.28392 2.69421 8.14107C2.8477 8.12389 3.01937 8.12394 3.24217 8.12401L3.28377 8.12401C3.54225 8.12401 3.6466 8.12381 3.74617 8.11893C4.5893 8.07767 5.40104 7.78627 6.07791 7.28188C6.15785 7.22231 6.23851 7.15611 6.43797 6.99171L7.47816 6.13442C8.65177 5.16713 9.5898 4.39401 10.3627 3.90644Z"
    fill="white" />
  <path
    d="M13.3172 13.3044C13.846 12.7756 14.75 13.1501 14.75 13.8978C14.75 15.4187 14.75 16.6343 14.6347 17.5408C14.5199 18.4434 14.2669 19.2745 13.548 19.764C13.3094 19.9265 13.0467 20.0504 12.7695 20.1312C11.9345 20.3746 11.1322 20.0413 10.3627 19.5559C10.3245 19.5318 10.286 19.5071 10.247 19.4816C9.41569 18.9387 9.00001 18.6672 8.95085 18.1935C8.90169 17.7199 9.28279 17.3388 10.045 16.5766L13.3172 13.3044Z"
    fill="white" />
  <path
    d="M17.838 8.78352C17.5721 9.04946 17.5459 9.46634 17.7167 9.80141C18.5218 11.3807 18.2752 13.357 16.9769 14.693C16.9566 14.7139 16.9314 14.7391 16.8697 14.8008L16.4697 15.2008C16.1768 15.4937 16.1768 15.9686 16.4697 16.2615C16.7626 16.5544 17.2375 16.5544 17.5303 16.2615L17.937 15.8549C17.9909 15.8009 18.0242 15.7677 18.0526 15.7384C19.8733 13.8647 20.1653 11.0604 18.9285 8.88832C18.7016 8.48978 18.1623 8.45923 17.838 8.78352Z"
    fill="white" />
  <path
    d="M20.2496 7.08222C20.0705 6.8679 20.0693 6.55219 20.2668 6.3547L20.5218 6.09977C20.7691 5.85241 21.1763 5.85194 21.4006 6.12037C24.1149 9.36849 24.1149 14.0938 21.4006 17.3419C21.1497 17.6421 20.8295 17.9623 20.266 18.5258L19.5303 19.2615C19.2375 19.5544 18.7626 19.5544 18.4697 19.2615C18.1768 18.9686 18.1768 18.4937 18.4697 18.2008L19.1697 17.5008C19.7784 16.8921 20.0473 16.6222 20.2496 16.3801C22.4986 13.6888 22.4986 9.77352 20.2496 7.08222Z"
    fill="white" />
</svg>