<svg width="24" height="24" viewBox="0 0 24 24" fill="none" xmlns="http://www.w3.org/2000/svg">
  <path
    d="M12.7695 3.3311C11.9345 3.08771 11.1322 3.42098 10.3627 3.90644C9.5898 4.39401 8.65177 5.16713 7.47816 6.13442L6.43797 6.99171C6.23851 7.15611 6.15785 7.22231 6.07791 7.28188C5.40104 7.78627 4.5893 8.07767 3.74617 8.11893C3.6466 8.12381 3.54225 8.12401 3.28377 8.12401L3.2422 8.12401C3.01938 8.12394 2.8477 8.12389 2.69421 8.14107C1.41758 8.28392 0.409921 9.29157 0.267071 10.5682C0.249896 10.7217 0.249945 10.8934 0.250007 11.1162V12.3461C0.249945 12.5689 0.249896 12.7406 0.267071 12.8941C0.409921 14.1707 1.41758 15.1784 2.69421 15.3212C2.84771 15.3384 3.01939 15.3384 3.24221 15.3383L3.28377 15.3383C3.54225 15.3383 3.6466 15.3385 3.74617 15.3434C4.5893 15.3846 5.40104 15.676 6.07791 16.1804C6.15785 16.24 6.23851 16.3062 6.43797 16.4706L7.47814 17.3279C8.65176 18.2952 9.5898 19.0683 10.3627 19.5559C11.1322 20.0413 11.9345 20.3746 12.7695 20.1312C13.0467 20.0504 13.3094 19.9265 13.548 19.764C14.2669 19.2745 14.5199 18.4434 14.6347 17.5408C14.75 16.6343 14.75 15.4187 14.75 13.8978V9.56448C14.75 8.04362 14.75 6.82804 14.6347 5.92153C14.5199 5.01894 14.2669 4.18786 13.548 3.69827C13.3094 3.53578 13.0467 3.41187 12.7695 3.3311Z"
    fill="white" />
  <path
    d="M19.5303 4.20083C19.2375 3.90793 18.7626 3.90793 18.4697 4.20083C18.1768 4.49372 18.1768 4.96859 18.4697 5.26149L19.1697 5.96149C19.7784 6.5702 20.0473 6.84015 20.2496 7.08222C22.4986 9.77352 22.4986 13.6888 20.2496 16.3801C20.0473 16.6222 19.7784 16.8921 19.1697 17.5008L18.4697 18.2008C18.1768 18.4937 18.1768 18.9686 18.4697 19.2615C18.7626 19.5544 19.2375 19.5544 19.5303 19.2615L20.266 18.5258C20.8295 17.9623 21.1497 17.6421 21.4006 17.3419C24.1149 14.0938 24.1149 9.36849 21.4006 6.12037C21.1497 5.82018 20.8295 5.49997 20.266 4.93644L19.5303 4.20083Z"
    fill="white" />
  <path
    d="M17.5303 7.20083C17.2375 6.90793 16.7626 6.90793 16.4697 7.20083C16.1768 7.49372 16.1768 7.96859 16.4697 8.26149L16.8697 8.66149C16.9314 8.72318 16.9566 8.74844 16.9769 8.7693C18.5796 10.4186 18.5796 13.0437 16.9769 14.693C16.9566 14.7139 16.9314 14.7391 16.8697 14.8008L16.4697 15.2008C16.1768 15.4937 16.1768 15.9686 16.4697 16.2615C16.7626 16.5544 17.2375 16.5544 17.5303 16.2615L17.9357 15.8561C17.9904 15.8015 18.0239 15.7679 18.0526 15.7384C20.2211 13.5069 20.2211 9.95539 18.0526 7.72393C18.0239 7.69438 17.9905 7.66098 17.9357 7.60614L17.5303 7.20083Z"
    fill="white" />
</svg>