<svg width="24" height="24" viewBox="0 0 24 24" fill="none" xmlns="http://www.w3.org/2000/svg">
<path d="M1 12C1 5.92487 5.92487 1 12 1C18.0751 1 23 5.92487 23 12C23 18.0751 18.0751 23 12 23C5.92487 23 1 18.0751 1 12Z" fill="#FF0000"/>
<path d="M18.7074 8.57129C18.5464 7.95277 18.072 7.46572 17.4696 7.30041C16.3779 7 12 7 12 7C12 7 7.62206 7 6.5303 7.30041C5.9279 7.46572 5.45349 7.95277 5.29249 8.57129C5 9.69229 5 12.0313 5 12.0313C5 12.0313 5 14.3701 5.29249 15.4912C5.45349 16.1097 5.9279 16.5968 6.5303 16.7622C7.62206 17.0625 12 17.0625 12 17.0625C12 17.0625 16.3779 17.0625 17.4696 16.7622C18.072 16.5968 18.5464 16.1097 18.7074 15.4912C19 14.3701 19 12.0313 19 12.0313C19 12.0313 19 9.69229 18.7074 8.57129Z" fill="white"/>
<path d="M10.6865 14.4375V10.0625L14.1865 12.2501L10.6865 14.4375Z" fill="#FF0000"/>
</svg>
